{"glyphs":{"0":{"ha":833,"x_min":65,"x_max":768,"o":"m 417 -17 q 260 17 326 -17 q 150 115 193 51 q 86 272 107 179 q 65 485 65 365 q 86 697 65 603 q 150 854 107 790 q 260 952 193 918 q 417 986 326 986 q 683 854 597 986 q 768 485 768 722 q 683 115 768 247 q 417 -17 597 -17 m 417 117 q 502 137 467 117 q 560 194 538 157 q 592 284 582 232 q 601 400 601 336 l 601 569 q 592 685 601 633 q 560 775 582 738 q 502 833 538 813 q 417 853 467 853 q 331 833 367 853 q 274 775 296 813 q 242 685 251 738 q 232 569 232 633 l 232 400 q 242 284 232 336 q 274 194 251 232 q 331 137 296 157 q 417 117 367 117 z "},"1":{"ha":833,"x_min":63,"x_max":785,"o":"m 122 0 l 122 131 l 394 131 l 394 856 l 383 856 l 158 615 l 63 701 l 310 969 l 549 969 l 549 131 l 785 131 l 785 0 l 122 0 z "},"2":{"ha":833,"x_min":79,"x_max":751,"o":"m 751 0 l 93 0 l 93 150 l 403 426 q 516 553 476 493 q 556 681 556 614 l 556 699 q 513 810 556 769 q 399 850 471 850 q 328 838 358 850 q 276 806 299 826 q 240 757 254 785 q 217 697 225 729 l 79 750 q 121 838 94 796 q 188 914 147 881 q 283 967 228 947 q 411 986 338 986 q 543 965 485 986 q 641 905 601 943 q 701 814 681 867 q 722 699 722 761 q 704 590 722 640 q 654 496 686 540 q 580 411 622 451 q 490 329 538 371 l 263 133 l 751 133 l 751 0 z "},"3":{"ha":833,"x_min":44,"x_max":722,"o":"m 364 571 q 497 609 454 571 q 540 707 540 647 l 540 717 q 499 819 540 783 q 386 854 457 854 q 268 823 317 854 q 186 736 219 792 l 82 826 q 132 888 104 858 q 197 938 160 917 q 282 973 235 960 q 390 986 329 986 q 517 969 458 986 q 617 920 575 953 q 682 841 658 888 q 706 736 706 794 q 691 653 706 690 q 651 587 676 615 q 591 540 625 558 q 519 514 557 522 l 519 507 q 598 480 561 499 q 663 431 635 461 q 706 360 690 401 q 722 267 722 319 q 697 151 722 203 q 627 61 672 99 q 518 3 582 24 q 376 -17 454 -17 q 257 -2 308 -17 q 166 37 206 13 q 97 92 126 61 q 44 157 67 124 l 160 247 q 198 194 178 218 q 244 152 218 169 q 302 125 269 135 q 376 115 335 115 q 513 158 465 115 q 560 275 560 200 l 560 285 q 510 399 560 360 q 368 438 460 438 l 265 438 l 265 571 l 364 571 z "},"4":{"ha":833,"x_min":49,"x_max":779,"o":"m 499 0 l 499 189 l 49 189 l 49 324 l 442 969 l 647 969 l 647 313 l 779 313 l 779 189 l 647 189 l 647 0 l 499 0 m 182 313 l 499 313 l 499 826 l 489 826 l 182 313 z "},"5":{"ha":833,"x_min":89,"x_max":756,"o":"m 706 833 l 275 833 l 250 490 l 260 490 q 294 542 276 519 q 336 582 313 565 q 390 608 360 599 q 463 617 421 617 q 578 596 525 617 q 672 536 632 575 q 733 441 711 497 q 756 314 756 385 q 733 181 756 242 q 665 76 710 119 q 556 8 621 32 q 410 -17 492 -17 q 294 -2 344 -17 q 206 37 244 13 q 140 92 168 61 q 89 157 111 124 l 203 247 q 240 194 221 218 q 285 153 260 171 q 341 125 310 135 q 413 115 372 115 q 545 163 499 115 q 592 293 592 210 l 592 310 q 545 440 592 393 q 413 488 499 488 q 313 464 350 488 q 249 411 275 440 l 119 429 l 156 969 l 706 969 l 706 833 z "},"6":{"ha":833,"x_min":78,"x_max":760,"o":"m 419 -17 q 276 10 339 -17 q 169 85 213 36 q 101 204 125 135 q 78 361 78 274 q 110 560 78 467 q 192 731 142 653 q 303 869 242 808 q 425 969 365 929 l 633 969 q 486 854 551 910 q 372 740 421 799 q 291 617 324 682 q 240 474 258 551 l 250 471 q 285 526 265 500 q 333 571 306 551 q 394 601 360 590 q 475 613 429 613 q 588 592 536 613 q 678 531 640 571 q 738 436 717 492 q 760 313 760 381 q 735 178 760 239 q 667 75 711 118 q 559 8 622 32 q 419 -17 496 -17 m 419 111 q 551 156 504 111 q 599 289 599 201 l 599 308 q 551 441 599 396 q 419 486 504 486 q 288 441 335 486 q 240 308 240 396 l 240 289 q 288 156 240 201 q 419 111 335 111 z "},"7":{"ha":833,"x_min":88,"x_max":744,"o":"m 238 0 l 589 840 l 222 840 l 222 661 l 88 661 l 88 969 l 744 969 l 744 833 l 403 0 l 238 0 z "},"8":{"ha":833,"x_min":69,"x_max":764,"o":"m 417 -17 q 267 5 332 -17 q 159 64 203 26 q 92 153 115 101 q 69 264 69 204 q 123 420 69 361 q 264 503 176 479 l 264 514 q 144 597 189 540 q 99 738 99 654 q 120 839 99 793 q 182 917 142 885 q 282 968 222 950 q 417 986 342 986 q 551 968 492 986 q 651 917 611 950 q 713 839 692 885 q 735 738 735 793 q 690 597 735 654 q 569 514 644 540 l 569 503 q 710 420 657 479 q 764 264 764 361 q 741 153 764 204 q 674 64 718 101 q 566 5 631 26 q 417 -17 501 -17 m 417 110 q 552 150 504 110 q 600 263 600 190 l 600 290 q 552 403 600 363 q 417 443 504 443 q 281 403 329 443 q 233 290 233 363 l 233 263 q 281 150 233 190 q 417 110 329 110 m 417 564 q 540 599 497 564 q 582 700 582 633 l 582 724 q 540 825 582 790 q 417 860 497 860 q 294 825 336 860 q 251 724 251 790 l 251 700 q 294 599 251 633 q 417 564 336 564 z "},"9":{"ha":833,"x_min":74,"x_max":756,"o":"m 756 608 q 724 410 756 503 q 642 239 692 317 q 530 100 592 161 q 408 0 468 39 l 200 0 q 347 115 282 60 q 461 229 413 171 q 542 353 510 288 q 593 496 575 418 l 583 499 q 548 444 568 469 q 501 399 528 418 q 439 368 474 379 q 358 357 404 357 q 245 378 297 357 q 155 438 193 399 q 95 533 117 478 q 74 657 74 588 q 98 790 74 729 q 167 894 122 851 q 274 962 211 938 q 414 986 336 986 q 558 960 494 986 q 665 884 621 933 q 732 765 708 835 q 756 608 756 696 m 414 483 q 546 528 499 483 q 593 661 593 574 l 593 681 q 546 813 593 768 q 414 858 499 858 q 282 813 329 858 q 235 681 235 768 l 235 661 q 282 528 235 574 q 414 483 329 483 z "},"\u0000":{"ha":0,"x_min":0,"x_max":0,"o":""},"\r":{"ha":328,"x_min":0,"x_max":0,"o":""}," ":{"ha":328,"x_min":0,"x_max":0,"o":""},"a":{"ha":763,"x_min":56,"x_max":722,"o":"m 638 0 q 546 34 578 0 q 507 121 514 68 l 500 121 q 424 18 479 53 q 289 -17 368 -17 q 116 42 176 -17 q 56 199 56 100 q 134 361 56 307 q 364 415 213 415 l 494 415 l 494 476 q 458 579 494 543 q 346 615 422 615 q 242 588 282 615 q 174 517 201 560 l 83 599 q 185 699 119 660 q 356 739 250 739 q 571 674 496 739 q 646 486 646 608 l 646 124 l 722 124 l 722 0 l 638 0 m 332 99 q 449 130 403 99 q 494 214 494 161 l 494 318 l 367 318 q 210 221 210 318 l 210 196 q 242 123 210 147 q 332 99 275 99 z "},"b":{"ha":822,"x_min":108,"x_max":757,"o":"m 108 1028 l 260 1028 l 260 603 l 267 603 q 344 703 290 668 q 469 739 397 739 q 682 640 607 739 q 757 361 757 540 q 682 83 757 182 q 469 -17 607 -17 q 344 19 397 -17 q 267 119 290 56 l 260 119 l 260 0 l 108 0 l 108 1028 m 424 114 q 550 165 503 114 q 597 299 597 215 l 597 424 q 550 558 597 507 q 424 608 503 608 q 307 574 354 608 q 260 485 260 540 l 260 238 q 307 148 260 182 q 424 114 354 114 z "},"c":{"ha":708,"x_min":60,"x_max":672,"o":"m 388 -17 q 249 10 310 -17 q 146 85 188 36 q 82 205 104 135 q 60 361 60 275 q 82 517 60 447 q 146 637 104 588 q 249 713 188 686 q 388 739 310 739 q 565 690 496 739 q 667 561 635 642 l 542 503 q 488 583 526 553 q 388 613 450 613 q 262 560 304 613 q 219 425 219 508 l 219 296 q 262 160 219 213 q 388 108 304 108 q 494 141 454 108 q 557 228 533 174 l 672 167 q 564 31 636 78 q 388 -17 492 -17 z "},"d":{"ha":822,"x_min":65,"x_max":714,"o":"m 563 119 l 556 119 q 478 19 532 56 q 353 -17 425 -17 q 140 83 215 -17 q 65 361 65 182 q 140 640 65 540 q 353 739 215 739 q 478 703 425 739 q 556 603 532 668 l 563 603 l 563 1028 l 714 1028 l 714 0 l 563 0 l 563 119 m 399 114 q 515 148 468 114 q 563 238 563 182 l 563 485 q 515 574 563 540 q 399 608 468 608 q 272 558 319 608 q 225 424 225 507 l 225 299 q 272 165 225 215 q 399 114 319 114 z "},"e":{"ha":772,"x_min":60,"x_max":713,"o":"m 392 -17 q 253 10 314 -17 q 149 85 192 36 q 83 205 106 135 q 60 361 60 275 q 83 517 60 447 q 149 637 106 588 q 253 713 192 686 q 392 739 314 739 q 531 711 471 739 q 632 634 592 683 q 692 519 672 585 q 713 379 713 454 l 713 322 l 217 322 l 217 299 q 266 162 217 215 q 407 108 315 108 q 519 138 474 108 q 597 217 565 167 l 686 129 q 569 23 646 63 q 392 -17 493 -17 m 392 621 q 320 607 353 621 q 265 568 288 593 q 229 508 242 543 q 217 432 217 474 l 217 422 l 553 422 l 553 436 q 510 570 553 519 q 392 621 467 621 z "},"f":{"ha":472,"x_min":36,"x_max":449,"o":"m 146 599 l 36 599 l 36 722 l 146 722 l 146 842 q 192 978 146 929 q 329 1028 238 1028 l 449 1028 l 449 904 l 297 904 l 297 722 l 449 722 l 449 599 l 297 599 l 297 0 l 146 0 l 146 599 z "},"g":{"ha":746,"x_min":47,"x_max":742,"o":"m 742 -68 q 656 -237 742 -181 q 375 -294 569 -294 q 224 -283 286 -294 q 123 -249 163 -271 q 65 -194 83 -226 q 47 -121 47 -162 q 80 -28 47 -61 q 171 18 113 6 l 171 33 q 89 144 89 60 q 126 230 89 200 q 217 272 164 260 l 217 278 q 119 363 153 308 q 85 492 85 418 q 159 671 85 603 q 372 739 233 739 q 503 717 449 739 l 503 736 q 526 812 503 785 q 597 839 549 839 l 708 839 l 708 717 l 561 717 l 561 688 q 636 605 610 656 q 663 492 663 554 q 588 315 663 382 q 374 247 513 247 q 279 258 321 247 q 231 231 251 249 q 210 186 210 214 q 236 144 210 157 q 311 132 263 132 l 489 132 q 682 78 622 132 q 742 -68 742 25 m 600 -85 q 572 -25 600 -47 q 468 -3 543 -3 l 224 -3 q 174 -86 174 -32 q 209 -158 174 -131 q 329 -185 244 -185 l 424 -185 q 600 -85 600 -185 m 374 357 q 477 387 440 357 q 514 479 514 417 l 514 507 q 477 599 514 569 q 374 629 440 629 q 270 599 307 629 q 233 507 233 569 l 233 479 q 270 387 233 417 q 374 357 307 357 z "},"h":{"ha":806,"x_min":108,"x_max":704,"o":"m 108 1028 l 260 1028 l 260 603 l 267 603 q 338 700 290 661 q 469 739 386 739 q 642 666 581 739 q 704 458 704 593 l 704 0 l 553 0 l 553 440 q 417 608 553 608 q 359 601 388 608 q 308 578 331 593 q 273 539 286 563 q 260 485 260 515 l 260 0 l 108 0 l 108 1028 z "},"i":{"ha":368,"x_min":94,"x_max":274,"o":"m 185 851 q 116 874 138 851 q 94 931 94 896 l 94 954 q 116 1011 94 989 q 185 1033 138 1033 q 253 1011 232 1033 q 274 954 274 989 l 274 931 q 253 874 274 896 q 185 851 232 851 m 108 722 l 260 722 l 260 0 l 108 0 l 108 722 z "},"j":{"ha":368,"x_min":-4,"x_max":274,"o":"m 108 722 l 260 722 l 260 -97 q 217 -229 260 -181 q 83 -278 175 -278 l -4 -278 l -4 -154 l 108 -154 l 108 722 m 185 851 q 116 874 138 851 q 94 931 94 896 l 94 954 q 116 1011 94 989 q 185 1033 138 1033 q 253 1011 232 1033 q 274 954 274 989 l 274 931 q 253 874 274 896 q 185 851 232 851 z "},"k":{"ha":760,"x_min":108,"x_max":747,"o":"m 108 1028 l 260 1028 l 260 397 l 267 397 l 367 526 l 540 722 l 717 722 l 464 443 l 747 0 l 567 0 l 360 344 l 260 236 l 260 0 l 108 0 l 108 1028 z "},"l":{"ha":396,"x_min":108,"x_max":360,"o":"m 263 0 q 147 40 185 0 q 108 150 108 79 l 108 1028 l 260 1028 l 260 124 l 360 124 l 360 0 l 263 0 z "},"m":{"ha":1225,"x_min":108,"x_max":1124,"o":"m 108 0 l 108 722 l 260 722 l 260 603 l 267 603 q 294 656 278 631 q 333 699 310 681 q 387 728 356 718 q 460 739 418 739 q 590 703 533 739 q 674 592 647 667 l 678 592 q 753 696 697 653 q 896 739 808 739 q 1064 666 1004 739 q 1124 458 1124 593 l 1124 0 l 972 0 l 972 440 q 940 566 972 524 q 839 608 908 608 q 783 601 810 608 q 737 578 757 593 q 704 539 717 563 q 692 485 692 515 l 692 0 l 540 0 l 540 440 q 408 608 540 608 q 353 601 381 608 q 306 578 326 593 q 272 539 285 563 q 260 485 260 515 l 260 0 l 108 0 z "},"n":{"ha":806,"x_min":108,"x_max":704,"o":"m 108 0 l 108 722 l 260 722 l 260 603 l 267 603 q 338 700 290 661 q 469 739 386 739 q 642 666 581 739 q 704 458 704 593 l 704 0 l 553 0 l 553 439 q 417 608 553 608 q 359 601 388 608 q 308 578 331 593 q 273 539 286 563 q 260 483 260 515 l 260 0 l 108 0 z "},"o":{"ha":783,"x_min":60,"x_max":724,"o":"m 392 -17 q 255 10 317 -17 q 150 85 193 36 q 83 205 107 135 q 60 361 60 275 q 83 517 60 447 q 150 637 107 588 q 255 713 193 686 q 392 739 317 739 q 528 713 467 739 q 633 637 590 686 q 700 517 676 588 q 724 361 724 447 q 700 205 724 275 q 633 85 676 135 q 528 10 590 36 q 392 -17 467 -17 m 392 108 q 517 156 469 108 q 564 300 564 204 l 564 422 q 517 566 564 518 q 392 614 469 614 q 267 566 314 614 q 219 422 219 518 l 219 300 q 267 156 219 204 q 392 108 314 108 z "},"p":{"ha":822,"x_min":108,"x_max":757,"o":"m 108 722 l 260 722 l 260 603 l 267 603 q 344 703 290 668 q 469 739 397 739 q 682 640 607 739 q 757 361 757 540 q 682 83 757 182 q 469 -17 607 -17 q 344 19 397 -17 q 267 119 290 56 l 260 119 l 260 -278 l 108 -278 l 108 722 m 424 114 q 550 165 503 114 q 597 299 597 215 l 597 424 q 550 558 597 507 q 424 608 503 608 q 307 574 354 608 q 260 485 260 540 l 260 238 q 307 148 260 182 q 424 114 354 114 z "},"q":{"ha":822,"x_min":65,"x_max":714,"o":"m 563 119 l 556 119 q 478 19 532 56 q 353 -17 425 -17 q 140 83 215 -17 q 65 361 65 182 q 140 640 65 540 q 353 739 215 739 q 478 703 425 739 q 556 603 532 668 l 563 603 l 563 722 l 714 722 l 714 -278 l 563 -278 l 563 119 m 399 114 q 515 148 468 114 q 563 238 563 182 l 563 485 q 515 574 563 540 q 399 608 468 608 q 272 558 319 608 q 225 424 225 507 l 225 299 q 272 165 225 215 q 399 114 319 114 z "},"r":{"ha":532,"x_min":108,"x_max":506,"o":"m 108 0 l 108 722 l 260 722 l 260 583 l 267 583 q 331 681 282 639 q 465 722 379 722 l 506 722 l 506 576 l 446 576 q 308 547 356 576 q 260 461 260 518 l 260 0 l 108 0 z "},"s":{"ha":686,"x_min":44,"x_max":624,"o":"m 338 -17 q 165 19 235 -17 q 44 119 96 56 l 142 208 q 231 133 182 160 q 346 106 281 106 q 445 131 413 106 q 478 203 478 157 q 455 262 478 238 q 375 293 432 286 l 308 301 q 134 366 197 315 q 71 517 71 417 q 90 610 71 569 q 145 680 110 651 q 230 724 181 708 q 339 739 279 739 q 498 708 436 739 q 608 624 560 678 l 515 535 q 442 592 488 568 q 339 617 397 617 q 247 592 276 617 q 217 526 217 567 q 243 464 217 485 q 328 433 269 443 l 394 425 q 569 355 514 407 q 624 215 624 303 q 603 120 624 163 q 546 47 583 78 q 456 0 508 17 q 338 -17 403 -17 z "},"t":{"ha":507,"x_min":36,"x_max":451,"o":"m 308 0 q 189 41 229 0 q 149 157 149 82 l 149 599 l 36 599 l 36 722 l 97 722 q 149 739 135 722 q 164 793 164 756 l 164 919 l 300 919 l 300 722 l 451 722 l 451 599 l 300 599 l 300 124 l 440 124 l 440 0 l 308 0 z "},"u":{"ha":806,"x_min":101,"x_max":697,"o":"m 546 119 l 540 119 q 515 68 531 93 q 474 24 499 43 q 416 -6 450 6 q 338 -17 382 -17 q 163 56 225 -17 q 101 263 101 128 l 101 722 l 253 722 l 253 282 q 392 114 253 114 q 449 122 421 114 q 498 144 476 129 q 533 183 519 160 q 546 239 546 207 l 546 722 l 697 722 l 697 0 l 546 0 l 546 119 z "},"v":{"ha":711,"x_min":19,"x_max":692,"o":"m 265 0 l 19 722 l 169 722 l 279 393 l 353 140 l 361 140 l 435 393 l 547 722 l 692 722 l 443 0 l 265 0 z "},"w":{"ha":1110,"x_min":36,"x_max":1074,"o":"m 36 722 l 183 722 l 257 419 l 322 146 l 326 146 l 401 419 l 489 722 l 625 722 l 714 419 l 790 146 l 794 146 l 858 419 l 933 722 l 1074 722 l 879 0 l 708 0 l 614 329 l 556 532 l 553 532 l 496 329 l 400 0 l 233 0 l 36 722 z "},"x":{"ha":736,"x_min":28,"x_max":708,"o":"m 28 0 l 282 365 l 35 722 l 210 722 l 372 471 l 376 471 l 543 722 l 704 722 l 457 367 l 708 0 l 533 0 l 367 263 l 363 263 l 189 0 l 28 0 z "},"y":{"ha":714,"x_min":17,"x_max":697,"o":"m 551 722 l 697 722 l 393 -143 q 365 -205 381 -179 q 327 -247 349 -231 q 275 -270 306 -262 q 203 -278 244 -278 l 115 -278 l 115 -154 l 238 -154 l 279 -32 l 17 722 l 168 722 l 313 297 l 354 140 l 361 140 l 407 297 l 551 722 z "},"z":{"ha":676,"x_min":50,"x_max":626,"o":"m 50 0 l 50 122 l 438 599 l 63 599 l 63 722 l 617 722 l 617 606 l 224 124 l 626 124 l 626 0 l 50 0 z "},"A":{"ha":919,"x_min":31,"x_max":889,"o":"m 725 0 l 638 263 l 275 263 l 190 0 l 31 0 l 361 969 l 558 969 l 889 0 l 725 0 m 460 825 l 453 825 l 313 397 l 599 397 l 460 825 z "},"B":{"ha":915,"x_min":119,"x_max":842,"o":"m 119 969 l 549 969 q 738 901 669 969 q 807 719 807 833 q 792 627 807 665 q 753 565 776 589 q 699 528 729 540 q 639 514 668 517 l 639 506 q 703 492 668 504 q 769 452 739 479 q 821 383 800 425 q 842 279 842 340 q 823 169 842 221 q 771 81 804 118 q 692 22 738 43 q 592 0 646 0 l 119 0 l 119 969 m 276 135 l 546 135 q 642 167 607 135 q 676 258 676 199 l 676 306 q 642 397 676 365 q 546 429 607 429 l 276 429 l 276 135 m 276 560 l 519 560 q 610 590 578 560 q 642 675 642 619 l 642 719 q 610 805 642 775 q 519 835 578 835 l 276 835 l 276 560 z "},"C":{"ha":881,"x_min":76,"x_max":833,"o":"m 483 -17 q 185 112 293 -17 q 76 485 76 240 q 104 700 76 607 q 185 857 132 793 q 313 953 238 921 q 483 986 389 986 q 695 931 610 986 q 829 767 781 875 l 697 694 q 620 805 672 764 q 483 846 568 846 q 307 769 371 846 q 243 558 243 693 l 243 411 q 307 200 243 276 q 483 124 371 124 q 626 169 571 124 q 707 285 681 214 l 833 208 q 697 43 785 103 q 483 -17 610 -17 z "},"D":{"ha":949,"x_min":119,"x_max":872,"o":"m 119 969 l 463 969 q 631 939 556 969 q 760 848 707 908 q 843 697 814 788 q 872 485 872 606 q 843 273 872 364 q 760 122 814 182 q 631 31 707 61 q 463 0 556 0 l 119 0 l 119 969 m 463 139 q 638 207 571 139 q 704 407 704 275 l 704 563 q 638 763 704 694 q 463 831 571 831 l 276 831 l 276 139 l 463 139 z "},"E":{"ha":824,"x_min":119,"x_max":740,"o":"m 119 0 l 119 969 l 740 969 l 740 831 l 276 831 l 276 561 l 697 561 l 697 422 l 276 422 l 276 139 l 740 139 l 740 0 l 119 0 z "},"F":{"ha":792,"x_min":119,"x_max":725,"o":"m 119 0 l 119 969 l 725 969 l 725 831 l 276 831 l 276 561 l 675 561 l 675 422 l 276 422 l 276 0 l 119 0 z "},"G":{"ha":979,"x_min":76,"x_max":881,"o":"m 743 147 l 738 147 q 655 30 722 76 q 476 -17 588 -17 q 317 16 390 -17 q 190 112 243 49 q 106 269 136 175 q 76 485 76 363 q 107 699 76 606 q 193 857 138 793 q 326 953 249 921 q 500 986 404 986 q 721 928 631 986 q 861 768 811 871 l 733 693 q 647 803 706 761 q 500 846 589 846 q 315 772 385 846 q 244 564 244 699 l 244 406 q 315 197 244 271 q 500 124 385 124 q 588 135 546 124 q 660 170 629 147 q 710 227 692 193 q 729 307 729 261 l 729 382 l 529 382 l 529 517 l 881 517 l 881 0 l 743 0 l 743 147 z "},"H":{"ha":992,"x_min":119,"x_max":872,"o":"m 715 422 l 276 422 l 276 0 l 119 0 l 119 969 l 276 969 l 276 561 l 715 561 l 715 969 l 872 969 l 872 0 l 715 0 l 715 422 z "},"I":{"ha":578,"x_min":78,"x_max":500,"o":"m 78 0 l 78 128 l 210 128 l 210 842 l 78 842 l 78 969 l 500 969 l 500 842 l 367 842 l 367 128 l 500 128 l 500 0 l 78 0 z "},"J":{"ha":738,"x_min":38,"x_max":624,"o":"m 624 969 l 624 264 q 603 149 624 200 q 544 60 582 97 q 451 3 506 24 q 329 -17 396 -17 q 130 51 203 -17 q 38 226 57 118 l 182 258 q 230 160 194 196 q 329 124 265 124 q 429 163 392 124 q 467 281 467 201 l 467 839 l 150 839 l 150 969 l 624 969 z "},"K":{"ha":917,"x_min":119,"x_max":893,"o":"m 410 453 l 276 300 l 276 0 l 119 0 l 119 969 l 276 969 l 276 478 l 282 478 l 421 654 l 682 969 l 865 969 l 519 561 l 893 0 l 704 0 l 410 453 z "},"L":{"ha":713,"x_min":119,"x_max":671,"o":"m 119 0 l 119 969 l 276 969 l 276 139 l 671 139 l 671 0 l 119 0 z "},"M":{"ha":1131,"x_min":119,"x_max":1011,"o":"m 861 742 l 854 742 l 778 585 l 565 197 l 353 585 l 276 742 l 269 742 l 269 0 l 119 0 l 119 969 l 306 969 l 565 476 l 574 476 l 833 969 l 1011 969 l 1011 0 l 861 0 l 861 742 z "},"N":{"ha":992,"x_min":119,"x_max":872,"o":"m 381 536 l 274 742 l 269 742 l 269 0 l 119 0 l 119 969 l 294 969 l 611 433 l 718 228 l 722 228 l 722 969 l 872 969 l 872 0 l 697 0 l 381 536 z "},"O":{"ha":989,"x_min":76,"x_max":913,"o":"m 494 -17 q 323 16 400 -17 q 191 112 246 49 q 106 269 136 175 q 76 485 76 363 q 106 701 76 607 q 191 858 136 794 q 323 953 246 921 q 494 986 400 986 q 666 953 589 986 q 798 858 743 921 q 883 701 853 794 q 913 485 913 607 q 883 269 913 363 q 798 112 853 175 q 666 16 743 49 q 494 -17 589 -17 m 494 124 q 597 143 550 124 q 676 199 643 163 q 726 289 708 236 q 744 408 744 342 l 744 561 q 726 681 744 628 q 676 770 708 733 q 597 826 643 807 q 494 846 550 846 q 392 826 438 846 q 313 770 346 807 q 263 681 281 733 q 244 561 244 628 l 244 408 q 263 289 244 342 q 313 199 281 236 q 392 143 346 163 q 494 124 438 124 z "},"P":{"ha":871,"x_min":119,"x_max":818,"o":"m 119 0 l 119 969 l 536 969 q 744 890 671 969 q 818 678 818 811 q 744 465 818 544 q 536 386 671 386 l 276 386 l 276 0 l 119 0 m 276 524 l 526 524 q 619 555 586 524 q 653 644 653 586 l 653 711 q 619 801 653 769 q 526 832 586 832 l 276 832 l 276 524 z "},"Q":{"ha":989,"x_min":76,"x_max":913,"o":"m 726 -240 l 589 -240 q 469 -199 507 -240 q 431 -86 431 -157 l 431 -12 q 283 35 349 -3 q 172 135 218 72 q 101 285 126 197 q 76 485 76 374 q 106 701 76 607 q 191 858 136 794 q 323 953 246 921 q 494 986 400 986 q 666 953 589 986 q 798 858 743 921 q 883 701 853 794 q 913 485 913 607 q 822 142 913 268 q 578 -10 732 17 l 578 -110 l 726 -110 l 726 -240 m 494 124 q 597 143 550 124 q 676 199 643 163 q 726 289 708 236 q 744 408 744 342 l 744 561 q 726 681 744 628 q 676 770 708 733 q 597 826 643 807 q 494 846 550 846 q 392 826 438 846 q 313 770 346 807 q 263 681 281 733 q 244 561 244 628 l 244 408 q 263 289 244 342 q 313 199 281 236 q 392 143 346 163 q 494 124 438 124 z "},"R":{"ha":910,"x_min":119,"x_max":839,"o":"m 276 0 l 119 0 l 119 969 l 538 969 q 743 891 668 969 q 818 678 818 813 q 770 505 818 574 q 629 408 722 436 l 839 0 l 664 0 l 469 392 l 276 392 l 276 0 m 526 524 q 619 555 586 524 q 653 644 653 586 l 653 711 q 619 801 653 769 q 526 832 586 832 l 276 832 l 276 524 l 526 524 z "},"S":{"ha":831,"x_min":56,"x_max":761,"o":"m 410 -17 q 202 28 288 -17 q 56 147 117 72 l 164 249 q 277 154 215 186 q 418 122 339 122 q 558 164 511 122 q 606 276 606 206 q 572 367 606 333 q 454 417 539 400 l 368 432 q 156 525 226 458 q 85 708 85 592 q 109 824 85 772 q 177 912 133 876 q 283 967 221 947 q 424 986 346 986 q 614 948 533 986 q 751 838 694 910 l 642 740 q 550 818 604 789 q 415 847 496 847 q 286 814 332 847 q 240 717 240 781 q 278 626 240 656 q 394 581 315 596 l 481 563 q 694 468 626 535 q 761 285 761 401 q 738 161 761 217 q 669 66 714 106 q 558 5 624 26 q 410 -17 493 -17 z "},"T":{"ha":801,"x_min":33,"x_max":768,"o":"m 479 831 l 479 0 l 322 0 l 322 831 l 33 831 l 33 969 l 768 969 l 768 831 l 479 831 z "},"U":{"ha":953,"x_min":114,"x_max":839,"o":"m 268 969 l 268 372 q 315 186 268 249 q 476 124 363 124 q 638 186 590 124 q 685 372 685 249 l 685 969 l 839 969 l 839 397 q 819 213 839 290 q 757 84 800 135 q 645 8 714 33 q 476 -17 576 -17 q 308 8 376 -17 q 196 84 239 33 q 133 213 153 135 q 114 397 114 290 l 114 969 l 268 969 z "},"V":{"ha":872,"x_min":25,"x_max":847,"o":"m 343 0 l 25 969 l 188 969 l 342 490 l 435 153 l 440 153 l 535 490 l 689 969 l 847 969 l 525 0 l 343 0 z "},"W":{"ha":1286,"x_min":33,"x_max":1253,"o":"m 263 0 l 33 969 l 193 969 l 292 503 l 360 181 l 364 181 l 442 503 l 557 969 l 732 969 l 846 503 l 922 182 l 926 182 l 997 503 l 1099 969 l 1253 969 l 1014 0 l 838 0 l 714 501 l 642 796 l 639 796 l 565 501 l 439 0 l 263 0 z "},"X":{"ha":888,"x_min":29,"x_max":858,"o":"m 858 0 l 674 0 l 439 386 l 435 386 l 203 0 l 29 0 l 343 496 l 40 969 l 225 969 l 446 608 l 449 608 l 672 969 l 846 969 l 540 497 l 858 0 z "},"Y":{"ha":857,"x_min":15,"x_max":842,"o":"m 349 0 l 349 382 l 15 969 l 194 969 l 431 538 l 435 538 l 669 969 l 842 969 l 506 385 l 506 0 l 349 0 z "},"Z":{"ha":821,"x_min":51,"x_max":769,"o":"m 769 0 l 51 0 l 51 140 l 578 831 l 79 831 l 79 969 l 754 969 l 754 829 l 228 139 l 769 139 l 769 0 z "},"&":{"ha":982,"x_min":88,"x_max":958,"o":"m 679 99 q 635 60 661 81 q 576 23 610 40 q 498 -6 542 6 q 399 -17 454 -17 q 265 4 324 -17 q 167 61 207 25 q 108 147 128 97 q 88 253 88 196 q 103 345 88 304 q 147 419 119 386 q 209 477 174 451 q 285 525 244 503 q 207 631 239 574 q 175 753 175 688 q 194 844 175 801 q 247 919 213 888 q 331 968 282 950 q 440 986 381 986 q 543 971 496 986 q 625 928 590 956 q 678 860 660 900 q 697 772 697 821 q 681 687 697 725 q 635 617 664 649 q 567 559 606 586 q 486 507 529 532 l 675 303 q 706 408 694 353 q 719 521 717 464 l 926 521 l 926 393 l 832 393 q 768 206 811 288 l 958 0 l 769 0 l 679 99 m 440 865 q 356 835 390 865 q 321 757 321 806 l 321 746 q 344 674 321 710 q 410 590 367 638 q 510 662 468 622 q 551 753 551 701 l 551 764 q 521 839 551 813 q 440 865 490 865 m 417 113 q 519 132 475 113 q 597 186 564 151 l 361 440 q 276 375 308 411 q 243 276 243 339 l 243 258 q 289 152 243 192 q 417 113 335 113 z "},"@":{"ha":1244,"x_min":88,"x_max":1160,"o":"m 939 -168 l 629 -168 q 404 -127 504 -168 q 234 -11 304 -86 q 126 169 164 64 q 88 401 88 274 q 126 636 88 529 q 237 820 165 743 q 410 940 308 897 q 638 983 513 983 q 840 951 744 983 q 1006 852 935 918 q 1118 688 1076 786 q 1160 456 1160 589 q 1144 315 1160 379 q 1098 203 1129 250 q 1019 129 1067 156 q 910 103 972 103 q 800 137 839 103 q 756 226 761 171 l 749 226 q 687 136 728 169 q 582 103 646 103 q 493 122 535 103 q 420 177 451 140 q 371 270 389 214 q 353 401 353 326 q 371 533 353 476 q 420 626 389 589 q 493 681 451 663 q 582 700 535 700 q 682 669 646 700 q 733 593 718 638 l 740 593 l 740 688 l 861 688 l 861 285 q 878 221 861 239 q 931 203 896 203 q 1020 263 989 203 q 1051 436 1051 324 l 1051 490 q 1020 653 1051 581 q 933 777 989 726 q 801 856 878 828 q 636 883 725 883 q 456 849 538 883 q 317 756 375 815 q 228 616 260 697 q 196 439 196 535 l 196 369 q 227 192 196 272 q 315 55 258 113 q 452 -35 372 -3 q 631 -67 532 -67 l 939 -67 l 939 -168 m 618 210 q 708 242 676 210 q 740 324 740 274 l 740 490 q 708 565 740 535 q 618 594 676 594 q 521 556 554 594 q 488 456 488 518 l 488 349 q 521 248 488 286 q 618 210 554 210 z "},"-":{"ha":557,"x_min":86,"x_max":471,"o":"m 86 346 l 86 500 l 471 500 l 471 346 l 86 346 z "},"­":{"ha":557,"x_min":86,"x_max":471,"o":"m 86 346 l 86 500 l 471 500 l 471 346 l 86 346 z "},"–":{"ha":817,"x_min":50,"x_max":767,"o":"m 50 357 l 50 488 l 767 488 l 767 357 l 50 357 z "},"—":{"ha":1083,"x_min":50,"x_max":1033,"o":"m 50 357 l 50 488 l 1033 488 l 1033 357 l 50 357 z "},"_":{"ha":779,"x_min":42,"x_max":738,"o":"m 42 -244 l 42 -114 l 738 -114 l 738 -244 l 42 -244 z "},".":{"ha":403,"x_min":100,"x_max":303,"o":"m 201 -17 q 125 10 150 -17 q 100 78 100 38 l 100 99 q 125 166 100 139 q 201 193 150 193 q 278 166 253 193 q 303 99 303 139 l 303 78 q 278 10 303 38 q 201 -17 253 -17 z "},"…":{"ha":1175,"x_min":100,"x_max":1075,"o":"m 201 -17 q 125 10 150 -17 q 100 78 100 38 l 100 99 q 125 166 100 139 q 201 193 150 193 q 278 166 253 193 q 303 99 303 139 l 303 78 q 278 10 303 38 q 201 -17 253 -17 m 586 -17 q 510 10 535 -17 q 485 78 485 38 l 485 99 q 510 166 485 139 q 586 193 535 193 q 663 166 638 193 q 688 99 688 139 l 688 78 q 663 10 688 38 q 586 -17 638 -17 m 974 -17 q 897 10 922 -17 q 872 78 872 38 l 872 99 q 897 166 872 139 q 974 193 922 193 q 1050 166 1025 193 q 1075 99 1075 139 l 1075 78 q 1050 10 1075 38 q 974 -17 1025 -17 z "},":":{"ha":431,"x_min":114,"x_max":317,"o":"m 215 -17 q 139 10 164 -17 q 114 78 114 38 l 114 99 q 139 166 114 139 q 215 193 164 193 q 292 166 267 193 q 317 99 317 139 l 317 78 q 292 10 317 38 q 215 -17 267 -17 m 215 522 q 139 549 164 522 q 114 617 114 576 l 114 638 q 139 705 114 678 q 215 732 164 732 q 292 705 267 732 q 317 638 317 678 l 317 617 q 292 549 317 576 q 215 522 267 522 z "},",":{"ha":401,"x_min":54,"x_max":303,"o":"m 201 193 q 278 167 253 193 q 303 99 303 140 l 303 76 q 266 -66 303 8 q 167 -192 229 -140 l 54 -192 q 128 -106 99 -147 q 172 -12 157 -64 q 118 19 136 -6 q 100 76 100 43 l 100 99 q 125 167 100 140 q 201 193 150 193 z "},";":{"ha":429,"x_min":67,"x_max":317,"o":"m 214 193 q 290 167 265 193 q 315 99 315 140 l 315 76 q 278 -66 315 8 q 179 -192 242 -140 l 67 -192 q 140 -106 111 -147 q 185 -12 169 -64 q 131 19 149 -6 q 113 76 113 43 l 113 99 q 138 167 113 140 q 214 193 163 193 m 215 522 q 139 549 164 522 q 114 617 114 576 l 114 638 q 139 705 114 678 q 215 732 164 732 q 292 705 267 732 q 317 638 317 678 l 317 617 q 292 549 317 576 q 215 522 267 522 z "},"'":{"ha":351,"x_min":108,"x_max":243,"o":"m 108 611 l 108 1028 l 243 1028 l 243 611 l 108 611 z "},"\"":{"ha":626,"x_min":108,"x_max":518,"o":"m 108 611 l 108 1028 l 243 1028 l 243 611 l 108 611 m 383 611 l 383 1028 l 518 1028 l 518 611 l 383 611 z "},"‘":{"ha":394,"x_min":93,"x_max":338,"o":"m 193 651 q 117 676 142 651 q 93 740 93 701 l 93 764 q 103 833 93 797 q 132 904 114 869 q 175 971 150 939 q 231 1028 200 1003 l 338 1028 q 266 944 294 985 q 224 853 238 903 q 276 822 260 846 q 293 765 293 797 l 293 740 q 269 676 293 701 q 193 651 244 651 z "},"’":{"ha":394,"x_min":57,"x_max":301,"o":"m 201 1042 q 278 1017 254 1042 q 301 951 301 992 l 301 928 q 292 859 301 894 q 264 789 282 824 q 221 722 246 754 q 165 665 196 690 l 57 665 q 129 750 101 708 q 172 840 157 792 q 119 871 136 847 q 101 926 101 894 l 101 951 q 125 1017 101 992 q 201 1042 149 1042 z "},"“":{"ha":696,"x_min":93,"x_max":639,"o":"m 193 651 q 117 676 142 651 q 93 740 93 701 l 93 764 q 103 833 93 797 q 132 904 114 869 q 175 971 150 939 q 231 1028 200 1003 l 338 1028 q 266 944 294 985 q 224 853 238 903 q 276 822 260 846 q 293 765 293 797 l 293 740 q 269 676 293 701 q 193 651 244 651 m 494 651 q 419 676 443 651 q 394 740 394 701 l 394 764 q 405 833 394 797 q 433 904 415 869 q 476 971 451 939 q 532 1028 501 1003 l 639 1028 q 567 944 596 985 q 525 853 539 903 q 578 822 561 846 q 594 765 594 797 l 594 740 q 570 676 594 701 q 494 651 546 651 z "},"”":{"ha":694,"x_min":57,"x_max":601,"o":"m 201 1042 q 278 1017 254 1042 q 301 951 301 992 l 301 928 q 292 859 301 894 q 264 789 282 824 q 221 722 246 754 q 165 665 196 690 l 57 665 q 129 750 101 708 q 172 840 157 792 q 119 871 136 847 q 101 926 101 894 l 101 951 q 125 1017 101 992 q 201 1042 149 1042 m 501 1042 q 578 1017 554 1042 q 601 951 601 992 l 601 928 q 592 859 601 894 q 564 789 582 824 q 521 722 546 754 q 465 665 496 690 l 357 665 q 429 750 401 708 q 472 840 457 792 q 419 871 436 847 q 401 926 401 894 l 401 951 q 425 1017 401 992 q 501 1042 449 1042 z "},"‚":{"ha":397,"x_min":50,"x_max":294,"o":"m 194 215 q 271 190 247 215 q 294 125 294 165 l 294 101 q 285 33 294 68 q 257 -37 275 -3 q 214 -104 239 -72 q 158 -161 189 -136 l 50 -161 q 122 -76 94 -118 q 165 14 150 -35 q 112 44 129 21 q 94 100 94 68 l 94 125 q 118 190 94 165 q 194 215 142 215 z "},"„":{"ha":697,"x_min":50,"x_max":594,"o":"m 194 215 q 271 190 247 215 q 294 125 294 165 l 294 101 q 285 33 294 68 q 257 -37 275 -3 q 214 -104 239 -72 q 158 -161 189 -136 l 50 -161 q 122 -76 94 -118 q 165 14 150 -35 q 112 44 129 21 q 94 100 94 68 l 94 125 q 118 190 94 165 q 194 215 142 215 m 494 215 q 571 190 547 215 q 594 125 594 165 l 594 101 q 585 33 594 68 q 557 -37 575 -3 q 514 -104 539 -72 q 458 -161 489 -136 l 350 -161 q 422 -76 394 -118 q 465 14 450 -35 q 412 44 429 21 q 394 100 394 68 l 394 125 q 418 190 394 165 q 494 215 442 215 z "},"‹":{"ha":429,"x_min":51,"x_max":358,"o":"m 314 93 l 51 319 l 51 456 l 314 682 l 358 585 l 179 388 l 358 190 l 314 93 z "},"›":{"ha":429,"x_min":71,"x_max":378,"o":"m 71 190 l 250 388 l 71 585 l 115 682 l 378 456 l 378 319 l 115 93 l 71 190 z "},"«":{"ha":739,"x_min":51,"x_max":668,"o":"m 314 93 l 51 319 l 51 456 l 314 682 l 358 585 l 179 388 l 358 190 l 314 93 m 624 93 l 361 319 l 361 456 l 624 682 l 668 585 l 489 388 l 668 190 l 624 93 z "},"»":{"ha":739,"x_min":71,"x_max":688,"o":"m 71 190 l 250 388 l 71 585 l 115 682 l 378 456 l 378 319 l 115 93 l 71 190 m 381 190 l 560 388 l 381 585 l 425 682 l 688 456 l 688 319 l 425 93 l 381 190 z "},"¡":{"ha":414,"x_min":106,"x_max":308,"o":"m 126 -247 l 126 29 l 172 444 l 242 444 l 290 29 l 290 -247 l 126 -247 m 207 532 q 130 558 154 532 q 106 624 106 583 l 106 647 q 130 713 106 688 q 207 739 154 739 q 284 713 260 739 q 308 647 308 688 l 308 624 q 284 558 308 583 q 207 532 260 532 z "},"!":{"ha":414,"x_min":106,"x_max":308,"o":"m 172 278 l 124 693 l 124 969 l 288 969 l 288 693 l 242 278 l 172 278 m 207 -17 q 130 9 154 -17 q 106 75 106 35 l 106 99 q 130 165 106 139 q 207 190 154 190 q 284 165 260 190 q 308 99 308 139 l 308 75 q 284 9 308 35 q 207 -17 260 -17 z "},"¿":{"ha":665,"x_min":46,"x_max":650,"o":"m 344 -264 q 221 -244 276 -264 q 126 -190 165 -225 q 67 -103 88 -154 q 46 8 46 -53 q 67 120 46 71 q 124 204 89 169 q 204 260 160 239 q 296 290 249 282 l 296 418 l 440 418 l 440 197 q 267 149 328 192 q 207 24 207 107 l 207 4 q 246 -95 207 -60 q 350 -131 285 -131 q 461 -90 419 -131 q 518 13 503 -50 l 650 -40 q 613 -124 638 -83 q 551 -195 589 -164 q 463 -245 514 -226 q 344 -264 411 -264 m 367 532 q 290 558 314 532 q 265 624 265 583 l 265 647 q 290 713 265 688 q 367 739 314 739 q 444 713 419 739 q 468 647 468 688 l 468 624 q 444 558 468 583 q 367 532 419 532 z "},"?":{"ha":676,"x_min":26,"x_max":631,"o":"m 236 304 l 236 525 q 409 573 349 531 q 469 699 469 615 l 469 718 q 431 817 469 782 q 326 853 392 853 q 215 813 257 853 q 158 710 174 772 l 26 763 q 63 846 39 806 q 125 917 88 886 q 214 967 163 949 q 332 986 265 986 q 456 967 400 986 q 550 912 511 947 q 610 826 589 876 q 631 714 631 775 q 609 602 631 651 q 552 518 588 553 q 472 462 517 483 q 381 432 428 440 l 381 304 l 236 304 m 310 -17 q 233 9 257 -17 q 208 75 208 35 l 208 99 q 233 165 208 139 q 310 190 257 190 q 387 165 363 190 q 411 99 411 139 l 411 75 q 387 9 411 35 q 310 -17 363 -17 z "},"(":{"ha":467,"x_min":88,"x_max":478,"o":"m 88 432 q 106 626 88 533 q 158 800 125 719 q 237 946 192 881 q 335 1056 282 1011 l 478 1056 q 375 938 421 1003 q 297 799 329 872 q 248 646 265 725 q 231 488 231 567 l 231 376 q 248 218 231 297 q 297 65 265 139 q 375 -74 329 -8 q 478 -192 421 -140 l 335 -192 q 237 -82 282 -147 q 158 64 192 -17 q 106 238 125 144 q 88 432 88 331 z "},")":{"ha":467,"x_min":-11,"x_max":379,"o":"m 379 432 q 360 238 379 331 q 307 64 340 144 q 228 -82 274 -17 q 132 -192 183 -147 l -11 -192 q 92 -74 46 -140 q 169 65 138 -8 q 219 218 201 139 q 236 376 236 297 l 236 488 q 219 646 236 567 q 169 799 201 725 q 92 938 138 872 q -11 1056 46 1003 l 132 1056 q 228 946 183 1011 q 307 800 274 881 q 360 626 340 719 q 379 432 379 533 z "},"[":{"ha":451,"x_min":119,"x_max":374,"o":"m 119 -192 l 119 1056 l 374 1056 l 374 943 l 256 943 l 256 -79 l 374 -79 l 374 -192 l 119 -192 z "},"]":{"ha":451,"x_min":78,"x_max":332,"o":"m 332 1056 l 332 -192 l 78 -192 l 78 -79 l 196 -79 l 196 943 l 78 943 l 78 1056 l 332 1056 z "},"{":{"ha":492,"x_min":28,"x_max":414,"o":"m 283 -192 q 195 -158 228 -192 q 163 -67 163 -124 l 163 244 q 124 337 163 306 q 28 368 86 368 l 28 497 q 124 528 86 497 q 163 619 163 560 l 163 931 q 195 1022 163 988 q 283 1056 228 1056 l 414 1056 l 414 943 l 299 943 l 299 617 q 288 554 299 583 q 259 501 278 525 q 215 460 240 476 q 161 439 190 444 l 161 425 q 215 403 190 419 q 259 363 240 388 q 288 310 278 339 q 299 247 299 281 l 299 -79 l 414 -79 l 414 -192 l 283 -192 z "},"}":{"ha":494,"x_min":78,"x_max":467,"o":"m 208 1056 q 298 1022 264 1056 q 332 931 332 988 l 332 619 q 370 528 332 560 q 467 497 408 497 l 467 368 q 370 337 408 368 q 332 244 332 306 l 332 -67 q 298 -158 332 -124 q 208 -192 264 -192 l 78 -192 l 78 -79 l 196 -79 l 196 247 q 206 310 196 281 q 235 363 217 339 q 278 403 253 388 q 333 425 303 419 l 333 439 q 278 460 303 444 q 235 501 253 476 q 206 554 217 525 q 196 617 196 583 l 196 943 l 78 943 l 78 1056 l 208 1056 z "},"/":{"ha":579,"x_min":10,"x_max":525,"o":"m 10 -210 l 394 1028 l 525 1028 l 140 -210 l 10 -210 z "},"\\":{"ha":579,"x_min":54,"x_max":569,"o":"m 439 -210 l 54 1028 l 185 1028 l 569 -210 l 439 -210 z "},"⁄":{"ha":210,"x_min":-307,"x_max":517,"o":"m -307 0 l 394 969 l 517 969 l -183 0 l -307 0 z "},"%":{"ha":1315,"x_min":82,"x_max":1233,"o":"m 251 0 l 924 969 l 1064 969 l 392 0 l 251 0 m 314 436 q 142 506 201 436 q 82 711 82 576 q 142 916 82 846 q 314 986 201 986 q 486 916 426 986 q 546 711 546 846 q 486 506 546 576 q 314 436 426 436 m 314 529 q 413 672 413 529 l 413 750 q 314 893 413 893 q 215 750 215 893 l 215 672 q 314 529 215 529 m 1001 -17 q 829 53 889 -17 q 769 258 769 124 q 829 463 769 393 q 1001 533 889 533 q 1174 463 1114 533 q 1233 258 1233 393 q 1174 53 1233 124 q 1001 -17 1114 -17 m 1001 76 q 1100 219 1100 76 l 1100 297 q 1001 440 1100 440 q 903 297 903 440 l 903 219 q 1001 76 903 76 z "},"‰":{"ha":1860,"x_min":82,"x_max":1778,"o":"m 251 0 l 924 969 l 1064 969 l 392 0 l 251 0 m 314 436 q 142 506 201 436 q 82 711 82 576 q 142 916 82 846 q 314 986 201 986 q 486 916 426 986 q 546 711 546 846 q 486 506 546 576 q 314 436 426 436 m 314 529 q 413 672 413 529 l 413 750 q 314 893 413 893 q 215 750 215 893 l 215 672 q 314 529 215 529 m 1001 -17 q 829 53 889 -17 q 769 258 769 124 q 829 463 769 393 q 1001 533 889 533 q 1174 463 1114 533 q 1233 258 1233 393 q 1174 53 1233 124 q 1001 -17 1114 -17 m 1001 76 q 1100 219 1100 76 l 1100 297 q 1001 440 1100 440 q 903 297 903 440 l 903 219 q 1001 76 903 76 m 1546 -17 q 1374 53 1433 -17 q 1314 258 1314 124 q 1374 463 1314 393 q 1546 533 1433 533 q 1718 463 1658 533 q 1778 258 1778 393 q 1718 53 1778 124 q 1546 -17 1658 -17 m 1546 76 q 1644 219 1644 76 l 1644 297 q 1546 440 1644 440 q 1447 297 1447 440 l 1447 219 q 1546 76 1447 76 z "},"|":{"ha":490,"x_min":181,"x_max":310,"o":"m 181 -192 l 181 1056 l 310 1056 l 310 -192 l 181 -192 z "},"¦":{"ha":490,"x_min":181,"x_max":310,"o":"m 181 561 l 181 1056 l 310 1056 l 310 561 l 181 561 m 181 -192 l 181 303 l 310 303 l 310 -192 l 181 -192 z "},"§":{"ha":801,"x_min":89,"x_max":713,"o":"m 667 11 q 646 -85 667 -43 q 587 -158 625 -128 q 496 -203 549 -187 q 379 -219 443 -219 q 247 -199 313 -219 q 129 -132 182 -179 l 208 -35 q 286 -84 243 -67 q 382 -101 329 -101 q 490 -73 450 -101 q 529 6 529 -44 q 495 79 529 53 q 396 125 461 106 l 300 153 q 137 241 185 185 q 89 363 89 297 q 126 476 89 426 q 239 558 164 526 l 239 574 q 163 651 192 606 q 135 760 135 697 q 156 855 135 813 q 214 926 176 897 q 303 971 251 956 q 419 986 356 986 q 553 967 488 986 q 672 899 618 947 l 592 803 q 515 851 557 833 q 417 869 472 869 q 310 842 350 869 q 269 764 269 815 q 303 692 269 718 q 404 646 338 665 l 500 619 q 664 531 615 586 q 713 408 713 475 q 674 294 713 344 q 561 213 636 243 l 561 199 q 638 120 610 167 q 667 11 667 74 m 576 365 q 544 448 576 414 q 436 503 513 482 l 342 529 q 319 535 331 532 q 297 543 308 539 q 243 481 263 515 q 224 406 224 447 q 256 324 224 357 q 364 268 288 290 l 458 243 q 481 236 469 240 l 503 228 q 557 290 538 256 q 576 365 576 324 z "},"¶":{"ha":921,"x_min":60,"x_max":824,"o":"m 339 392 q 230 415 281 392 q 141 477 179 438 q 81 569 103 517 q 60 681 60 621 q 81 792 60 740 q 141 884 103 844 q 230 947 179 924 q 339 969 281 969 l 824 969 l 824 853 l 732 853 l 732 -207 l 608 -207 l 608 853 l 463 853 l 463 -207 l 339 -207 l 339 392 z "},"©":{"ha":1086,"x_min":71,"x_max":1015,"o":"m 543 -15 q 356 19 443 -15 q 206 119 269 54 q 107 276 143 183 q 71 485 71 369 q 107 693 71 600 q 206 851 143 786 q 356 950 269 915 q 543 985 443 985 q 730 950 643 985 q 880 851 817 915 q 979 693 943 786 q 1015 485 1015 600 q 979 276 1015 369 q 880 119 943 183 q 730 19 817 54 q 543 -15 643 -15 m 543 69 q 694 98 625 69 q 812 176 763 126 q 889 293 861 225 q 917 440 917 361 l 917 529 q 889 676 917 608 q 812 794 861 744 q 694 872 763 843 q 543 900 625 900 q 392 872 461 900 q 274 794 324 843 q 197 676 225 744 q 169 529 169 608 l 169 440 q 197 293 169 361 q 274 176 225 225 q 392 98 324 126 q 543 69 461 69 m 554 203 q 367 279 433 203 q 300 485 300 356 q 367 690 300 614 q 554 767 433 767 q 689 729 638 767 q 767 631 740 692 l 663 576 q 622 634 647 613 q 554 656 597 656 q 471 622 500 656 q 442 533 442 588 l 442 435 q 471 347 442 381 q 554 313 500 313 q 626 335 599 313 q 674 394 654 358 l 776 340 q 697 242 750 282 q 554 203 643 203 z "},"®":{"ha":656,"x_min":50,"x_max":606,"o":"m 328 414 q 219 435 269 414 q 131 496 168 457 q 72 587 93 535 q 50 700 50 639 q 72 813 50 761 q 131 904 93 865 q 219 965 168 943 q 328 986 269 986 q 437 965 386 986 q 525 904 488 943 q 584 813 563 865 q 606 700 606 761 q 584 587 606 639 q 525 496 563 535 q 437 435 488 457 q 328 414 386 414 m 328 474 q 413 490 374 474 q 480 534 451 506 q 524 600 508 563 q 540 682 540 638 l 540 718 q 524 799 540 761 q 480 866 508 838 q 413 910 451 894 q 328 926 374 926 q 243 910 282 926 q 176 866 204 894 q 131 799 147 838 q 115 718 115 761 l 115 682 q 131 600 115 638 q 176 534 147 563 q 243 490 204 506 q 328 474 282 474 m 286 553 l 215 553 l 215 843 l 347 843 q 421 817 396 843 q 446 751 446 792 q 431 695 446 717 q 393 664 417 674 l 458 553 l 381 553 l 326 653 l 286 653 l 286 553 m 339 706 q 374 736 374 706 l 374 757 q 339 788 374 788 l 286 788 l 286 706 l 339 706 z "},"™":{"ha":874,"x_min":40,"x_max":778,"o":"m 151 576 l 151 897 l 40 897 l 40 969 l 351 969 l 351 897 l 242 897 l 242 576 l 151 576 m 397 576 l 397 969 l 500 969 l 588 800 l 594 800 l 681 969 l 778 969 l 778 576 l 697 576 l 697 732 l 704 854 l 699 854 l 588 644 l 476 854 l 471 854 l 478 732 l 478 576 l 397 576 z "},"ª":{"ha":583,"x_min":60,"x_max":526,"o":"m 526 486 l 464 486 q 371 567 378 486 l 365 567 q 313 501 350 526 q 214 475 275 475 q 101 513 142 475 q 60 618 60 551 q 114 730 60 693 q 272 767 168 767 l 363 767 l 363 799 q 265 900 363 900 q 189 881 219 900 q 142 832 158 861 l 75 889 q 147 957 97 928 q 275 986 196 986 q 420 940 367 986 q 474 804 474 893 l 474 575 l 526 575 l 526 486 m 272 696 q 169 633 169 696 l 169 617 q 190 570 169 585 q 249 556 211 556 q 328 577 294 556 q 363 639 363 599 l 363 696 l 272 696 z "},"º":{"ha":575,"x_min":57,"x_max":518,"o":"m 288 475 q 118 543 179 475 q 57 731 57 611 q 118 918 57 850 q 288 986 179 986 q 457 918 396 986 q 518 731 518 850 q 457 543 518 611 q 288 475 396 475 m 288 563 q 372 597 343 563 q 400 689 400 631 l 400 772 q 372 865 400 831 q 288 899 343 899 q 203 865 232 899 q 175 772 175 831 l 175 689 q 203 597 175 631 q 288 563 232 563 z "},"°":{"ha":653,"x_min":82,"x_max":571,"o":"m 326 489 q 229 508 274 489 q 152 560 185 526 q 101 639 119 593 q 82 738 82 685 q 101 836 82 790 q 152 915 119 882 q 229 967 185 949 q 326 986 274 986 q 423 967 378 986 q 501 915 468 949 q 552 836 533 882 q 571 738 571 790 q 552 639 571 685 q 501 560 533 593 q 423 508 468 526 q 326 489 378 489 m 326 597 q 420 638 386 597 q 454 738 454 678 q 420 838 454 797 q 326 878 386 878 q 233 838 267 878 q 199 738 199 797 q 233 638 199 678 q 326 597 267 597 z "},"*":{"ha":714,"x_min":47,"x_max":667,"o":"m 226 450 l 121 524 l 268 707 l 47 771 l 88 892 l 300 808 l 290 1038 l 422 1038 l 413 808 l 625 892 l 667 771 l 444 707 l 592 524 l 486 450 l 356 644 l 226 450 z "},"†":{"ha":750,"x_min":56,"x_max":694,"o":"m 310 -278 l 310 601 l 56 601 l 56 717 l 310 717 l 310 1028 l 440 1028 l 440 717 l 694 717 l 694 601 l 440 601 l 440 -278 l 310 -278 z "},"‡":{"ha":761,"x_min":61,"x_max":700,"o":"m 315 -278 l 315 33 l 61 33 l 61 149 l 315 149 l 315 601 l 61 601 l 61 717 l 315 717 l 315 1028 l 446 1028 l 446 717 l 700 717 l 700 601 l 446 601 l 446 149 l 700 149 l 700 33 l 446 33 l 446 -278 l 315 -278 z "},"#":{"ha":942,"x_min":56,"x_max":886,"o":"m 543 265 l 324 265 l 278 0 l 171 0 l 217 265 l 56 265 l 56 367 l 235 367 l 275 603 l 114 603 l 114 704 l 293 704 l 339 969 l 444 969 l 399 704 l 618 704 l 664 969 l 771 969 l 725 704 l 886 704 l 886 603 l 707 603 l 667 367 l 828 367 l 828 265 l 649 265 l 603 0 l 497 0 l 543 265 m 560 367 l 601 603 l 382 603 l 340 367 l 560 367 z "},"^":{"ha":833,"x_min":65,"x_max":768,"o":"m 649 400 l 417 815 l 410 815 l 179 400 l 65 460 l 347 969 l 486 969 l 768 460 l 649 400 z "},"~":{"ha":833,"x_min":81,"x_max":753,"o":"m 581 314 q 490 327 529 314 q 403 364 450 340 q 327 397 364 383 q 247 411 290 411 q 191 401 215 411 q 135 369 167 392 l 81 454 q 147 513 107 490 q 253 535 188 535 q 344 522 304 535 q 431 485 383 508 q 506 451 469 465 q 586 438 543 438 q 642 447 618 438 q 699 479 667 457 l 753 394 q 686 336 726 358 q 581 314 646 314 z "},"+":{"ha":833,"x_min":93,"x_max":740,"o":"m 349 88 l 349 363 l 93 363 l 93 486 l 349 486 l 349 761 l 485 761 l 485 486 l 740 486 l 740 363 l 485 363 l 485 88 l 349 88 z "},"−":{"ha":833,"x_min":93,"x_max":740,"o":"m 93 363 l 93 486 l 740 486 l 740 363 l 93 363 z "},"±":{"ha":833,"x_min":93,"x_max":740,"o":"m 349 232 l 349 488 l 93 488 l 93 611 l 349 611 l 349 868 l 485 868 l 485 611 l 740 611 l 740 488 l 485 488 l 485 232 l 349 232 m 93 0 l 93 124 l 740 124 l 740 0 l 93 0 z "},"×":{"ha":833,"x_min":119,"x_max":714,"o":"m 417 331 l 208 115 l 119 203 l 329 419 l 119 636 l 208 724 l 417 508 l 625 724 l 714 636 l 504 419 l 714 203 l 625 115 l 417 331 z "},"÷":{"ha":833,"x_min":93,"x_max":740,"o":"m 93 363 l 93 486 l 740 486 l 740 363 l 93 363 m 417 58 q 338 82 361 58 q 315 138 315 106 l 315 169 q 338 225 315 201 q 417 249 361 249 q 495 225 472 249 q 518 169 518 201 l 518 138 q 495 82 518 106 q 417 58 472 58 m 417 599 q 338 622 361 599 q 315 678 315 646 l 315 710 q 338 765 315 742 q 417 789 361 789 q 495 765 472 789 q 518 710 518 742 l 518 678 q 495 622 518 646 q 417 599 472 599 z "},"=":{"ha":833,"x_min":93,"x_max":740,"o":"m 93 511 l 93 635 l 740 635 l 740 511 l 93 511 m 93 214 l 93 338 l 740 338 l 740 214 l 93 214 z "},"≈":{"ha":833,"x_min":81,"x_max":753,"o":"m 581 463 q 490 476 529 463 q 403 513 450 489 q 327 546 364 532 q 247 560 290 560 q 191 550 215 560 q 135 518 167 540 l 81 603 q 147 661 107 639 q 253 683 188 683 q 344 670 304 683 q 431 633 383 657 q 506 600 469 614 q 586 586 543 586 q 642 596 618 586 q 699 628 667 606 l 753 543 q 686 485 726 507 q 581 463 646 463 m 581 167 q 490 180 529 167 q 403 217 450 193 q 327 250 364 236 q 247 264 290 264 q 191 254 215 264 q 135 222 167 244 l 81 307 q 147 365 107 343 q 253 388 188 388 q 344 374 304 388 q 431 338 383 361 q 506 304 469 318 q 586 290 543 290 q 642 300 618 290 q 699 332 667 310 l 753 247 q 686 189 726 211 q 581 167 646 167 z "},"≠":{"ha":833,"x_min":93,"x_max":740,"o":"m 167 78 l 238 210 l 93 210 l 93 333 l 303 333 l 399 515 l 93 515 l 93 639 l 465 639 l 535 771 l 667 771 l 596 639 l 740 639 l 740 515 l 529 515 l 433 333 l 740 333 l 740 210 l 368 210 l 299 78 l 167 78 z "},"<":{"ha":833,"x_min":133,"x_max":700,"o":"m 133 342 l 133 456 l 700 808 l 700 653 l 285 404 l 285 394 l 700 144 l 700 -11 l 133 342 z "},">":{"ha":833,"x_min":133,"x_max":700,"o":"m 133 144 l 549 394 l 549 404 l 133 653 l 133 808 l 700 456 l 700 342 l 133 -11 l 133 144 z "},"≤":{"ha":833,"x_min":133,"x_max":700,"o":"m 133 0 l 133 124 l 700 124 l 700 0 l 133 0 m 700 686 l 297 510 l 297 501 l 700 328 l 700 182 l 133 444 l 133 567 l 700 832 l 700 686 z "},"≥":{"ha":833,"x_min":133,"x_max":700,"o":"m 133 328 l 536 501 l 536 510 l 133 686 l 133 832 l 700 567 l 700 444 l 133 182 l 133 328 m 133 124 l 700 124 l 700 0 l 133 0 l 133 124 z "},"·":{"ha":494,"x_min":136,"x_max":358,"o":"m 247 311 q 163 338 189 311 q 136 406 136 365 l 136 439 q 163 506 136 479 q 247 533 189 533 q 332 506 306 533 q 358 439 358 479 l 358 406 q 332 338 358 365 q 247 311 306 311 z "},"•":{"ha":569,"x_min":97,"x_max":472,"o":"m 285 229 q 198 242 233 229 q 140 276 163 254 q 108 326 118 297 q 97 390 97 356 l 97 433 q 108 497 97 468 q 140 548 118 526 q 198 582 163 569 q 285 594 233 594 q 372 582 336 594 q 429 548 407 569 q 462 497 451 526 q 472 433 472 468 l 472 390 q 429 275 472 321 q 285 229 386 229 z "},"◊":{"ha":833,"x_min":69,"x_max":764,"o":"m 361 0 l 69 485 l 361 969 l 472 969 l 764 485 l 472 0 l 361 0 m 421 144 l 619 485 l 421 825 l 413 825 l 214 485 l 413 144 l 421 144 z "},"¬":{"ha":856,"x_min":85,"x_max":763,"o":"m 636 108 l 636 363 l 85 363 l 85 486 l 763 486 l 763 108 l 636 108 z "},"√":{"ha":835,"x_min":32,"x_max":800,"o":"m 325 0 l 157 599 l 32 599 l 32 722 l 263 722 l 335 456 l 421 126 l 429 126 l 518 456 l 664 969 l 800 969 l 519 0 l 325 0 z "},"∫":{"ha":607,"x_min":61,"x_max":546,"o":"m 61 -154 l 228 -154 l 228 846 q 272 978 228 928 q 411 1028 317 1028 l 546 1028 l 546 904 l 379 904 l 379 -96 q 335 -228 379 -178 q 196 -278 290 -278 l 61 -278 l 61 -154 z "},"∞":{"ha":1058,"x_min":25,"x_max":1033,"o":"m 286 142 q 177 161 225 142 q 95 217 129 181 q 43 303 61 253 q 25 415 25 354 q 43 527 25 476 q 95 614 61 578 q 177 669 129 650 q 286 689 225 689 q 455 643 389 689 q 556 497 521 597 l 563 497 q 638 640 578 592 q 772 689 697 689 q 881 669 832 689 q 963 614 929 650 q 1015 527 997 578 q 1033 415 1033 476 q 1015 303 1033 354 q 963 217 997 253 q 881 161 929 181 q 772 142 832 142 q 603 188 669 142 q 503 333 538 233 l 496 333 q 421 190 481 239 q 286 142 361 142 m 286 263 q 397 299 351 263 q 464 407 443 336 q 396 526 440 483 q 286 568 351 568 q 199 534 232 568 q 167 442 167 500 l 167 389 q 199 297 167 331 q 286 263 232 263 m 772 263 q 859 297 826 263 q 892 389 892 331 l 892 442 q 859 534 892 500 q 772 568 826 568 q 661 531 707 568 q 594 424 615 494 q 663 305 618 347 q 772 263 707 263 z "},"℮":{"ha":1000,"x_min":46,"x_max":954,"o":"m 269 139 q 368 82 311 104 q 500 60 425 60 q 707 117 625 60 q 839 267 789 174 l 908 228 q 841 131 881 175 q 751 53 801 86 q 637 2 700 21 q 500 -17 574 -17 q 319 19 401 -17 q 175 119 236 54 q 80 277 114 185 q 46 485 46 369 q 80 692 46 599 q 175 850 114 785 q 319 951 236 915 q 500 986 401 986 q 681 951 597 986 q 825 850 764 915 q 920 692 886 785 q 954 485 954 599 l 269 485 l 269 139 m 731 557 l 731 835 q 632 892 689 869 q 500 914 575 914 q 368 892 425 914 q 269 835 311 869 l 269 557 l 731 557 z "},"ℓ":{"ha":717,"x_min":36,"x_max":681,"o":"m 403 -17 q 232 48 296 -17 q 168 221 168 113 l 168 232 q 135 208 154 221 q 100 185 115 194 l 36 289 q 103 331 68 308 q 163 374 138 354 l 163 771 q 179 899 163 847 q 225 983 196 951 q 294 1030 254 1015 q 382 1044 335 1044 q 544 981 489 1044 q 600 799 600 917 q 581 671 600 732 q 526 551 563 610 q 434 433 489 492 q 307 313 379 375 l 307 253 q 333 147 307 178 q 407 115 360 115 q 494 151 460 115 q 564 260 529 188 l 681 196 q 635 111 661 150 q 576 44 610 72 q 499 -1 542 15 q 403 -17 456 -17 m 386 913 q 331 884 354 913 q 307 779 307 856 l 307 469 q 420 620 379 543 q 461 783 461 697 l 461 803 q 440 888 461 863 q 386 913 419 913 z "},"№":{"ha":1446,"x_min":119,"x_max":1389,"o":"m 1163 503 q 999 566 1061 503 q 936 744 936 629 q 999 923 936 860 q 1163 986 1061 986 q 1326 923 1264 986 q 1389 744 1389 860 q 1326 566 1389 629 q 1163 503 1264 503 m 119 0 l 119 969 l 293 969 l 568 457 l 683 226 l 688 226 l 688 969 l 835 969 l 835 0 l 660 0 l 374 524 l 269 736 l 265 736 l 265 0 l 119 0 m 1163 597 q 1242 627 1213 597 q 1271 708 1271 657 l 1271 781 q 1242 862 1271 832 q 1163 892 1213 892 q 1083 862 1113 892 q 1054 781 1054 832 l 1054 708 q 1083 627 1054 657 q 1163 597 1113 597 m 958 322 l 958 422 l 1367 422 l 1367 322 l 958 322 z "},"∂":{"ha":818,"x_min":72,"x_max":742,"o":"m 742 376 q 718 202 742 276 q 651 79 694 128 q 546 7 607 31 q 410 -17 485 -17 q 268 9 331 -17 q 162 82 206 35 q 95 197 118 129 q 72 347 72 264 q 93 492 72 426 q 151 603 114 557 q 243 675 189 650 q 364 700 297 700 q 476 673 431 700 q 554 599 522 646 l 563 601 q 507 703 544 654 q 418 799 469 753 q 302 888 367 844 q 165 969 238 931 l 394 969 q 510 885 449 936 q 622 763 571 835 q 708 597 674 692 q 742 376 742 501 m 407 104 q 535 153 488 104 q 582 297 582 201 l 582 386 q 535 531 582 482 q 407 579 488 579 q 279 531 326 579 q 232 386 232 482 l 232 297 q 279 153 232 201 q 407 104 326 104 z "},"¢":{"ha":735,"x_min":61,"x_max":683,"o":"m 326 -158 l 326 -11 q 131 107 200 10 q 61 358 61 204 q 131 611 61 514 q 326 728 200 708 l 326 875 l 447 875 l 447 731 q 589 675 533 719 q 674 564 644 631 l 560 501 q 513 569 543 542 q 440 607 483 597 l 440 110 q 520 147 486 118 q 575 221 554 176 l 683 154 q 594 41 653 86 q 447 -14 535 -4 l 447 -158 l 326 -158 m 213 299 q 242 179 213 229 q 333 113 272 129 l 333 604 q 243 538 274 588 q 213 418 213 489 l 213 299 z "},"€":{"ha":871,"x_min":76,"x_max":818,"o":"m 482 -17 q 314 17 389 -17 q 186 114 239 50 q 105 271 133 178 q 76 485 76 364 q 105 699 76 606 q 186 856 133 792 q 314 953 239 919 q 482 986 389 986 q 686 932 610 986 q 808 793 763 878 l 692 714 q 610 818 663 781 q 482 856 558 856 q 328 800 389 856 q 249 651 268 744 l 588 651 l 588 544 l 242 544 l 242 425 l 588 425 l 588 318 l 249 318 q 328 168 268 222 q 482 114 389 114 q 615 154 561 114 q 701 265 669 194 l 818 183 q 767 106 797 143 q 697 42 738 69 q 603 -1 656 15 q 482 -17 550 -17 z "},"ƒ":{"ha":672,"x_min":0,"x_max":646,"o":"m 13 -62 l 196 -62 l 242 389 l 65 389 l 79 518 l 254 518 l 282 785 q 340 918 290 867 q 485 969 390 969 l 646 969 l 632 846 l 440 846 l 406 518 l 615 518 l 603 389 l 393 389 l 354 -3 q 296 -135 346 -83 q 151 -186 246 -186 l 0 -186 l 13 -62 z "},"£":{"ha":818,"x_min":68,"x_max":769,"o":"m 104 0 l 104 160 q 186 234 161 185 q 211 342 211 283 q 210 372 211 357 q 206 400 208 386 l 68 400 l 68 526 l 163 526 q 139 608 150 567 q 128 697 128 649 q 151 815 128 761 q 217 906 174 868 q 321 965 260 944 q 460 986 382 986 q 644 944 568 986 q 769 824 719 903 l 654 742 q 572 822 618 794 q 460 850 525 850 q 333 806 378 850 q 288 676 288 763 q 297 598 288 633 q 318 526 307 563 l 607 526 l 607 400 l 360 400 q 364 351 364 376 q 331 222 364 275 q 258 144 299 168 l 258 136 l 746 136 l 746 0 l 104 0 z "},"$":{"ha":832,"x_min":60,"x_max":761,"o":"m 363 -114 l 363 6 q 185 57 257 14 q 60 163 113 100 l 161 254 q 255 169 204 201 q 372 129 306 138 l 372 440 q 156 537 222 472 q 89 707 89 601 q 163 883 89 818 q 363 963 236 949 l 363 1083 l 481 1083 l 481 963 q 635 918 569 954 q 750 819 701 882 l 647 735 q 574 802 617 775 q 472 839 532 829 l 472 554 l 478 553 q 608 510 554 533 q 697 455 663 486 q 746 383 731 424 q 761 288 761 342 q 688 100 761 175 q 481 8 615 25 l 481 -114 l 363 -114 m 615 278 q 585 365 615 331 q 472 419 554 399 l 472 131 q 578 181 540 142 q 615 278 615 219 m 233 714 q 267 626 233 656 q 372 576 301 596 l 372 840 q 269 799 306 831 q 233 714 233 767 z "},"¥":{"ha":864,"x_min":39,"x_max":826,"o":"m 511 194 l 511 0 l 354 0 l 354 194 l 115 194 l 115 301 l 354 301 l 354 418 l 115 418 l 115 525 l 289 525 l 39 969 l 217 969 l 438 556 l 443 556 l 657 969 l 826 969 l 578 525 l 750 525 l 750 418 l 511 418 l 511 301 l 750 301 l 750 194 l 511 194 z "},"฿":{"ha":906,"x_min":119,"x_max":832,"o":"m 510 -118 l 388 -118 l 388 29 l 119 29 l 119 940 l 388 940 l 388 1083 l 510 1083 l 510 940 l 547 940 q 731 876 665 940 q 797 706 797 813 q 751 567 797 613 q 629 511 706 522 l 629 503 q 703 486 667 499 q 769 449 740 474 q 815 386 797 425 q 832 292 832 347 q 813 188 832 236 q 762 105 794 140 q 684 49 729 69 q 588 29 639 29 l 510 29 l 510 -118 m 394 554 l 394 810 l 269 810 l 269 554 l 394 554 m 503 554 l 528 554 q 640 660 640 554 l 640 704 q 528 810 640 810 l 503 810 l 503 554 m 394 160 l 394 431 l 269 431 l 269 160 l 394 160 m 503 160 l 546 160 q 640 188 606 160 q 675 272 675 215 l 675 318 q 640 403 675 375 q 546 431 606 431 l 503 431 l 503 160 z "},"₡":{"ha":865,"x_min":76,"x_max":813,"o":"m 443 4 q 409 8 425 6 q 378 14 393 11 l 364 -114 l 268 -114 l 285 46 q 131 206 186 96 q 76 483 76 317 q 156 806 76 686 q 379 956 236 925 l 393 1083 l 488 1083 l 475 967 l 485 967 q 543 963 515 967 l 556 1083 l 650 1083 l 636 940 q 736 875 694 917 q 810 776 778 833 l 696 700 q 663 757 681 732 q 618 799 644 782 l 550 140 q 640 191 603 156 q 699 279 676 226 l 813 200 q 710 74 776 129 q 538 7 643 19 l 525 -114 l 431 -114 l 443 4 m 461 839 l 389 147 q 458 132 422 133 l 531 833 q 506 838 519 836 q 471 839 492 839 l 461 839 m 238 406 q 306 204 238 275 l 367 813 q 271 719 304 783 q 238 564 238 654 l 238 406 z "},"₤":{"ha":818,"x_min":68,"x_max":769,"o":"m 746 0 l 104 0 l 104 156 q 180 225 156 179 q 208 324 204 271 l 68 324 l 68 431 l 197 431 q 180 486 190 458 q 160 542 169 514 l 68 542 l 68 649 l 132 649 q 128 697 128 674 q 151 815 128 761 q 217 906 174 868 q 321 965 260 944 q 460 986 382 986 q 644 944 568 986 q 769 824 719 903 l 654 746 q 572 826 618 799 q 460 854 525 854 q 333 808 378 854 q 288 676 288 763 q 288 663 288 669 q 289 649 289 656 l 594 649 l 594 542 l 315 542 q 335 487 325 514 q 353 431 346 460 l 594 431 l 594 324 l 361 324 q 324 212 354 260 q 258 140 294 164 l 258 132 l 746 132 l 746 0 z "},"₦":{"ha":1014,"x_min":22,"x_max":992,"o":"m 514 324 l 282 324 l 282 0 l 138 0 l 138 321 l 22 321 l 22 428 l 138 428 l 138 544 l 22 544 l 22 651 l 138 651 l 138 969 l 317 969 l 493 649 l 733 649 l 733 969 l 875 969 l 875 651 l 992 651 l 992 544 l 875 544 l 875 428 l 992 428 l 992 321 l 875 321 l 875 0 l 693 0 l 514 324 m 465 425 l 286 756 l 282 756 l 282 425 l 465 425 m 729 204 l 733 204 l 733 547 l 543 547 l 729 204 z "},"₨":{"ha":1097,"x_min":119,"x_max":1054,"o":"m 119 0 l 119 969 l 397 969 q 596 899 526 969 q 665 699 665 828 q 633 550 665 611 q 535 457 600 489 l 651 221 q 717 133 682 161 q 800 104 751 104 q 872 124 846 104 q 897 181 897 144 q 894 206 897 194 q 884 230 892 218 q 864 256 876 242 q 831 289 851 269 l 804 315 q 722 415 746 369 q 697 514 697 460 q 752 647 697 597 q 900 697 807 697 q 979 689 940 697 q 1054 657 1018 681 l 1000 554 q 960 575 981 568 q 913 582 939 582 q 860 565 881 582 q 840 517 840 549 q 858 463 840 486 q 913 404 876 440 l 936 383 q 986 331 965 354 q 1020 285 1007 307 q 1039 238 1033 263 q 1044 185 1044 214 q 1030 105 1044 142 q 984 41 1015 68 q 903 -1 953 14 q 786 -17 854 -17 q 626 19 692 -17 q 519 146 561 56 l 393 418 l 274 418 l 274 0 l 119 0 m 379 547 q 473 576 439 547 q 507 663 507 604 l 507 724 q 473 810 507 782 q 379 839 439 839 l 274 839 l 274 547 l 379 547 z "},"₩":{"ha":1364,"x_min":51,"x_max":1313,"o":"m 797 324 l 558 324 l 476 0 l 301 0 l 226 322 l 51 322 l 51 429 l 200 429 l 174 544 l 51 544 l 51 651 l 149 651 l 74 969 l 229 969 l 297 649 l 515 649 l 596 969 l 771 969 l 849 650 l 1069 650 l 1140 969 l 1293 969 l 1214 653 l 1313 653 l 1313 546 l 1188 546 l 1160 429 l 1313 429 l 1313 322 l 1133 322 l 1053 0 l 878 0 l 797 324 m 479 500 l 490 547 l 318 547 l 329 500 l 397 178 l 401 178 l 479 500 m 967 179 l 1036 499 l 1047 549 l 874 549 l 885 503 l 963 179 l 967 179 m 585 425 l 772 425 l 757 486 l 681 803 l 678 803 l 600 488 l 585 425 z "},"₪":{"ha":1153,"x_min":119,"x_max":1033,"o":"m 376 729 l 519 729 l 519 129 l 765 129 q 854 160 818 129 q 890 263 890 192 l 890 969 l 1033 969 l 1033 275 q 962 68 1033 136 q 778 0 890 0 l 376 0 l 376 729 m 119 0 l 119 969 l 524 969 q 706 901 636 969 q 776 694 776 833 l 776 240 l 633 240 l 633 707 q 599 809 633 778 q 511 840 565 840 l 263 840 l 263 0 l 119 0 z "},"₫":{"ha":801,"x_min":78,"x_max":749,"o":"m 511 308 l 506 308 q 433 228 479 258 q 314 197 388 197 q 142 268 206 197 q 78 482 78 339 q 142 696 78 625 q 314 767 206 767 q 433 736 388 767 q 506 656 479 706 l 511 656 l 511 844 l 321 844 l 321 946 l 511 946 l 511 1028 l 660 1028 l 660 946 l 749 946 l 749 844 l 660 844 l 660 210 l 511 210 l 511 308 m 372 310 q 473 340 435 310 q 511 417 511 371 l 511 547 q 473 624 511 593 q 372 654 435 654 q 265 617 304 654 q 226 518 226 581 l 226 446 q 265 347 226 383 q 372 310 304 310 m 88 0 l 88 117 l 694 117 l 694 0 l 88 0 z "},"₭":{"ha":897,"x_min":11,"x_max":868,"o":"m 289 0 l 132 0 l 132 433 l 11 433 l 11 558 l 132 558 l 132 969 l 289 969 l 289 558 l 374 558 l 663 969 l 839 969 l 536 558 l 814 558 l 814 433 l 549 433 l 868 0 l 682 0 l 376 433 l 289 433 l 289 0 z "},"₮":{"ha":843,"x_min":54,"x_max":789,"o":"m 500 296 l 500 0 l 343 0 l 343 221 l 165 136 l 165 244 l 343 329 l 343 442 l 165 357 l 165 465 l 343 550 l 343 838 l 54 838 l 54 969 l 789 969 l 789 838 l 500 838 l 500 625 l 678 710 l 678 601 l 500 517 l 500 404 l 678 490 l 678 382 l 500 296 z "},"₱":{"ha":913,"x_min":33,"x_max":889,"o":"m 306 0 l 149 0 l 149 449 l 33 449 l 33 550 l 149 550 l 149 665 l 33 665 l 33 767 l 149 767 l 149 969 l 500 969 q 758 767 707 969 l 889 767 l 889 665 l 772 665 q 774 638 774 651 q 775 608 775 624 q 774 578 775 593 q 772 550 774 564 l 889 550 l 889 449 l 756 449 q 665 296 729 349 q 500 243 601 243 l 306 243 l 306 0 m 306 761 l 611 761 q 567 826 599 801 q 489 851 536 851 l 306 851 l 306 761 m 619 544 l 619 671 l 306 671 l 306 544 l 619 544 m 489 361 q 569 386 538 361 q 613 454 601 411 l 306 454 l 306 361 l 489 361 z "},"₲":{"ha":935,"x_min":76,"x_max":846,"o":"m 293 -114 l 318 31 l 311 33 q 185 125 238 64 q 105 276 133 186 q 76 485 76 365 q 105 693 76 603 q 185 844 133 783 q 312 936 238 906 q 479 967 386 967 l 482 967 l 501 1083 l 626 1083 l 603 950 q 690 913 650 936 q 828 754 779 858 l 704 689 q 622 799 678 758 q 574 824 600 814 l 519 515 l 846 515 l 846 356 q 811 187 846 254 q 722 78 776 119 q 603 20 668 38 q 479 3 539 3 q 439 4 458 3 l 418 -114 l 293 -114 m 303 768 q 239 561 239 697 l 239 408 q 303 201 239 272 q 347 164 322 179 l 465 839 q 303 768 363 835 m 479 131 q 639 183 578 131 q 700 336 700 236 l 700 386 l 497 386 l 453 131 l 479 131 z "},"₴":{"ha":882,"x_min":60,"x_max":822,"o":"m 450 -17 q 323 4 379 -17 q 228 63 267 25 q 169 150 189 100 q 149 258 149 200 q 152 299 149 281 q 160 333 156 318 l 60 333 l 60 440 l 222 440 l 432 556 l 60 556 l 60 663 l 571 663 q 578 691 575 676 q 581 722 581 706 q 542 824 581 792 q 432 856 503 856 q 332 837 379 856 q 247 774 285 818 l 161 868 q 287 957 214 928 q 440 986 360 986 q 558 967 506 986 q 649 915 611 949 q 706 836 686 882 q 726 736 726 790 q 724 698 726 717 q 717 663 722 679 l 822 663 l 822 556 l 651 556 l 446 440 l 822 440 l 822 333 l 310 333 q 294 265 294 303 q 339 152 294 190 q 458 114 383 114 q 560 135 511 114 q 664 214 610 156 l 749 118 q 620 19 696 54 q 450 -17 544 -17 z "},"₵":{"ha":860,"x_min":76,"x_max":807,"o":"m 293 -114 l 318 32 q 313 33 315 32 q 186 127 239 65 q 105 278 133 189 q 76 485 76 368 q 105 691 76 601 q 186 842 133 781 q 313 935 239 904 q 478 967 388 967 l 482 967 l 501 1083 l 626 1083 l 603 950 q 679 915 644 938 q 804 779 760 864 l 689 701 q 607 803 661 767 q 574 819 592 813 l 453 133 l 478 133 q 609 172 554 133 q 693 279 664 210 l 807 201 q 757 125 786 161 q 688 62 728 89 q 596 19 647 35 q 478 3 544 3 q 439 4 458 3 l 418 -114 l 293 -114 m 379 819 q 303 764 335 800 q 255 677 272 728 q 238 564 238 626 l 238 408 q 255 295 238 346 q 303 208 272 244 q 349 168 324 185 l 465 839 q 379 819 418 836 z "},"₸":{"ha":843,"x_min":54,"x_max":789,"o":"m 54 851 l 54 969 l 789 969 l 789 851 l 54 851 m 500 614 l 500 0 l 343 0 l 343 614 l 54 614 l 54 732 l 789 732 l 789 614 l 500 614 z "},"₹":{"ha":854,"x_min":79,"x_max":806,"o":"m 519 0 l 247 365 l 79 365 l 79 483 l 351 483 q 460 515 419 483 q 503 608 500 546 l 79 608 l 79 726 l 503 726 q 458 822 499 793 q 351 851 418 851 l 79 851 l 79 969 l 806 969 l 806 851 l 553 851 l 553 846 q 580 838 565 844 q 608 817 594 831 q 633 782 622 804 q 651 726 644 760 l 806 726 l 806 608 l 654 608 q 583 449 642 511 q 419 375 524 388 l 710 0 l 519 0 z "},"₺":{"ha":846,"x_min":21,"x_max":794,"o":"m 150 324 l 21 261 l 21 369 l 150 432 l 150 544 l 21 482 l 21 590 l 150 653 l 150 969 l 308 969 l 308 728 l 569 853 l 569 744 l 308 619 l 308 507 l 569 632 l 569 524 l 308 399 l 308 131 l 422 131 q 586 202 529 131 q 643 424 643 274 l 794 424 q 773 258 794 335 q 707 123 751 181 q 595 33 663 65 q 438 0 528 0 l 150 0 l 150 324 z "},"₽":{"ha":888,"x_min":33,"x_max":835,"o":"m 306 168 l 306 0 l 149 0 l 149 168 l 33 168 l 33 286 l 149 286 l 149 411 l 33 411 l 33 529 l 149 529 l 149 969 l 554 969 q 761 896 688 969 q 835 690 835 822 q 761 485 835 558 q 554 411 688 411 l 306 411 l 306 286 l 651 286 l 651 168 l 306 168 m 306 529 l 543 529 q 637 560 604 529 q 669 649 669 590 l 669 718 q 637 807 669 776 q 543 838 604 838 l 306 838 l 306 529 z "},"₿":{"ha":906,"x_min":119,"x_max":832,"o":"m 474 29 l 386 29 l 386 -114 l 265 -114 l 265 29 l 119 29 l 119 940 l 265 940 l 265 1083 l 386 1083 l 386 940 l 474 940 l 474 1083 l 594 1083 l 594 939 q 744 863 690 925 q 797 706 797 801 q 751 567 797 613 q 629 511 706 522 l 629 503 q 705 486 668 499 q 770 449 742 474 q 815 385 799 424 q 832 292 832 347 q 814 190 832 238 q 764 106 796 142 q 689 51 732 71 q 594 29 646 31 l 594 -114 l 474 -114 l 474 29 m 269 554 l 528 554 q 640 660 640 554 l 640 703 q 528 808 640 808 l 269 808 l 269 554 m 269 161 l 546 161 q 640 190 606 161 q 675 274 675 218 l 675 317 q 640 401 675 372 q 546 429 606 429 l 269 429 l 269 161 z "},"ﬁ":{"ha":835,"x_min":36,"x_max":740,"o":"m 146 599 l 36 599 l 36 722 l 146 722 l 146 842 q 192 978 146 929 q 329 1028 238 1028 l 449 1028 l 449 904 l 297 904 l 297 722 l 726 722 l 726 0 l 575 0 l 575 599 l 297 599 l 297 0 l 146 0 l 146 599 m 651 851 q 583 874 604 851 q 561 931 561 896 l 561 954 q 583 1011 561 989 q 651 1033 604 1033 q 719 1011 699 1033 q 740 954 740 989 l 740 931 q 719 874 740 896 q 651 851 699 851 z "},"ﬂ":{"ha":868,"x_min":36,"x_max":832,"o":"m 146 599 l 36 599 l 36 722 l 146 722 l 146 842 q 192 978 146 929 q 329 1028 238 1028 l 449 1028 l 449 904 l 297 904 l 297 722 l 449 722 l 449 599 l 297 599 l 297 0 l 146 0 l 146 599 m 735 0 q 619 40 657 0 q 581 150 581 79 l 581 1028 l 732 1028 l 732 124 l 832 124 l 832 0 l 735 0 z "},"á":{"ha":763,"x_min":56,"x_max":722,"o":"m 638 0 q 546 34 578 0 q 507 121 514 68 l 500 121 q 424 18 479 53 q 289 -17 368 -17 q 116 42 176 -17 q 56 199 56 100 q 134 361 56 307 q 364 415 213 415 l 494 415 l 494 476 q 458 579 494 543 q 346 615 422 615 q 242 588 282 615 q 174 517 201 560 l 83 599 q 185 699 119 660 q 356 739 250 739 q 571 674 496 739 q 646 486 646 608 l 646 124 l 722 124 l 722 0 l 638 0 m 332 99 q 449 130 403 99 q 494 214 494 161 l 494 318 l 367 318 q 210 221 210 318 l 210 196 q 242 123 210 147 q 332 99 275 99 m 376 808 l 282 854 l 408 1104 l 540 1040 l 376 808 z "},"ă":{"ha":763,"x_min":56,"x_max":722,"o":"m 638 0 q 546 34 578 0 q 507 121 514 68 l 500 121 q 424 18 479 53 q 289 -17 368 -17 q 116 42 176 -17 q 56 199 56 100 q 134 361 56 307 q 364 415 213 415 l 494 415 l 494 476 q 458 579 494 543 q 346 615 422 615 q 242 588 282 615 q 174 517 201 560 l 83 599 q 185 699 119 660 q 356 739 250 739 q 571 674 496 739 q 646 486 646 608 l 646 124 l 722 124 l 722 0 l 638 0 m 332 99 q 449 130 403 99 q 494 214 494 161 l 494 318 l 367 318 q 210 221 210 318 l 210 196 q 242 123 210 147 q 332 99 275 99 m 360 818 q 262 838 301 818 q 196 886 222 857 q 153 951 169 915 q 126 1018 138 986 l 210 1060 l 239 1014 q 288 952 263 975 q 360 929 314 929 q 431 952 406 929 q 481 1014 457 975 l 510 1060 l 593 1018 q 566 951 582 986 q 524 886 550 915 q 458 838 497 857 q 360 818 418 818 z "},"â":{"ha":763,"x_min":56,"x_max":722,"o":"m 638 0 q 546 34 578 0 q 507 121 514 68 l 500 121 q 424 18 479 53 q 289 -17 368 -17 q 116 42 176 -17 q 56 199 56 100 q 134 361 56 307 q 364 415 213 415 l 494 415 l 494 476 q 458 579 494 543 q 346 615 422 615 q 242 588 282 615 q 174 517 201 560 l 83 599 q 185 699 119 660 q 356 739 250 739 q 571 674 496 739 q 646 486 646 608 l 646 124 l 722 124 l 722 0 l 638 0 m 332 99 q 449 130 403 99 q 494 214 494 161 l 494 318 l 367 318 q 210 221 210 318 l 210 196 q 242 123 210 147 q 332 99 275 99 m 438 1081 l 604 872 l 526 813 l 361 975 l 196 813 l 118 872 l 285 1081 l 438 1081 z "},"ä":{"ha":763,"x_min":56,"x_max":722,"o":"m 638 0 q 546 34 578 0 q 507 121 514 68 l 500 121 q 424 18 479 53 q 289 -17 368 -17 q 116 42 176 -17 q 56 199 56 100 q 134 361 56 307 q 364 415 213 415 l 494 415 l 494 476 q 458 579 494 543 q 346 615 422 615 q 242 588 282 615 q 174 517 201 560 l 83 599 q 185 699 119 660 q 356 739 250 739 q 571 674 496 739 q 646 486 646 608 l 646 124 l 722 124 l 722 0 l 638 0 m 332 99 q 449 130 403 99 q 494 214 494 161 l 494 318 l 367 318 q 210 221 210 318 l 210 196 q 242 123 210 147 q 332 99 275 99 m 222 847 q 156 868 175 847 q 136 921 136 889 l 136 946 q 156 999 136 978 q 222 1019 175 1019 q 289 999 269 1019 q 308 946 308 978 l 308 921 q 289 868 308 889 q 222 847 269 847 m 500 847 q 433 868 453 847 q 414 921 414 889 l 414 946 q 433 999 414 978 q 500 1019 453 1019 q 567 999 547 1019 q 586 946 586 978 l 586 921 q 567 868 586 889 q 500 847 547 847 z "},"ạ":{"ha":763,"x_min":56,"x_max":722,"o":"m 638 0 q 546 34 578 0 q 507 121 514 68 l 500 121 q 424 18 479 53 q 289 -17 368 -17 q 116 42 176 -17 q 56 199 56 100 q 134 361 56 307 q 364 415 213 415 l 494 415 l 494 476 q 458 579 494 543 q 346 615 422 615 q 242 588 282 615 q 174 517 201 560 l 83 599 q 185 699 119 660 q 356 739 250 739 q 571 674 496 739 q 646 486 646 608 l 646 124 l 722 124 l 722 0 l 638 0 m 332 99 q 449 130 403 99 q 494 214 494 161 l 494 318 l 367 318 q 210 221 210 318 l 210 196 q 242 123 210 147 q 332 99 275 99 m 354 -256 q 286 -235 307 -256 q 265 -182 265 -214 l 265 -157 q 286 -104 265 -125 q 354 -83 307 -83 q 422 -104 401 -83 q 443 -157 443 -125 l 443 -182 q 422 -235 443 -214 q 354 -256 401 -256 z "},"à":{"ha":763,"x_min":56,"x_max":722,"o":"m 638 0 q 546 34 578 0 q 507 121 514 68 l 500 121 q 424 18 479 53 q 289 -17 368 -17 q 116 42 176 -17 q 56 199 56 100 q 134 361 56 307 q 364 415 213 415 l 494 415 l 494 476 q 458 579 494 543 q 346 615 422 615 q 242 588 282 615 q 174 517 201 560 l 83 599 q 185 699 119 660 q 356 739 250 739 q 571 674 496 739 q 646 486 646 608 l 646 124 l 722 124 l 722 0 l 638 0 m 332 99 q 449 130 403 99 q 494 214 494 161 l 494 318 l 367 318 q 210 221 210 318 l 210 196 q 242 123 210 147 q 332 99 275 99 m 182 1040 l 314 1104 l 440 854 l 346 808 l 182 1040 z "},"ả":{"ha":763,"x_min":56,"x_max":722,"o":"m 638 0 q 546 34 578 0 q 507 121 514 68 l 500 121 q 424 18 479 53 q 289 -17 368 -17 q 116 42 176 -17 q 56 199 56 100 q 134 361 56 307 q 364 415 213 415 l 494 415 l 494 476 q 458 579 494 543 q 346 615 422 615 q 242 588 282 615 q 174 517 201 560 l 83 599 q 185 699 119 660 q 356 739 250 739 q 571 674 496 739 q 646 486 646 608 l 646 124 l 722 124 l 722 0 l 638 0 m 332 99 q 449 130 403 99 q 494 214 494 161 l 494 318 l 367 318 q 210 221 210 318 l 210 196 q 242 123 210 147 q 332 99 275 99 m 222 1085 l 393 1085 q 482 1059 457 1085 q 507 997 507 1033 q 488 922 507 963 q 435 840 468 882 l 399 797 l 318 836 l 388 974 l 222 974 l 222 1085 z "},"ā":{"ha":763,"x_min":56,"x_max":722,"o":"m 638 0 q 546 34 578 0 q 507 121 514 68 l 500 121 q 424 18 479 53 q 289 -17 368 -17 q 116 42 176 -17 q 56 199 56 100 q 134 361 56 307 q 364 415 213 415 l 494 415 l 494 476 q 458 579 494 543 q 346 615 422 615 q 242 588 282 615 q 174 517 201 560 l 83 599 q 185 699 119 660 q 356 739 250 739 q 571 674 496 739 q 646 486 646 608 l 646 124 l 722 124 l 722 0 l 638 0 m 332 99 q 449 130 403 99 q 494 214 494 161 l 494 318 l 367 318 q 210 221 210 318 l 210 196 q 242 123 210 147 q 332 99 275 99 m 158 992 l 564 992 l 564 876 l 158 876 l 158 992 z "},"ą":{"ha":763,"x_min":56,"x_max":757,"o":"m 722 0 q 647 -61 675 -36 q 602 -104 618 -86 q 581 -135 586 -122 q 576 -160 576 -147 q 590 -194 576 -185 q 624 -204 604 -204 q 663 -194 646 -204 q 694 -168 681 -183 l 757 -229 q 706 -274 742 -257 q 615 -290 671 -290 q 558 -284 585 -290 q 510 -265 531 -278 q 477 -231 489 -251 q 465 -179 465 -210 q 508 -83 465 -124 q 618 -4 551 -43 l 615 1 q 540 40 567 8 q 507 121 514 72 l 500 121 q 424 18 479 53 q 289 -17 368 -17 q 116 42 176 -17 q 56 199 56 100 q 134 361 56 307 q 364 415 213 415 l 494 415 l 494 476 q 458 579 494 543 q 346 615 422 615 q 242 588 282 615 q 174 517 201 560 l 83 599 q 185 699 119 660 q 356 739 250 739 q 571 674 496 739 q 646 486 646 608 l 646 124 l 722 124 l 722 0 m 367 318 q 210 221 210 318 l 210 196 q 242 123 210 147 q 332 99 275 99 q 449 130 403 99 q 494 214 494 161 l 494 318 l 367 318 z "},"å":{"ha":763,"x_min":56,"x_max":722,"o":"m 638 0 q 546 34 578 0 q 507 121 514 68 l 500 121 q 424 18 479 53 q 289 -17 368 -17 q 116 42 176 -17 q 56 199 56 100 q 134 361 56 307 q 364 415 213 415 l 494 415 l 494 476 q 458 579 494 543 q 346 615 422 615 q 242 588 282 615 q 174 517 201 560 l 83 599 q 185 699 119 660 q 356 739 250 739 q 571 674 496 739 q 646 486 646 608 l 646 124 l 722 124 l 722 0 l 638 0 m 332 99 q 449 130 403 99 q 494 214 494 161 l 494 318 l 367 318 q 210 221 210 318 l 210 196 q 242 123 210 147 q 332 99 275 99 m 361 789 q 290 802 324 789 q 233 839 257 815 q 194 895 208 863 q 181 965 181 928 q 194 1035 181 1003 q 233 1092 208 1068 q 290 1128 257 1115 q 361 1142 324 1142 q 432 1128 399 1142 q 490 1092 465 1115 q 528 1035 514 1068 q 542 965 542 1003 q 528 895 542 928 q 490 839 514 863 q 432 802 465 815 q 361 789 399 789 m 361 872 q 438 946 438 872 l 438 985 q 361 1058 438 1058 q 285 985 285 1058 l 285 946 q 361 872 285 872 z "},"ǻ":{"ha":763,"x_min":56,"x_max":722,"o":"m 638 0 q 546 34 578 0 q 507 121 514 68 l 500 121 q 424 18 479 53 q 289 -17 368 -17 q 116 42 176 -17 q 56 199 56 100 q 134 361 56 307 q 364 415 213 415 l 494 415 l 494 476 q 458 579 494 543 q 346 615 422 615 q 242 588 282 615 q 174 517 201 560 l 83 599 q 185 699 119 660 q 356 739 250 739 q 571 674 496 739 q 646 486 646 608 l 646 124 l 722 124 l 722 0 l 638 0 m 332 99 q 449 130 403 99 q 494 214 494 161 l 494 318 l 367 318 q 210 221 210 318 l 210 196 q 242 123 210 147 q 332 99 275 99 m 365 1131 l 301 1186 l 438 1347 l 529 1269 l 365 1131 m 361 785 q 231 828 283 785 q 179 947 179 872 q 231 1066 179 1022 q 361 1110 283 1110 q 491 1066 439 1110 q 543 947 543 1022 q 491 828 543 872 q 361 785 439 785 m 361 865 q 419 883 399 865 q 440 935 440 900 l 440 960 q 419 1012 440 994 q 361 1029 399 1029 q 303 1012 324 1029 q 282 960 282 994 l 282 935 q 303 883 282 900 q 361 865 324 865 z "},"ã":{"ha":763,"x_min":56,"x_max":722,"o":"m 638 0 q 546 34 578 0 q 507 121 514 68 l 500 121 q 424 18 479 53 q 289 -17 368 -17 q 116 42 176 -17 q 56 199 56 100 q 134 361 56 307 q 364 415 213 415 l 494 415 l 494 476 q 458 579 494 543 q 346 615 422 615 q 242 588 282 615 q 174 517 201 560 l 83 599 q 185 699 119 660 q 356 739 250 739 q 571 674 496 739 q 646 486 646 608 l 646 124 l 722 124 l 722 0 l 638 0 m 332 99 q 449 130 403 99 q 494 214 494 161 l 494 318 l 367 318 q 210 221 210 318 l 210 196 q 242 123 210 147 q 332 99 275 99 m 464 843 q 404 854 429 843 q 356 876 379 865 q 299 901 324 892 q 253 910 275 910 q 211 900 229 910 q 172 872 193 890 l 115 944 q 172 1001 136 976 q 258 1025 207 1025 q 318 1014 293 1025 q 367 992 343 1003 q 423 967 399 976 q 469 958 447 958 q 511 968 493 958 q 550 996 529 978 l 607 924 q 551 867 586 892 q 464 843 515 843 z "},"ắ":{"ha":763,"x_min":56,"x_max":722,"o":"m 638 0 q 546 34 578 0 q 507 121 514 68 l 500 121 q 424 18 479 53 q 289 -17 368 -17 q 116 42 176 -17 q 56 199 56 100 q 134 361 56 307 q 364 415 213 415 l 494 415 l 494 476 q 458 579 494 543 q 346 615 422 615 q 242 588 282 615 q 174 517 201 560 l 83 599 q 185 699 119 660 q 356 739 250 739 q 571 674 496 739 q 646 486 646 608 l 646 124 l 722 124 l 722 0 l 638 0 m 332 99 q 449 130 403 99 q 494 214 494 161 l 494 318 l 367 318 q 210 221 210 318 l 210 196 q 242 123 210 147 q 332 99 275 99 m 360 804 q 263 822 303 804 q 194 867 222 840 q 149 928 167 894 q 119 993 131 961 l 200 1039 l 229 994 q 285 933 256 954 q 360 911 315 911 q 434 933 404 911 q 490 994 464 954 l 519 1039 l 600 993 q 571 928 589 961 q 525 867 553 894 q 457 822 497 840 q 360 804 417 804 m 375 990 l 289 1032 l 414 1282 l 536 1221 l 375 990 z "},"ặ":{"ha":763,"x_min":56,"x_max":722,"o":"m 638 0 q 546 34 578 0 q 507 121 514 68 l 500 121 q 424 18 479 53 q 289 -17 368 -17 q 116 42 176 -17 q 56 199 56 100 q 134 361 56 307 q 364 415 213 415 l 494 415 l 494 476 q 458 579 494 543 q 346 615 422 615 q 242 588 282 615 q 174 517 201 560 l 83 599 q 185 699 119 660 q 356 739 250 739 q 571 674 496 739 q 646 486 646 608 l 646 124 l 722 124 l 722 0 l 638 0 m 332 99 q 449 130 403 99 q 494 214 494 161 l 494 318 l 367 318 q 210 221 210 318 l 210 196 q 242 123 210 147 q 332 99 275 99 m 360 818 q 262 838 301 818 q 196 886 222 857 q 153 951 169 915 q 126 1018 138 986 l 210 1060 l 239 1014 q 288 952 263 975 q 360 929 314 929 q 431 952 406 929 q 481 1014 457 975 l 510 1060 l 593 1018 q 566 951 582 986 q 524 886 550 915 q 458 838 497 857 q 360 818 418 818 m 354 -256 q 286 -235 307 -256 q 265 -182 265 -214 l 265 -157 q 286 -104 265 -125 q 354 -83 307 -83 q 422 -104 401 -83 q 443 -157 443 -125 l 443 -182 q 422 -235 443 -214 q 354 -256 401 -256 z "},"ằ":{"ha":763,"x_min":56,"x_max":722,"o":"m 638 0 q 546 34 578 0 q 507 121 514 68 l 500 121 q 424 18 479 53 q 289 -17 368 -17 q 116 42 176 -17 q 56 199 56 100 q 134 361 56 307 q 364 415 213 415 l 494 415 l 494 476 q 458 579 494 543 q 346 615 422 615 q 242 588 282 615 q 174 517 201 560 l 83 599 q 185 699 119 660 q 356 739 250 739 q 571 674 496 739 q 646 486 646 608 l 646 124 l 722 124 l 722 0 l 638 0 m 332 99 q 449 130 403 99 q 494 214 494 161 l 494 318 l 367 318 q 210 221 210 318 l 210 196 q 242 123 210 147 q 332 99 275 99 m 360 804 q 263 822 303 804 q 194 867 222 840 q 149 928 167 894 q 119 993 131 961 l 200 1039 l 229 994 q 285 933 256 954 q 360 911 315 911 q 434 933 404 911 q 490 994 464 954 l 519 1039 l 600 993 q 571 928 589 961 q 525 867 553 894 q 457 822 497 840 q 360 804 417 804 m 185 1221 l 307 1282 l 431 1033 l 344 990 l 185 1221 z "},"ẳ":{"ha":763,"x_min":56,"x_max":722,"o":"m 638 0 q 546 34 578 0 q 507 121 514 68 l 500 121 q 424 18 479 53 q 289 -17 368 -17 q 116 42 176 -17 q 56 199 56 100 q 134 361 56 307 q 364 415 213 415 l 494 415 l 494 476 q 458 579 494 543 q 346 615 422 615 q 242 588 282 615 q 174 517 201 560 l 83 599 q 185 699 119 660 q 356 739 250 739 q 571 674 496 739 q 646 486 646 608 l 646 124 l 722 124 l 722 0 l 638 0 m 332 99 q 449 130 403 99 q 494 214 494 161 l 494 318 l 367 318 q 210 221 210 318 l 210 196 q 242 123 210 147 q 332 99 275 99 m 360 804 q 263 822 303 804 q 194 867 222 840 q 149 928 167 894 q 119 993 131 961 l 200 1039 l 229 994 q 285 933 256 954 q 360 911 315 911 q 434 933 404 911 q 490 994 464 954 l 519 1039 l 600 993 q 571 928 589 961 q 525 867 553 894 q 457 822 497 840 q 360 804 417 804 m 211 1265 l 367 1265 q 456 1240 432 1265 q 481 1178 481 1214 q 460 1103 481 1143 q 406 1021 439 1063 l 371 978 l 296 1015 l 369 1158 l 211 1158 l 211 1265 z "},"ẵ":{"ha":763,"x_min":56,"x_max":722,"o":"m 638 0 q 546 34 578 0 q 507 121 514 68 l 500 121 q 424 18 479 53 q 289 -17 368 -17 q 116 42 176 -17 q 56 199 56 100 q 134 361 56 307 q 364 415 213 415 l 494 415 l 494 476 q 458 579 494 543 q 346 615 422 615 q 242 588 282 615 q 174 517 201 560 l 83 599 q 185 699 119 660 q 356 739 250 739 q 571 674 496 739 q 646 486 646 608 l 646 124 l 722 124 l 722 0 l 638 0 m 332 99 q 449 130 403 99 q 494 214 494 161 l 494 318 l 367 318 q 210 221 210 318 l 210 196 q 242 123 210 147 q 332 99 275 99 m 360 804 q 263 822 303 804 q 194 867 222 840 q 149 928 167 894 q 119 993 131 961 l 200 1039 l 229 994 q 285 933 256 954 q 360 911 315 911 q 434 933 404 911 q 490 994 464 954 l 519 1039 l 600 993 q 571 928 589 961 q 525 867 553 894 q 457 822 497 840 q 360 804 417 804 m 460 1082 q 401 1092 426 1082 q 353 1113 376 1101 q 297 1137 321 1128 q 251 1146 274 1146 q 210 1137 228 1146 q 171 1110 192 1128 l 117 1176 q 173 1232 138 1208 q 260 1256 208 1256 q 318 1245 293 1256 q 367 1224 343 1235 q 422 1200 399 1208 q 467 1192 446 1192 q 508 1201 490 1192 q 549 1228 526 1210 l 603 1163 q 546 1106 581 1131 q 460 1082 511 1082 z "},"ấ":{"ha":763,"x_min":56,"x_max":749,"o":"m 638 0 q 546 34 578 0 q 507 121 514 68 l 500 121 q 424 18 479 53 q 289 -17 368 -17 q 116 42 176 -17 q 56 199 56 100 q 134 361 56 307 q 364 415 213 415 l 494 415 l 494 476 q 458 579 494 543 q 346 615 422 615 q 242 588 282 615 q 174 517 201 560 l 83 599 q 185 699 119 660 q 356 739 250 739 q 571 674 496 739 q 646 486 646 608 l 646 124 l 722 124 l 722 0 l 638 0 m 332 99 q 449 130 403 99 q 494 214 494 161 l 494 318 l 367 318 q 210 221 210 318 l 210 196 q 242 123 210 147 q 332 99 275 99 m 585 990 l 499 1032 l 625 1282 l 749 1221 l 585 990 m 428 1056 l 601 863 l 528 800 l 360 951 l 192 800 l 118 863 l 292 1056 l 428 1056 z "},"ậ":{"ha":763,"x_min":56,"x_max":722,"o":"m 638 0 q 546 34 578 0 q 507 121 514 68 l 500 121 q 424 18 479 53 q 289 -17 368 -17 q 116 42 176 -17 q 56 199 56 100 q 134 361 56 307 q 364 415 213 415 l 494 415 l 494 476 q 458 579 494 543 q 346 615 422 615 q 242 588 282 615 q 174 517 201 560 l 83 599 q 185 699 119 660 q 356 739 250 739 q 571 674 496 739 q 646 486 646 608 l 646 124 l 722 124 l 722 0 l 638 0 m 332 99 q 449 130 403 99 q 494 214 494 161 l 494 318 l 367 318 q 210 221 210 318 l 210 196 q 242 123 210 147 q 332 99 275 99 m 438 1081 l 604 872 l 526 813 l 361 975 l 196 813 l 118 872 l 285 1081 l 438 1081 m 354 -256 q 286 -235 307 -256 q 265 -182 265 -214 l 265 -157 q 286 -104 265 -125 q 354 -83 307 -83 q 422 -104 401 -83 q 443 -157 443 -125 l 443 -182 q 422 -235 443 -214 q 354 -256 401 -256 z "},"ầ":{"ha":763,"x_min":-29,"x_max":722,"o":"m 638 0 q 546 34 578 0 q 507 121 514 68 l 500 121 q 424 18 479 53 q 289 -17 368 -17 q 116 42 176 -17 q 56 199 56 100 q 134 361 56 307 q 364 415 213 415 l 494 415 l 494 476 q 458 579 494 543 q 346 615 422 615 q 242 588 282 615 q 174 517 201 560 l 83 599 q 185 699 119 660 q 356 739 250 739 q 571 674 496 739 q 646 486 646 608 l 646 124 l 722 124 l 722 0 l 638 0 m 332 99 q 449 130 403 99 q 494 214 494 161 l 494 318 l 367 318 q 210 221 210 318 l 210 196 q 242 123 210 147 q 332 99 275 99 m -29 1221 l 94 1282 l 221 1032 l 135 990 l -29 1221 m 428 1056 l 601 863 l 528 800 l 360 951 l 192 800 l 118 863 l 292 1056 l 428 1056 z "},"ẩ":{"ha":763,"x_min":56,"x_max":722,"o":"m 638 0 q 546 34 578 0 q 507 121 514 68 l 500 121 q 424 18 479 53 q 289 -17 368 -17 q 116 42 176 -17 q 56 199 56 100 q 134 361 56 307 q 364 415 213 415 l 494 415 l 494 476 q 458 579 494 543 q 346 615 422 615 q 242 588 282 615 q 174 517 201 560 l 83 599 q 185 699 119 660 q 356 739 250 739 q 571 674 496 739 q 646 486 646 608 l 646 124 l 722 124 l 722 0 l 638 0 m 332 99 q 449 130 403 99 q 494 214 494 161 l 494 318 l 367 318 q 210 221 210 318 l 210 196 q 242 123 210 147 q 332 99 275 99 m 422 1265 l 589 1265 q 677 1240 651 1265 q 703 1178 703 1214 q 681 1103 703 1143 q 626 1021 658 1063 l 590 978 l 517 1017 l 590 1158 l 422 1158 l 422 1265 m 428 1056 l 601 863 l 528 800 l 360 951 l 192 800 l 118 863 l 292 1056 l 428 1056 z "},"ẫ":{"ha":763,"x_min":56,"x_max":722,"o":"m 638 0 q 546 34 578 0 q 507 121 514 68 l 500 121 q 424 18 479 53 q 289 -17 368 -17 q 116 42 176 -17 q 56 199 56 100 q 134 361 56 307 q 364 415 213 415 l 494 415 l 494 476 q 458 579 494 543 q 346 615 422 615 q 242 588 282 615 q 174 517 201 560 l 83 599 q 185 699 119 660 q 356 739 250 739 q 571 674 496 739 q 646 486 646 608 l 646 124 l 722 124 l 722 0 l 638 0 m 332 99 q 449 130 403 99 q 494 214 494 161 l 494 318 l 367 318 q 210 221 210 318 l 210 196 q 242 123 210 147 q 332 99 275 99 m 258 1261 q 318 1251 293 1261 q 367 1229 343 1240 q 423 1206 399 1214 q 469 1197 447 1197 q 511 1206 493 1197 q 550 1233 529 1215 l 604 1167 q 548 1111 583 1135 q 461 1088 513 1088 q 401 1098 426 1088 q 353 1119 376 1108 q 297 1143 321 1135 q 250 1151 272 1151 q 208 1142 226 1151 q 169 1115 190 1133 l 115 1182 q 172 1238 136 1214 q 258 1261 207 1261 m 428 1049 l 600 863 l 528 800 l 360 946 l 192 800 l 119 863 l 292 1049 l 428 1049 z "},"æ":{"ha":1201,"x_min":56,"x_max":1142,"o":"m 367 322 q 210 224 210 319 l 210 199 q 242 124 210 150 q 335 99 275 99 q 448 130 401 99 q 494 214 494 161 l 494 322 l 367 322 m 982 422 l 982 436 q 939 570 982 519 q 821 621 896 621 q 749 607 782 621 q 694 568 717 593 q 658 508 671 543 q 646 432 646 474 l 646 422 l 982 422 m 839 108 q 952 138 906 108 q 1028 215 999 167 l 1117 129 q 1002 23 1076 63 q 832 -17 928 -17 q 731 -3 778 -17 q 649 33 685 11 q 591 83 614 56 q 558 136 568 110 l 550 136 q 523 84 543 111 q 471 35 503 57 q 393 -2 439 13 q 289 -17 347 -17 q 117 43 179 -17 q 56 199 56 103 q 136 365 56 308 q 364 422 217 422 l 494 422 l 494 476 q 458 579 494 543 q 347 615 422 615 q 241 588 281 615 q 174 518 201 561 l 83 599 q 185 699 119 660 q 356 739 250 739 q 442 726 406 739 q 503 694 478 714 q 545 651 529 675 q 572 603 561 626 l 581 603 q 614 652 592 628 q 667 696 636 676 q 740 727 699 715 q 829 739 781 739 q 965 711 907 739 q 1063 634 1024 683 q 1122 519 1103 585 q 1142 379 1142 454 l 1142 322 l 646 322 l 646 299 q 697 162 646 215 q 839 108 747 108 z "},"ǽ":{"ha":1201,"x_min":56,"x_max":1142,"o":"m 367 322 q 210 224 210 319 l 210 199 q 242 124 210 150 q 335 99 275 99 q 448 130 401 99 q 494 214 494 161 l 494 322 l 367 322 m 982 422 l 982 436 q 939 570 982 519 q 821 621 896 621 q 749 607 782 621 q 694 568 717 593 q 658 508 671 543 q 646 432 646 474 l 646 422 l 982 422 m 839 108 q 952 138 906 108 q 1028 215 999 167 l 1117 129 q 1002 23 1076 63 q 832 -17 928 -17 q 731 -3 778 -17 q 649 33 685 11 q 591 83 614 56 q 558 136 568 110 l 550 136 q 523 84 543 111 q 471 35 503 57 q 393 -2 439 13 q 289 -17 347 -17 q 117 43 179 -17 q 56 199 56 103 q 136 365 56 308 q 364 422 217 422 l 494 422 l 494 476 q 458 579 494 543 q 347 615 422 615 q 241 588 281 615 q 174 518 201 561 l 83 599 q 185 699 119 660 q 356 739 250 739 q 442 726 406 739 q 503 694 478 714 q 545 651 529 675 q 572 603 561 626 l 581 603 q 614 652 592 628 q 667 696 636 676 q 740 727 699 715 q 829 739 781 739 q 965 711 907 739 q 1063 634 1024 683 q 1122 519 1103 585 q 1142 379 1142 454 l 1142 322 l 646 322 l 646 299 q 697 162 646 215 q 839 108 747 108 m 601 808 l 507 854 l 633 1104 l 765 1040 l 601 808 z "},"ć":{"ha":708,"x_min":60,"x_max":672,"o":"m 388 -17 q 249 10 310 -17 q 146 85 188 36 q 82 205 104 135 q 60 361 60 275 q 82 517 60 447 q 146 637 104 588 q 249 713 188 686 q 388 739 310 739 q 565 690 496 739 q 667 561 635 642 l 542 503 q 488 583 526 553 q 388 613 450 613 q 262 560 304 613 q 219 425 219 508 l 219 296 q 262 160 219 213 q 388 108 304 108 q 494 141 454 108 q 557 228 533 174 l 672 167 q 564 31 636 78 q 388 -17 492 -17 m 400 808 l 306 854 l 432 1104 l 564 1040 l 400 808 z "},"č":{"ha":708,"x_min":60,"x_max":672,"o":"m 388 -17 q 249 10 310 -17 q 146 85 188 36 q 82 205 104 135 q 60 361 60 275 q 82 517 60 447 q 146 637 104 588 q 249 713 188 686 q 388 739 310 739 q 565 690 496 739 q 667 561 635 642 l 542 503 q 488 583 526 553 q 388 613 450 613 q 262 560 304 613 q 219 425 219 508 l 219 296 q 262 160 219 213 q 388 108 304 108 q 494 141 454 108 q 557 228 533 174 l 672 167 q 564 31 636 78 q 388 -17 492 -17 m 308 825 l 142 1033 l 219 1092 l 385 931 l 550 1092 l 628 1033 l 461 825 l 308 825 z "},"ç":{"ha":708,"x_min":60,"x_max":672,"o":"m 388 739 q 565 690 496 739 q 667 561 635 642 l 542 503 q 488 583 526 553 q 388 613 450 613 q 262 560 304 613 q 219 425 219 508 l 219 296 q 262 160 219 213 q 388 108 304 108 q 494 141 454 108 q 557 228 533 174 l 672 167 q 573 37 639 83 q 411 -17 507 -10 l 399 -81 l 403 -86 q 433 -79 418 -82 q 463 -76 447 -76 q 531 -99 503 -76 q 560 -171 560 -122 q 546 -225 560 -203 q 509 -262 532 -247 q 456 -283 486 -276 q 393 -290 426 -290 q 294 -271 331 -290 q 240 -232 257 -251 l 299 -165 q 333 -194 311 -182 q 386 -206 354 -206 q 430 -196 413 -206 q 447 -165 447 -186 q 428 -133 447 -149 q 349 -110 408 -117 l 314 -106 l 332 -12 q 131 104 201 6 q 60 361 60 203 q 82 517 60 447 q 146 637 104 588 q 249 713 188 686 q 388 739 310 739 z "},"ĉ":{"ha":708,"x_min":60,"x_max":672,"o":"m 388 -17 q 249 10 310 -17 q 146 85 188 36 q 82 205 104 135 q 60 361 60 275 q 82 517 60 447 q 146 637 104 588 q 249 713 188 686 q 388 739 310 739 q 565 690 496 739 q 667 561 635 642 l 542 503 q 488 583 526 553 q 388 613 450 613 q 262 560 304 613 q 219 425 219 508 l 219 296 q 262 160 219 213 q 388 108 304 108 q 494 141 454 108 q 557 228 533 174 l 672 167 q 564 31 636 78 q 388 -17 492 -17 m 461 1081 l 628 872 l 550 813 l 385 975 l 219 813 l 142 872 l 308 1081 l 461 1081 z "},"ċ":{"ha":708,"x_min":60,"x_max":672,"o":"m 388 -17 q 249 10 310 -17 q 146 85 188 36 q 82 205 104 135 q 60 361 60 275 q 82 517 60 447 q 146 637 104 588 q 249 713 188 686 q 388 739 310 739 q 565 690 496 739 q 667 561 635 642 l 542 503 q 488 583 526 553 q 388 613 450 613 q 262 560 304 613 q 219 425 219 508 l 219 296 q 262 160 219 213 q 388 108 304 108 q 494 141 454 108 q 557 228 533 174 l 672 167 q 564 31 636 78 q 388 -17 492 -17 m 385 840 q 313 863 335 840 q 292 919 292 885 l 292 944 q 313 1001 292 979 q 385 1024 335 1024 q 456 1001 435 1024 q 478 944 478 979 l 478 919 q 456 863 478 885 q 385 840 435 840 z "},"ď":{"ha":883,"x_min":65,"x_max":972,"o":"m 892 753 l 792 753 l 806 1028 l 972 1028 l 892 753 m 563 119 l 556 119 q 478 19 532 56 q 353 -17 425 -17 q 140 83 215 -17 q 65 361 65 182 q 140 640 65 540 q 353 739 215 739 q 478 703 425 739 q 556 603 532 668 l 563 603 l 563 1028 l 714 1028 l 714 0 l 563 0 l 563 119 m 399 114 q 515 148 468 114 q 563 238 563 182 l 563 485 q 515 574 563 540 q 399 608 468 608 q 272 558 319 608 q 225 424 225 507 l 225 299 q 272 165 225 215 q 399 114 319 114 z "},"đ":{"ha":822,"x_min":65,"x_max":801,"o":"m 563 119 l 556 119 q 478 19 532 56 q 353 -17 425 -17 q 140 83 215 -17 q 65 361 65 182 q 140 640 65 540 q 353 739 215 739 q 478 703 425 739 q 556 603 532 668 l 563 603 l 563 833 l 360 833 l 360 943 l 563 943 l 563 1028 l 714 1028 l 714 943 l 801 943 l 801 833 l 714 833 l 714 0 l 563 0 l 563 119 m 399 114 q 515 148 468 114 q 563 238 563 182 l 563 485 q 515 574 563 540 q 399 608 468 608 q 272 558 319 608 q 225 424 225 507 l 225 299 q 272 165 225 215 q 399 114 319 114 z "},"ð":{"ha":797,"x_min":61,"x_max":729,"o":"m 615 978 l 510 907 q 596 803 556 860 q 666 681 636 747 q 713 540 696 615 q 729 381 729 465 q 705 205 729 279 q 637 81 681 131 q 532 8 593 32 q 397 -17 471 -17 q 256 9 318 -17 q 151 83 194 35 q 84 197 107 131 q 61 346 61 264 q 82 490 61 425 q 142 600 103 554 q 236 672 181 646 q 360 697 292 697 q 481 661 432 697 q 556 561 529 625 l 564 565 q 503 706 547 639 q 396 833 458 774 l 279 758 l 225 826 l 328 894 q 231 965 281 932 q 129 1028 181 999 l 361 1028 q 401 1001 381 1015 q 443 968 422 986 l 560 1046 l 615 978 m 396 104 q 523 155 475 104 q 571 297 571 206 l 571 383 q 523 526 571 475 q 396 576 475 576 q 269 526 317 576 q 221 383 221 475 l 221 297 q 269 155 221 206 q 396 104 317 104 z "},"é":{"ha":772,"x_min":60,"x_max":713,"o":"m 392 -17 q 253 10 314 -17 q 149 85 192 36 q 83 205 106 135 q 60 361 60 275 q 83 517 60 447 q 149 637 106 588 q 253 713 192 686 q 392 739 314 739 q 531 711 471 739 q 632 634 592 683 q 692 519 672 585 q 713 379 713 454 l 713 322 l 217 322 l 217 299 q 266 162 217 215 q 407 108 315 108 q 519 138 474 108 q 597 217 565 167 l 686 129 q 569 23 646 63 q 392 -17 493 -17 m 392 621 q 320 607 353 621 q 265 568 288 593 q 229 508 242 543 q 217 432 217 474 l 217 422 l 553 422 l 553 436 q 510 570 553 519 q 392 621 467 621 m 410 808 l 315 854 l 442 1104 l 574 1040 l 410 808 z "},"ĕ":{"ha":772,"x_min":60,"x_max":713,"o":"m 392 -17 q 253 10 314 -17 q 149 85 192 36 q 83 205 106 135 q 60 361 60 275 q 83 517 60 447 q 149 637 106 588 q 253 713 192 686 q 392 739 314 739 q 531 711 471 739 q 632 634 592 683 q 692 519 672 585 q 713 379 713 454 l 713 322 l 217 322 l 217 299 q 266 162 217 215 q 407 108 315 108 q 519 138 474 108 q 597 217 565 167 l 686 129 q 569 23 646 63 q 392 -17 493 -17 m 392 621 q 320 607 353 621 q 265 568 288 593 q 229 508 242 543 q 217 432 217 474 l 217 422 l 553 422 l 553 436 q 510 570 553 519 q 392 621 467 621 m 393 818 q 295 838 335 818 q 229 886 256 857 q 187 951 203 915 q 160 1018 171 986 l 243 1060 l 272 1014 q 322 952 296 975 q 393 929 347 929 q 465 952 439 929 q 514 1014 490 975 l 543 1060 l 626 1018 q 599 951 615 986 q 557 886 583 915 q 491 838 531 857 q 393 818 451 818 z "},"ě":{"ha":772,"x_min":60,"x_max":713,"o":"m 392 -17 q 253 10 314 -17 q 149 85 192 36 q 83 205 106 135 q 60 361 60 275 q 83 517 60 447 q 149 637 106 588 q 253 713 192 686 q 392 739 314 739 q 531 711 471 739 q 632 634 592 683 q 692 519 672 585 q 713 379 713 454 l 713 322 l 217 322 l 217 299 q 266 162 217 215 q 407 108 315 108 q 519 138 474 108 q 597 217 565 167 l 686 129 q 569 23 646 63 q 392 -17 493 -17 m 392 621 q 320 607 353 621 q 265 568 288 593 q 229 508 242 543 q 217 432 217 474 l 217 422 l 553 422 l 553 436 q 510 570 553 519 q 392 621 467 621 m 318 825 l 151 1033 l 229 1092 l 394 931 l 560 1092 l 638 1033 l 471 825 l 318 825 z "},"ê":{"ha":772,"x_min":60,"x_max":713,"o":"m 392 -17 q 253 10 314 -17 q 149 85 192 36 q 83 205 106 135 q 60 361 60 275 q 83 517 60 447 q 149 637 106 588 q 253 713 192 686 q 392 739 314 739 q 531 711 471 739 q 632 634 592 683 q 692 519 672 585 q 713 379 713 454 l 713 322 l 217 322 l 217 299 q 266 162 217 215 q 407 108 315 108 q 519 138 474 108 q 597 217 565 167 l 686 129 q 569 23 646 63 q 392 -17 493 -17 m 392 621 q 320 607 353 621 q 265 568 288 593 q 229 508 242 543 q 217 432 217 474 l 217 422 l 553 422 l 553 436 q 510 570 553 519 q 392 621 467 621 m 471 1081 l 638 872 l 560 813 l 394 975 l 229 813 l 151 872 l 318 1081 l 471 1081 z "},"ë":{"ha":772,"x_min":60,"x_max":713,"o":"m 392 -17 q 253 10 314 -17 q 149 85 192 36 q 83 205 106 135 q 60 361 60 275 q 83 517 60 447 q 149 637 106 588 q 253 713 192 686 q 392 739 314 739 q 531 711 471 739 q 632 634 592 683 q 692 519 672 585 q 713 379 713 454 l 713 322 l 217 322 l 217 299 q 266 162 217 215 q 407 108 315 108 q 519 138 474 108 q 597 217 565 167 l 686 129 q 569 23 646 63 q 392 -17 493 -17 m 392 621 q 320 607 353 621 q 265 568 288 593 q 229 508 242 543 q 217 432 217 474 l 217 422 l 553 422 l 553 436 q 510 570 553 519 q 392 621 467 621 m 256 847 q 189 868 208 847 q 169 921 169 889 l 169 946 q 189 999 169 978 q 256 1019 208 1019 q 322 999 303 1019 q 342 946 342 978 l 342 921 q 322 868 342 889 q 256 847 303 847 m 533 847 q 467 868 486 847 q 447 921 447 889 l 447 946 q 467 999 447 978 q 533 1019 486 1019 q 600 999 581 1019 q 619 946 619 978 l 619 921 q 600 868 619 889 q 533 847 581 847 z "},"ė":{"ha":772,"x_min":60,"x_max":713,"o":"m 392 -17 q 253 10 314 -17 q 149 85 192 36 q 83 205 106 135 q 60 361 60 275 q 83 517 60 447 q 149 637 106 588 q 253 713 192 686 q 392 739 314 739 q 531 711 471 739 q 632 634 592 683 q 692 519 672 585 q 713 379 713 454 l 713 322 l 217 322 l 217 299 q 266 162 217 215 q 407 108 315 108 q 519 138 474 108 q 597 217 565 167 l 686 129 q 569 23 646 63 q 392 -17 493 -17 m 392 621 q 320 607 353 621 q 265 568 288 593 q 229 508 242 543 q 217 432 217 474 l 217 422 l 553 422 l 553 436 q 510 570 553 519 q 392 621 467 621 m 394 840 q 323 863 344 840 q 301 919 301 885 l 301 944 q 323 1001 301 979 q 394 1024 344 1024 q 466 1001 444 1024 q 488 944 488 979 l 488 919 q 466 863 488 885 q 394 840 444 840 z "},"ẹ":{"ha":772,"x_min":60,"x_max":713,"o":"m 392 -17 q 253 10 314 -17 q 149 85 192 36 q 83 205 106 135 q 60 361 60 275 q 83 517 60 447 q 149 637 106 588 q 253 713 192 686 q 392 739 314 739 q 531 711 471 739 q 632 634 592 683 q 692 519 672 585 q 713 379 713 454 l 713 322 l 217 322 l 217 299 q 266 162 217 215 q 407 108 315 108 q 519 138 474 108 q 597 217 565 167 l 686 129 q 569 23 646 63 q 392 -17 493 -17 m 392 621 q 320 607 353 621 q 265 568 288 593 q 229 508 242 543 q 217 432 217 474 l 217 422 l 553 422 l 553 436 q 510 570 553 519 q 392 621 467 621 m 393 -256 q 325 -235 346 -256 q 304 -182 304 -214 l 304 -157 q 325 -104 304 -125 q 393 -83 346 -83 q 461 -104 440 -83 q 482 -157 482 -125 l 482 -182 q 461 -235 482 -214 q 393 -256 440 -256 z "},"è":{"ha":772,"x_min":60,"x_max":713,"o":"m 392 -17 q 253 10 314 -17 q 149 85 192 36 q 83 205 106 135 q 60 361 60 275 q 83 517 60 447 q 149 637 106 588 q 253 713 192 686 q 392 739 314 739 q 531 711 471 739 q 632 634 592 683 q 692 519 672 585 q 713 379 713 454 l 713 322 l 217 322 l 217 299 q 266 162 217 215 q 407 108 315 108 q 519 138 474 108 q 597 217 565 167 l 686 129 q 569 23 646 63 q 392 -17 493 -17 m 392 621 q 320 607 353 621 q 265 568 288 593 q 229 508 242 543 q 217 432 217 474 l 217 422 l 553 422 l 553 436 q 510 570 553 519 q 392 621 467 621 m 215 1040 l 347 1104 l 474 854 l 379 808 l 215 1040 z "},"ẻ":{"ha":772,"x_min":60,"x_max":713,"o":"m 392 -17 q 253 10 314 -17 q 149 85 192 36 q 83 205 106 135 q 60 361 60 275 q 83 517 60 447 q 149 637 106 588 q 253 713 192 686 q 392 739 314 739 q 531 711 471 739 q 632 634 592 683 q 692 519 672 585 q 713 379 713 454 l 713 322 l 217 322 l 217 299 q 266 162 217 215 q 407 108 315 108 q 519 138 474 108 q 597 217 565 167 l 686 129 q 569 23 646 63 q 392 -17 493 -17 m 392 621 q 320 607 353 621 q 265 568 288 593 q 229 508 242 543 q 217 432 217 474 l 217 422 l 553 422 l 553 436 q 510 570 553 519 q 392 621 467 621 m 256 1085 l 426 1085 q 515 1059 490 1085 q 540 997 540 1033 q 521 922 540 963 q 468 840 501 882 l 432 797 l 351 836 l 421 974 l 256 974 l 256 1085 z "},"ē":{"ha":772,"x_min":60,"x_max":713,"o":"m 392 -17 q 253 10 314 -17 q 149 85 192 36 q 83 205 106 135 q 60 361 60 275 q 83 517 60 447 q 149 637 106 588 q 253 713 192 686 q 392 739 314 739 q 531 711 471 739 q 632 634 592 683 q 692 519 672 585 q 713 379 713 454 l 713 322 l 217 322 l 217 299 q 266 162 217 215 q 407 108 315 108 q 519 138 474 108 q 597 217 565 167 l 686 129 q 569 23 646 63 q 392 -17 493 -17 m 392 621 q 320 607 353 621 q 265 568 288 593 q 229 508 242 543 q 217 432 217 474 l 217 422 l 553 422 l 553 436 q 510 570 553 519 q 392 621 467 621 m 192 992 l 597 992 l 597 876 l 192 876 l 192 992 z "},"ę":{"ha":771,"x_min":60,"x_max":711,"o":"m 482 -290 q 426 -284 453 -290 q 378 -265 399 -278 q 347 -231 358 -251 q 335 -179 335 -210 q 347 -124 335 -149 q 380 -79 360 -100 q 427 -41 400 -58 q 483 -7 454 -24 l 481 -1 q 440 -12 461 -8 q 390 -17 418 -17 q 251 10 313 -17 q 148 85 190 36 q 83 205 106 135 q 60 361 60 275 q 82 517 60 447 q 147 635 104 586 q 251 712 190 685 q 389 739 311 739 q 530 711 469 739 q 631 634 590 683 q 691 519 671 585 q 711 379 711 454 l 711 322 l 217 322 l 217 299 q 265 162 217 215 q 408 108 314 108 q 521 138 474 108 q 597 215 568 167 l 686 129 q 651 88 672 108 q 596 36 631 67 q 544 -13 571 11 q 496 -62 518 -37 q 459 -110 474 -86 q 444 -160 444 -135 q 458 -194 444 -183 q 492 -204 472 -204 q 531 -194 513 -204 q 563 -168 549 -183 l 624 -229 q 574 -274 608 -257 q 482 -290 539 -290 m 551 422 l 551 436 q 509 570 551 519 q 390 621 467 621 q 264 568 311 621 q 217 432 217 515 l 217 422 l 551 422 z "},"ẽ":{"ha":772,"x_min":60,"x_max":713,"o":"m 392 -17 q 253 10 314 -17 q 149 85 192 36 q 83 205 106 135 q 60 361 60 275 q 83 517 60 447 q 149 637 106 588 q 253 713 192 686 q 392 739 314 739 q 531 711 471 739 q 632 634 592 683 q 692 519 672 585 q 713 379 713 454 l 713 322 l 217 322 l 217 299 q 266 162 217 215 q 407 108 315 108 q 519 138 474 108 q 597 217 565 167 l 686 129 q 569 23 646 63 q 392 -17 493 -17 m 392 621 q 320 607 353 621 q 265 568 288 593 q 229 508 242 543 q 217 432 217 474 l 217 422 l 553 422 l 553 436 q 510 570 553 519 q 392 621 467 621 m 497 843 q 438 854 463 843 q 389 876 413 865 q 333 901 357 892 q 286 910 308 910 q 244 900 263 910 q 206 872 226 890 l 149 944 q 205 1001 169 976 q 292 1025 240 1025 q 351 1014 326 1025 q 400 992 376 1003 q 456 967 432 976 q 503 958 481 958 q 544 968 526 958 q 583 996 563 978 l 640 924 q 584 867 619 892 q 497 843 549 843 z "},"ế":{"ha":772,"x_min":60,"x_max":782,"o":"m 392 -17 q 253 10 314 -17 q 149 85 192 36 q 83 205 106 135 q 60 361 60 275 q 83 517 60 447 q 149 637 106 588 q 253 713 192 686 q 392 739 314 739 q 531 711 471 739 q 632 634 592 683 q 692 519 672 585 q 713 379 713 454 l 713 322 l 217 322 l 217 299 q 266 162 217 215 q 407 108 315 108 q 519 138 474 108 q 597 217 565 167 l 686 129 q 569 23 646 63 q 392 -17 493 -17 m 392 621 q 320 607 353 621 q 265 568 288 593 q 229 508 242 543 q 217 432 217 474 l 217 422 l 553 422 l 553 436 q 510 570 553 519 q 392 621 467 621 m 618 990 l 532 1032 l 658 1282 l 782 1221 l 618 990 m 461 1056 l 635 863 l 561 800 l 393 951 l 225 800 l 151 863 l 325 1056 l 461 1056 z "},"ệ":{"ha":772,"x_min":60,"x_max":713,"o":"m 392 -17 q 253 10 314 -17 q 149 85 192 36 q 83 205 106 135 q 60 361 60 275 q 83 517 60 447 q 149 637 106 588 q 253 713 192 686 q 392 739 314 739 q 531 711 471 739 q 632 634 592 683 q 692 519 672 585 q 713 379 713 454 l 713 322 l 217 322 l 217 299 q 266 162 217 215 q 407 108 315 108 q 519 138 474 108 q 597 217 565 167 l 686 129 q 569 23 646 63 q 392 -17 493 -17 m 392 621 q 320 607 353 621 q 265 568 288 593 q 229 508 242 543 q 217 432 217 474 l 217 422 l 553 422 l 553 436 q 510 570 553 519 q 392 621 467 621 m 471 1081 l 638 872 l 560 813 l 394 975 l 229 813 l 151 872 l 318 1081 l 471 1081 m 393 -256 q 325 -235 346 -256 q 304 -182 304 -214 l 304 -157 q 325 -104 304 -125 q 393 -83 346 -83 q 461 -104 440 -83 q 482 -157 482 -125 l 482 -182 q 461 -235 482 -214 q 393 -256 440 -256 z "},"ề":{"ha":772,"x_min":4,"x_max":713,"o":"m 392 -17 q 253 10 314 -17 q 149 85 192 36 q 83 205 106 135 q 60 361 60 275 q 83 517 60 447 q 149 637 106 588 q 253 713 192 686 q 392 739 314 739 q 531 711 471 739 q 632 634 592 683 q 692 519 672 585 q 713 379 713 454 l 713 322 l 217 322 l 217 299 q 266 162 217 215 q 407 108 315 108 q 519 138 474 108 q 597 217 565 167 l 686 129 q 569 23 646 63 q 392 -17 493 -17 m 392 621 q 320 607 353 621 q 265 568 288 593 q 229 508 242 543 q 217 432 217 474 l 217 422 l 553 422 l 553 436 q 510 570 553 519 q 392 621 467 621 m 4 1221 l 128 1282 l 254 1032 l 168 990 l 4 1221 m 461 1056 l 635 863 l 561 800 l 393 951 l 225 800 l 151 863 l 325 1056 l 461 1056 z "},"ể":{"ha":772,"x_min":60,"x_max":736,"o":"m 392 -17 q 253 10 314 -17 q 149 85 192 36 q 83 205 106 135 q 60 361 60 275 q 83 517 60 447 q 149 637 106 588 q 253 713 192 686 q 392 739 314 739 q 531 711 471 739 q 632 634 592 683 q 692 519 672 585 q 713 379 713 454 l 713 322 l 217 322 l 217 299 q 266 162 217 215 q 407 108 315 108 q 519 138 474 108 q 597 217 565 167 l 686 129 q 569 23 646 63 q 392 -17 493 -17 m 392 621 q 320 607 353 621 q 265 568 288 593 q 229 508 242 543 q 217 432 217 474 l 217 422 l 553 422 l 553 436 q 510 570 553 519 q 392 621 467 621 m 456 1265 l 622 1265 q 710 1240 685 1265 q 736 1178 736 1214 q 714 1103 736 1143 q 660 1021 692 1063 l 624 978 l 550 1017 l 624 1158 l 456 1158 l 456 1265 m 461 1056 l 635 863 l 561 800 l 393 951 l 225 800 l 151 863 l 325 1056 l 461 1056 z "},"ễ":{"ha":772,"x_min":60,"x_max":713,"o":"m 392 -17 q 253 10 314 -17 q 149 85 192 36 q 83 205 106 135 q 60 361 60 275 q 83 517 60 447 q 149 637 106 588 q 253 713 192 686 q 392 739 314 739 q 531 711 471 739 q 632 634 592 683 q 692 519 672 585 q 713 379 713 454 l 713 322 l 217 322 l 217 299 q 266 162 217 215 q 407 108 315 108 q 519 138 474 108 q 597 217 565 167 l 686 129 q 569 23 646 63 q 392 -17 493 -17 m 392 621 q 320 607 353 621 q 265 568 288 593 q 229 508 242 543 q 217 432 217 474 l 217 422 l 553 422 l 553 436 q 510 570 553 519 q 392 621 467 621 m 292 1261 q 351 1251 326 1261 q 400 1229 376 1240 q 456 1206 432 1214 q 503 1197 481 1197 q 544 1206 526 1197 q 583 1233 563 1215 l 638 1167 q 581 1111 617 1135 q 494 1088 546 1088 q 435 1098 460 1088 q 386 1119 410 1108 q 330 1143 354 1135 q 283 1151 306 1151 q 242 1142 260 1151 q 203 1115 224 1133 l 149 1182 q 205 1238 169 1214 q 292 1261 240 1261 m 461 1049 l 633 863 l 561 800 l 393 946 l 225 800 l 153 863 l 325 1049 l 461 1049 z "},"ə":{"ha":772,"x_min":60,"x_max":713,"o":"m 556 400 l 556 424 q 508 560 556 507 q 368 614 460 614 q 253 583 299 614 q 181 506 208 553 l 90 593 q 206 699 131 660 q 382 739 282 739 q 520 713 458 739 q 624 637 582 686 q 690 517 667 588 q 713 361 713 447 q 690 205 713 275 q 624 85 667 135 q 520 10 582 36 q 382 -17 458 -17 q 242 11 303 -17 q 141 88 182 39 q 80 203 100 138 q 60 343 60 268 l 60 400 l 556 400 m 218 286 q 261 152 218 203 q 381 101 304 101 q 452 115 419 101 q 508 154 485 129 q 543 214 531 179 q 556 290 556 249 l 556 300 l 218 300 l 218 286 z "},"ğ":{"ha":754,"x_min":47,"x_max":742,"o":"m 374 818 q 276 838 315 818 q 210 886 236 857 q 167 951 183 915 q 140 1018 151 986 l 224 1060 l 253 1014 q 302 952 276 975 q 374 929 328 929 q 445 952 419 929 q 494 1014 471 975 l 524 1060 l 607 1018 q 580 951 596 986 q 538 886 564 915 q 472 838 511 857 q 374 818 432 818 m 742 -68 q 656 -237 742 -181 q 375 -294 569 -294 q 224 -283 286 -294 q 123 -249 163 -271 q 65 -194 83 -226 q 47 -121 47 -162 q 80 -28 47 -61 q 171 18 113 6 l 171 33 q 89 144 89 60 q 127 231 89 201 q 218 272 165 260 l 218 278 q 119 363 153 308 q 85 492 85 418 q 160 671 85 603 q 372 739 235 739 q 493 722 439 739 l 725 722 l 725 613 l 624 613 q 663 492 663 563 q 588 315 663 382 q 374 247 513 247 q 279 258 324 247 q 231 231 251 249 q 210 186 210 214 q 236 144 210 157 q 311 132 263 132 l 489 132 q 682 78 622 132 q 742 -68 742 25 m 374 357 q 477 387 440 357 q 514 479 514 417 l 514 507 q 477 599 514 569 q 374 629 440 629 q 270 599 307 629 q 233 507 233 569 l 233 479 q 270 387 233 417 q 374 357 307 357 m 600 -85 q 572 -25 600 -47 q 468 -3 543 -3 l 224 -3 q 174 -86 174 -32 q 209 -158 174 -131 q 329 -185 244 -185 l 424 -185 q 600 -85 600 -185 z "},"ĝ":{"ha":754,"x_min":47,"x_max":742,"o":"m 451 1081 l 618 872 l 540 813 l 375 975 l 210 813 l 132 872 l 299 1081 l 451 1081 m 742 -68 q 656 -237 742 -181 q 375 -294 569 -294 q 224 -283 286 -294 q 123 -249 163 -271 q 65 -194 83 -226 q 47 -121 47 -162 q 80 -28 47 -61 q 171 18 113 6 l 171 33 q 89 144 89 60 q 127 231 89 201 q 218 272 165 260 l 218 278 q 119 363 153 308 q 85 492 85 418 q 160 671 85 603 q 372 739 235 739 q 493 722 439 739 l 725 722 l 725 613 l 624 613 q 663 492 663 563 q 588 315 663 382 q 374 247 513 247 q 279 258 324 247 q 231 231 251 249 q 210 186 210 214 q 236 144 210 157 q 311 132 263 132 l 489 132 q 682 78 622 132 q 742 -68 742 25 m 374 357 q 477 387 440 357 q 514 479 514 417 l 514 507 q 477 599 514 569 q 374 629 440 629 q 270 599 307 629 q 233 507 233 569 l 233 479 q 270 387 233 417 q 374 357 307 357 m 600 -85 q 572 -25 600 -47 q 468 -3 543 -3 l 224 -3 q 174 -86 174 -32 q 209 -158 174 -131 q 329 -185 244 -185 l 424 -185 q 600 -85 600 -185 z "},"ģ":{"ha":746,"x_min":47,"x_max":742,"o":"m 742 -68 q 656 -237 742 -181 q 375 -294 569 -294 q 224 -283 286 -294 q 123 -249 163 -271 q 65 -194 83 -226 q 47 -121 47 -162 q 80 -28 47 -61 q 171 18 113 6 l 171 33 q 89 144 89 60 q 126 230 89 200 q 217 272 164 260 l 217 278 q 119 363 153 308 q 85 492 85 418 q 159 671 85 603 q 372 739 233 739 q 503 717 449 739 l 503 736 q 526 812 503 785 q 597 839 549 839 l 708 839 l 708 717 l 561 717 l 561 688 q 636 605 610 656 q 663 492 663 554 q 588 315 663 382 q 374 247 513 247 q 279 258 321 247 q 231 231 251 249 q 210 186 210 214 q 236 144 210 157 q 311 132 263 132 l 489 132 q 682 78 622 132 q 742 -68 742 25 m 600 -85 q 572 -25 600 -47 q 468 -3 543 -3 l 224 -3 q 174 -86 174 -32 q 209 -158 174 -131 q 329 -185 244 -185 l 424 -185 q 600 -85 600 -185 m 374 357 q 477 387 440 357 q 514 479 514 417 l 514 507 q 477 599 514 569 q 374 629 440 629 q 270 599 307 629 q 233 507 233 569 l 233 479 q 270 387 233 417 q 374 357 307 357 m 375 815 q 314 835 335 815 q 293 889 293 854 l 293 907 q 319 1013 293 963 q 381 1096 344 1064 l 476 1096 q 427 1039 444 1067 q 400 975 410 1011 q 444 951 431 971 q 457 904 457 931 l 457 889 q 436 835 457 854 q 375 815 415 815 z "},"ġ":{"ha":746,"x_min":47,"x_max":742,"o":"m 742 -68 q 656 -237 742 -181 q 375 -294 569 -294 q 224 -283 286 -294 q 123 -249 163 -271 q 65 -194 83 -226 q 47 -121 47 -162 q 80 -28 47 -61 q 171 18 113 6 l 171 33 q 89 144 89 60 q 126 230 89 200 q 217 272 164 260 l 217 278 q 119 363 153 308 q 85 492 85 418 q 159 671 85 603 q 372 739 233 739 q 503 717 449 739 l 503 736 q 526 812 503 785 q 597 839 549 839 l 708 839 l 708 717 l 561 717 l 561 688 q 636 605 610 656 q 663 492 663 554 q 588 315 663 382 q 374 247 513 247 q 279 258 321 247 q 231 231 251 249 q 210 186 210 214 q 236 144 210 157 q 311 132 263 132 l 489 132 q 682 78 622 132 q 742 -68 742 25 m 600 -85 q 572 -25 600 -47 q 468 -3 543 -3 l 224 -3 q 174 -86 174 -32 q 209 -158 174 -131 q 329 -185 244 -185 l 424 -185 q 600 -85 600 -185 m 374 357 q 477 387 440 357 q 514 479 514 417 l 514 507 q 477 599 514 569 q 374 629 440 629 q 270 599 307 629 q 233 507 233 569 l 233 479 q 270 387 233 417 q 374 357 307 357 m 375 840 q 303 863 325 840 q 282 919 282 885 l 282 944 q 303 1001 282 979 q 375 1024 325 1024 q 447 1001 425 1024 q 468 944 468 979 l 468 919 q 447 863 468 885 q 375 840 425 840 z "},"ħ":{"ha":806,"x_min":21,"x_max":704,"o":"m 108 0 l 108 833 l 21 833 l 21 943 l 108 943 l 108 1028 l 260 1028 l 260 943 l 463 943 l 463 833 l 260 833 l 260 603 l 267 603 q 338 700 290 661 q 469 739 386 739 q 643 666 582 739 q 704 458 704 593 l 704 0 l 553 0 l 553 440 q 417 608 553 608 q 359 601 388 608 q 308 578 331 593 q 273 539 286 563 q 260 485 260 515 l 260 0 l 108 0 z "},"ĥ":{"ha":806,"x_min":-56,"x_max":704,"o":"m 108 1028 l 260 1028 l 260 603 l 267 603 q 338 700 290 661 q 469 739 386 739 q 642 666 581 739 q 704 458 704 593 l 704 0 l 553 0 l 553 440 q 417 608 553 608 q 359 601 388 608 q 308 578 331 593 q 273 539 286 563 q 260 485 260 515 l 260 0 l 108 0 l 108 1028 m 264 1300 l 431 1092 l 353 1032 l 188 1194 l 22 1032 l -56 1092 l 111 1300 l 264 1300 z "},"ı":{"ha":368,"x_min":108,"x_max":260,"o":"m 108 0 l 108 722 l 260 722 l 260 0 l 108 0 z "},"í":{"ha":368,"x_min":107,"x_max":365,"o":"m 108 0 l 108 722 l 260 722 l 260 0 l 108 0 m 201 808 l 107 854 l 233 1104 l 365 1040 l 201 808 z "},"ĭ":{"ha":368,"x_min":-49,"x_max":418,"o":"m 108 0 l 108 722 l 260 722 l 260 0 l 108 0 m 185 818 q 87 838 126 818 q 21 886 47 857 q -22 951 -6 915 q -49 1018 -37 986 l 35 1060 l 64 1014 q 113 952 88 975 q 185 929 139 929 q 256 952 231 929 q 306 1014 282 975 l 335 1060 l 418 1018 q 391 951 407 986 q 349 886 375 915 q 283 838 322 857 q 185 818 243 818 z "},"î":{"ha":368,"x_min":-57,"x_max":429,"o":"m 108 0 l 108 722 l 260 722 l 260 0 l 108 0 m 263 1081 l 429 872 l 351 813 l 186 975 l 21 813 l -57 872 l 110 1081 l 263 1081 z "},"ï":{"ha":368,"x_min":-39,"x_max":411,"o":"m 108 0 l 108 722 l 260 722 l 260 0 l 108 0 m 47 847 q -19 868 0 847 q -39 921 -39 889 l -39 946 q -19 999 -39 978 q 47 1019 0 1019 q 114 999 94 1019 q 133 946 133 978 l 133 921 q 114 868 133 889 q 47 847 94 847 m 325 847 q 258 868 278 847 q 239 921 239 889 l 239 946 q 258 999 239 978 q 325 1019 278 1019 q 392 999 372 1019 q 411 946 411 978 l 411 921 q 392 868 411 889 q 325 847 372 847 z "},"ị":{"ha":368,"x_min":94,"x_max":274,"o":"m 185 851 q 116 874 138 851 q 94 931 94 896 l 94 954 q 116 1011 94 989 q 185 1033 138 1033 q 253 1011 232 1033 q 274 954 274 989 l 274 931 q 253 874 274 896 q 185 851 232 851 m 108 722 l 260 722 l 260 0 l 108 0 l 108 722 m 185 -256 q 117 -235 138 -256 q 96 -182 96 -214 l 96 -157 q 117 -104 96 -125 q 185 -83 138 -83 q 253 -104 232 -83 q 274 -157 274 -125 l 274 -182 q 253 -235 274 -214 q 185 -256 232 -256 z "},"ì":{"ha":368,"x_min":7,"x_max":265,"o":"m 108 0 l 108 722 l 260 722 l 260 0 l 108 0 m 7 1040 l 139 1104 l 265 854 l 171 808 l 7 1040 z "},"ỉ":{"ha":368,"x_min":47,"x_max":332,"o":"m 108 0 l 108 722 l 260 722 l 260 0 l 108 0 m 47 1085 l 218 1085 q 307 1059 282 1085 q 332 997 332 1033 q 313 922 332 963 q 260 840 293 882 l 224 797 l 143 836 l 213 974 l 47 974 l 47 1085 z "},"ī":{"ha":368,"x_min":-17,"x_max":389,"o":"m 108 0 l 108 722 l 260 722 l 260 0 l 108 0 m -17 992 l 389 992 l 389 876 l -17 876 l -17 992 z "},"į":{"ha":368,"x_min":4,"x_max":296,"o":"m 108 722 l 260 722 l 260 0 q 184 -61 213 -36 q 140 -104 156 -86 q 119 -135 124 -122 q 114 -160 114 -147 q 128 -194 114 -185 q 161 -204 142 -204 q 201 -194 183 -204 q 232 -168 218 -183 l 296 -229 q 245 -274 281 -257 q 153 -290 210 -290 q 95 -284 122 -290 q 48 -265 68 -278 q 16 -231 28 -251 q 4 -179 4 -210 q 47 -84 4 -124 q 156 -6 90 -44 l 154 0 l 108 0 l 108 722 m 185 851 q 116 874 138 851 q 94 931 94 896 l 94 954 q 116 1011 94 989 q 185 1033 138 1033 q 253 1011 232 1033 q 274 954 274 989 l 274 931 q 253 874 274 896 q 185 851 232 851 z "},"ĩ":{"ha":368,"x_min":-60,"x_max":432,"o":"m 108 0 l 108 722 l 260 722 l 260 0 l 108 0 m 289 843 q 229 854 254 843 q 181 876 204 865 q 124 901 149 892 q 78 910 100 910 q 36 900 54 910 q -3 872 18 890 l -60 944 q -3 1001 -39 976 q 83 1025 32 1025 q 143 1014 118 1025 q 192 992 168 1003 q 248 967 224 976 q 294 958 272 958 q 336 968 318 958 q 375 996 354 978 l 432 924 q 376 867 411 892 q 289 843 340 843 z "},"ĳ":{"ha":731,"x_min":94,"x_max":636,"o":"m 185 851 q 116 874 138 851 q 94 931 94 896 l 94 954 q 116 1011 94 989 q 185 1033 138 1033 q 253 1011 232 1033 q 274 954 274 989 l 274 931 q 253 874 274 896 q 185 851 232 851 m 108 722 l 260 722 l 260 0 l 108 0 l 108 722 m 471 722 l 622 722 l 622 -97 q 580 -229 622 -181 q 446 -278 538 -278 l 358 -278 l 358 -154 l 471 -154 l 471 722 m 547 851 q 478 874 500 851 q 457 931 457 896 l 457 954 q 478 1011 457 989 q 547 1033 500 1033 q 615 1011 594 1033 q 636 954 636 989 l 636 931 q 615 874 636 896 q 547 851 594 851 z "},"ȷ":{"ha":368,"x_min":-4,"x_max":260,"o":"m -4 -154 l 108 -154 l 108 722 l 260 722 l 260 -97 q 217 -229 260 -181 q 83 -278 175 -278 l -4 -278 l -4 -154 z "},"ĵ":{"ha":368,"x_min":-57,"x_max":429,"o":"m -4 -154 l 108 -154 l 108 722 l 260 722 l 260 -97 q 217 -229 260 -181 q 83 -278 175 -278 l -4 -278 l -4 -154 m 263 1081 l 429 872 l 351 813 l 186 975 l 21 813 l -57 872 l 110 1081 l 263 1081 z "},"ķ":{"ha":760,"x_min":108,"x_max":747,"o":"m 108 1028 l 260 1028 l 260 397 l 267 397 l 367 526 l 540 722 l 717 722 l 464 443 l 747 0 l 567 0 l 360 344 l 260 236 l 260 0 l 108 0 l 108 1028 m 424 -78 q 506 -151 506 -78 l 506 -168 q 480 -275 506 -224 q 418 -358 454 -326 l 322 -358 q 372 -301 354 -328 q 399 -237 389 -274 q 355 -213 368 -233 q 342 -167 342 -193 l 342 -151 q 424 -78 342 -78 z "},"ĸ":{"ha":760,"x_min":108,"x_max":747,"o":"m 360 340 l 260 236 l 260 0 l 108 0 l 108 722 l 260 722 l 260 397 l 267 397 l 371 522 l 556 722 l 732 722 l 467 440 l 747 0 l 568 0 l 360 340 z "},"ĺ":{"ha":396,"x_min":107,"x_max":365,"o":"m 263 0 q 147 40 185 0 q 108 150 108 79 l 108 1028 l 260 1028 l 260 124 l 360 124 l 360 0 l 263 0 m 201 1086 l 107 1132 l 233 1382 l 365 1318 l 201 1086 z "},"ľ":{"ha":431,"x_min":108,"x_max":518,"o":"m 438 753 l 338 753 l 351 1028 l 518 1028 l 438 753 m 263 0 q 147 40 185 0 q 108 150 108 79 l 108 1028 l 260 1028 l 260 124 l 360 124 l 360 0 l 263 0 z "},"ļ":{"ha":396,"x_min":108,"x_max":360,"o":"m 263 0 q 147 40 185 0 q 108 150 108 79 l 108 1028 l 260 1028 l 260 124 l 360 124 l 360 0 l 263 0 m 233 -78 q 315 -151 315 -78 l 315 -168 q 290 -275 315 -224 q 228 -358 264 -326 l 132 -358 q 181 -301 164 -328 q 208 -237 199 -274 q 165 -213 178 -233 q 151 -167 151 -193 l 151 -151 q 233 -78 151 -78 z "},"ŀ":{"ha":550,"x_min":108,"x_max":551,"o":"m 263 0 q 147 40 185 0 q 108 150 108 79 l 108 1028 l 260 1028 l 260 124 l 360 124 l 360 0 l 263 0 m 458 365 q 387 388 408 365 q 365 444 365 410 l 365 469 q 387 526 365 504 q 458 549 408 549 q 530 526 508 549 q 551 469 551 504 l 551 444 q 530 388 551 410 q 458 365 508 365 z "},"ł":{"ha":406,"x_min":13,"x_max":408,"o":"m 365 0 l 268 0 q 152 40 190 0 q 114 150 114 79 l 114 433 l 13 400 l 13 519 l 114 553 l 114 1028 l 265 1028 l 265 603 l 408 650 l 408 531 l 265 483 l 265 124 l 365 124 l 365 0 z "},"ń":{"ha":806,"x_min":108,"x_max":704,"o":"m 108 0 l 108 722 l 260 722 l 260 603 l 267 603 q 338 700 290 661 q 469 739 386 739 q 642 666 581 739 q 704 458 704 593 l 704 0 l 553 0 l 553 439 q 417 608 553 608 q 359 601 388 608 q 308 578 331 593 q 273 539 286 563 q 260 483 260 515 l 260 0 l 108 0 m 424 808 l 329 854 l 456 1104 l 588 1040 l 424 808 z "},"ň":{"ha":806,"x_min":108,"x_max":704,"o":"m 108 0 l 108 722 l 260 722 l 260 603 l 267 603 q 338 700 290 661 q 469 739 386 739 q 642 666 581 739 q 704 458 704 593 l 704 0 l 553 0 l 553 439 q 417 608 553 608 q 359 601 388 608 q 308 578 331 593 q 273 539 286 563 q 260 483 260 515 l 260 0 l 108 0 m 332 825 l 165 1033 l 243 1092 l 408 931 l 574 1092 l 651 1033 l 485 825 l 332 825 z "},"ņ":{"ha":806,"x_min":108,"x_max":704,"o":"m 108 0 l 108 722 l 260 722 l 260 603 l 267 603 q 338 700 290 661 q 469 739 386 739 q 642 666 581 739 q 704 458 704 593 l 704 0 l 553 0 l 553 439 q 417 608 553 608 q 359 601 388 608 q 308 578 331 593 q 273 539 286 563 q 260 483 260 515 l 260 0 l 108 0 m 406 -78 q 488 -151 488 -78 l 488 -168 q 462 -275 488 -224 q 400 -358 436 -326 l 304 -358 q 353 -301 336 -328 q 381 -237 371 -274 q 337 -213 350 -233 q 324 -167 324 -193 l 324 -151 q 406 -78 324 -78 z "},"ñ":{"ha":806,"x_min":108,"x_max":704,"o":"m 108 0 l 108 722 l 260 722 l 260 603 l 267 603 q 338 700 290 661 q 469 739 386 739 q 642 666 581 739 q 704 458 704 593 l 704 0 l 553 0 l 553 439 q 417 608 553 608 q 359 601 388 608 q 308 578 331 593 q 273 539 286 563 q 260 483 260 515 l 260 0 l 108 0 m 511 843 q 451 854 476 843 q 403 876 426 865 q 347 901 371 892 q 300 910 322 910 q 258 900 276 910 q 219 872 240 890 l 163 944 q 219 1001 183 976 q 306 1025 254 1025 q 365 1014 340 1025 q 414 992 390 1003 q 470 967 446 976 q 517 958 494 958 q 558 968 540 958 q 597 996 576 978 l 654 924 q 598 867 633 892 q 511 843 563 843 z "},"ŉ":{"ha":1172,"x_min":57,"x_max":1071,"o":"m 201 1042 q 278 1017 254 1042 q 301 951 301 992 l 301 928 q 292 859 301 894 q 264 789 282 824 q 221 722 246 754 q 165 665 196 690 l 57 665 q 129 750 101 708 q 172 840 157 792 q 119 871 136 847 q 101 926 101 894 l 101 951 q 125 1017 101 992 q 201 1042 149 1042 m 475 0 l 475 722 l 626 722 l 626 603 l 633 603 q 705 700 657 661 q 836 739 753 739 q 1009 666 947 739 q 1071 458 1071 593 l 1071 0 l 919 0 l 919 439 q 783 608 919 608 q 726 601 754 608 q 675 578 697 593 q 640 539 653 563 q 626 483 626 515 l 626 0 l 475 0 z "},"ŋ":{"ha":806,"x_min":108,"x_max":704,"o":"m 440 -154 l 553 -154 l 553 440 q 417 608 553 608 q 359 601 388 608 q 308 578 331 593 q 273 540 286 563 q 260 485 260 517 l 260 0 l 108 0 l 108 722 l 260 722 l 260 603 l 267 603 q 338 700 290 661 q 469 739 386 739 q 642 666 581 739 q 704 458 704 593 l 704 -99 q 663 -230 704 -182 q 529 -278 621 -278 l 440 -278 l 440 -154 z "},"ó":{"ha":783,"x_min":60,"x_max":724,"o":"m 392 -17 q 255 10 317 -17 q 150 85 193 36 q 83 205 107 135 q 60 361 60 275 q 83 517 60 447 q 150 637 107 588 q 255 713 193 686 q 392 739 317 739 q 528 713 467 739 q 633 637 590 686 q 700 517 676 588 q 724 361 724 447 q 700 205 724 275 q 633 85 676 135 q 528 10 590 36 q 392 -17 467 -17 m 392 108 q 517 156 469 108 q 564 300 564 204 l 564 422 q 517 566 564 518 q 392 614 469 614 q 267 566 314 614 q 219 422 219 518 l 219 300 q 267 156 219 204 q 392 108 314 108 m 407 808 l 313 854 l 439 1104 l 571 1040 l 407 808 z "},"ŏ":{"ha":783,"x_min":60,"x_max":724,"o":"m 392 -17 q 255 10 317 -17 q 150 85 193 36 q 83 205 107 135 q 60 361 60 275 q 83 517 60 447 q 150 637 107 588 q 255 713 193 686 q 392 739 317 739 q 528 713 467 739 q 633 637 590 686 q 700 517 676 588 q 724 361 724 447 q 700 205 724 275 q 633 85 676 135 q 528 10 590 36 q 392 -17 467 -17 m 392 108 q 517 156 469 108 q 564 300 564 204 l 564 422 q 517 566 564 518 q 392 614 469 614 q 267 566 314 614 q 219 422 219 518 l 219 300 q 267 156 219 204 q 392 108 314 108 m 390 818 q 292 838 332 818 q 226 886 253 857 q 184 951 200 915 q 157 1018 168 986 l 240 1060 l 269 1014 q 319 952 293 975 q 390 929 344 929 q 462 952 436 929 q 511 1014 488 975 l 540 1060 l 624 1018 q 597 951 613 986 q 554 886 581 915 q 488 838 528 857 q 390 818 449 818 z "},"ô":{"ha":783,"x_min":60,"x_max":724,"o":"m 392 -17 q 255 10 317 -17 q 150 85 193 36 q 83 205 107 135 q 60 361 60 275 q 83 517 60 447 q 150 637 107 588 q 255 713 193 686 q 392 739 317 739 q 528 713 467 739 q 633 637 590 686 q 700 517 676 588 q 724 361 724 447 q 700 205 724 275 q 633 85 676 135 q 528 10 590 36 q 392 -17 467 -17 m 392 108 q 517 156 469 108 q 564 300 564 204 l 564 422 q 517 566 564 518 q 392 614 469 614 q 267 566 314 614 q 219 422 219 518 l 219 300 q 267 156 219 204 q 392 108 314 108 m 468 1081 l 635 872 l 557 813 l 392 975 l 226 813 l 149 872 l 315 1081 l 468 1081 z "},"ö":{"ha":783,"x_min":60,"x_max":724,"o":"m 392 -17 q 255 10 317 -17 q 150 85 193 36 q 83 205 107 135 q 60 361 60 275 q 83 517 60 447 q 150 637 107 588 q 255 713 193 686 q 392 739 317 739 q 528 713 467 739 q 633 637 590 686 q 700 517 676 588 q 724 361 724 447 q 700 205 724 275 q 633 85 676 135 q 528 10 590 36 q 392 -17 467 -17 m 392 108 q 517 156 469 108 q 564 300 564 204 l 564 422 q 517 566 564 518 q 392 614 469 614 q 267 566 314 614 q 219 422 219 518 l 219 300 q 267 156 219 204 q 392 108 314 108 m 253 847 q 186 868 206 847 q 167 921 167 889 l 167 946 q 186 999 167 978 q 253 1019 206 1019 q 319 999 300 1019 q 339 946 339 978 l 339 921 q 319 868 339 889 q 253 847 300 847 m 531 847 q 464 868 483 847 q 444 921 444 889 l 444 946 q 464 999 444 978 q 531 1019 483 1019 q 597 999 578 1019 q 617 946 617 978 l 617 921 q 597 868 617 889 q 531 847 578 847 z "},"ọ":{"ha":783,"x_min":60,"x_max":724,"o":"m 392 -17 q 255 10 317 -17 q 150 85 193 36 q 83 205 107 135 q 60 361 60 275 q 83 517 60 447 q 150 637 107 588 q 255 713 193 686 q 392 739 317 739 q 528 713 467 739 q 633 637 590 686 q 700 517 676 588 q 724 361 724 447 q 700 205 724 275 q 633 85 676 135 q 528 10 590 36 q 392 -17 467 -17 m 392 108 q 517 156 469 108 q 564 300 564 204 l 564 422 q 517 566 564 518 q 392 614 469 614 q 267 566 314 614 q 219 422 219 518 l 219 300 q 267 156 219 204 q 392 108 314 108 m 390 -256 q 322 -235 343 -256 q 301 -182 301 -214 l 301 -157 q 322 -104 301 -125 q 390 -83 343 -83 q 458 -104 438 -83 q 479 -157 479 -125 l 479 -182 q 458 -235 479 -214 q 390 -256 438 -256 z "},"ò":{"ha":783,"x_min":60,"x_max":724,"o":"m 392 -17 q 255 10 317 -17 q 150 85 193 36 q 83 205 107 135 q 60 361 60 275 q 83 517 60 447 q 150 637 107 588 q 255 713 193 686 q 392 739 317 739 q 528 713 467 739 q 633 637 590 686 q 700 517 676 588 q 724 361 724 447 q 700 205 724 275 q 633 85 676 135 q 528 10 590 36 q 392 -17 467 -17 m 392 108 q 517 156 469 108 q 564 300 564 204 l 564 422 q 517 566 564 518 q 392 614 469 614 q 267 566 314 614 q 219 422 219 518 l 219 300 q 267 156 219 204 q 392 108 314 108 m 213 1040 l 344 1104 l 471 854 l 376 808 l 213 1040 z "},"ỏ":{"ha":783,"x_min":60,"x_max":724,"o":"m 392 -17 q 255 10 317 -17 q 150 85 193 36 q 83 205 107 135 q 60 361 60 275 q 83 517 60 447 q 150 637 107 588 q 255 713 193 686 q 392 739 317 739 q 528 713 467 739 q 633 637 590 686 q 700 517 676 588 q 724 361 724 447 q 700 205 724 275 q 633 85 676 135 q 528 10 590 36 q 392 -17 467 -17 m 392 108 q 517 156 469 108 q 564 300 564 204 l 564 422 q 517 566 564 518 q 392 614 469 614 q 267 566 314 614 q 219 422 219 518 l 219 300 q 267 156 219 204 q 392 108 314 108 m 253 1085 l 424 1085 q 513 1059 488 1085 q 538 997 538 1033 q 518 922 538 963 q 465 840 499 882 l 429 797 l 349 836 l 418 974 l 253 974 l 253 1085 z "},"ő":{"ha":783,"x_min":60,"x_max":724,"o":"m 392 -17 q 255 10 317 -17 q 150 85 193 36 q 83 205 107 135 q 60 361 60 275 q 83 517 60 447 q 150 637 107 588 q 255 713 193 686 q 392 739 317 739 q 528 713 467 739 q 633 637 590 686 q 700 517 676 588 q 724 361 724 447 q 700 205 724 275 q 633 85 676 135 q 528 10 590 36 q 392 -17 467 -17 m 392 108 q 517 156 469 108 q 564 300 564 204 l 564 422 q 517 566 564 518 q 392 614 469 614 q 267 566 314 614 q 219 422 219 518 l 219 300 q 267 156 219 204 q 392 108 314 108 m 281 810 l 194 850 l 321 1101 l 444 1040 l 281 810 m 529 810 l 443 850 l 569 1101 l 693 1040 l 529 810 z "},"ō":{"ha":783,"x_min":60,"x_max":724,"o":"m 392 -17 q 255 10 317 -17 q 150 85 193 36 q 83 205 107 135 q 60 361 60 275 q 83 517 60 447 q 150 637 107 588 q 255 713 193 686 q 392 739 317 739 q 528 713 467 739 q 633 637 590 686 q 700 517 676 588 q 724 361 724 447 q 700 205 724 275 q 633 85 676 135 q 528 10 590 36 q 392 -17 467 -17 m 392 108 q 517 156 469 108 q 564 300 564 204 l 564 422 q 517 566 564 518 q 392 614 469 614 q 267 566 314 614 q 219 422 219 518 l 219 300 q 267 156 219 204 q 392 108 314 108 m 189 992 l 594 992 l 594 876 l 189 876 l 189 992 z "},"ø":{"ha":792,"x_min":36,"x_max":756,"o":"m 36 1 l 129 117 q 81 226 97 165 q 64 361 64 286 q 88 517 64 447 q 154 637 111 588 q 259 713 197 686 q 396 739 321 739 q 588 681 506 739 l 672 783 l 756 721 l 661 604 q 710 496 693 557 q 728 361 728 435 q 704 205 728 275 q 638 85 681 135 q 533 10 594 36 q 396 -17 471 -17 q 291 -2 339 -17 q 204 40 243 13 l 119 -61 l 36 1 m 396 104 q 523 155 475 104 q 571 303 571 206 l 571 419 q 563 489 571 457 l 281 143 q 396 104 324 104 m 221 303 q 229 233 221 264 l 511 578 q 396 618 464 618 q 269 567 317 618 q 221 419 221 517 l 221 303 z "},"ǿ":{"ha":792,"x_min":36,"x_max":756,"o":"m 36 1 l 129 117 q 81 226 97 165 q 64 361 64 286 q 88 517 64 447 q 154 637 111 588 q 259 713 197 686 q 396 739 321 739 q 588 681 506 739 l 672 783 l 756 721 l 661 604 q 710 496 693 557 q 728 361 728 435 q 704 205 728 275 q 638 85 681 135 q 533 10 594 36 q 396 -17 471 -17 q 291 -2 339 -17 q 204 40 243 13 l 119 -61 l 36 1 m 396 104 q 523 155 475 104 q 571 303 571 206 l 571 419 q 563 489 571 457 l 281 143 q 396 104 324 104 m 221 303 q 229 233 221 264 l 511 578 q 396 618 464 618 q 269 567 317 618 q 221 419 221 517 l 221 303 m 407 808 l 313 854 l 439 1104 l 571 1040 l 407 808 z "},"õ":{"ha":783,"x_min":60,"x_max":724,"o":"m 392 -17 q 255 10 317 -17 q 150 85 193 36 q 83 205 107 135 q 60 361 60 275 q 83 517 60 447 q 150 637 107 588 q 255 713 193 686 q 392 739 317 739 q 528 713 467 739 q 633 637 590 686 q 700 517 676 588 q 724 361 724 447 q 700 205 724 275 q 633 85 676 135 q 528 10 590 36 q 392 -17 467 -17 m 392 108 q 517 156 469 108 q 564 300 564 204 l 564 422 q 517 566 564 518 q 392 614 469 614 q 267 566 314 614 q 219 422 219 518 l 219 300 q 267 156 219 204 q 392 108 314 108 m 494 843 q 435 854 460 843 q 386 876 410 865 q 330 901 354 892 q 283 910 306 910 q 242 900 260 910 q 203 872 224 890 l 146 944 q 202 1001 167 976 q 289 1025 238 1025 q 349 1014 324 1025 q 397 992 374 1003 q 453 967 429 976 q 500 958 478 958 q 542 968 524 958 q 581 996 560 978 l 638 924 q 581 867 617 892 q 494 843 546 843 z "},"ơ":{"ha":782,"x_min":60,"x_max":742,"o":"m 742 874 l 742 740 q 719 659 742 688 q 638 631 697 631 q 704 507 686 572 q 722 363 722 442 q 699 206 722 276 q 632 87 675 136 q 528 10 589 38 q 392 -17 467 -17 q 255 10 317 -17 q 150 87 193 38 q 83 206 107 136 q 60 363 60 276 q 83 519 60 450 q 150 638 107 589 q 255 713 193 686 q 392 739 317 739 q 503 722 450 739 l 611 722 l 611 874 l 742 874 m 392 108 q 516 157 469 108 q 563 301 563 206 l 563 422 q 516 566 563 518 q 392 614 469 614 q 267 566 314 614 q 219 422 219 518 l 219 301 q 267 157 219 206 q 392 108 314 108 z "},"ớ":{"ha":782,"x_min":60,"x_max":742,"o":"m 742 874 l 742 740 q 719 659 742 688 q 638 631 697 631 q 704 507 686 572 q 722 363 722 442 q 699 206 722 276 q 632 87 675 136 q 528 10 589 38 q 392 -17 467 -17 q 255 10 317 -17 q 150 87 193 38 q 83 206 107 136 q 60 363 60 276 q 83 519 60 450 q 150 638 107 589 q 255 713 193 686 q 392 739 317 739 q 503 722 450 739 l 611 722 l 611 874 l 742 874 m 392 108 q 516 157 469 108 q 563 301 563 206 l 563 422 q 516 566 563 518 q 392 614 469 614 q 267 566 314 614 q 219 422 219 518 l 219 301 q 267 157 219 206 q 392 108 314 108 m 407 808 l 313 854 l 439 1104 l 571 1040 l 407 808 z "},"ợ":{"ha":782,"x_min":60,"x_max":742,"o":"m 742 874 l 742 740 q 719 659 742 688 q 638 631 697 631 q 704 507 686 572 q 722 363 722 442 q 699 206 722 276 q 632 87 675 136 q 528 10 589 38 q 392 -17 467 -17 q 255 10 317 -17 q 150 87 193 38 q 83 206 107 136 q 60 363 60 276 q 83 519 60 450 q 150 638 107 589 q 255 713 193 686 q 392 739 317 739 q 503 722 450 739 l 611 722 l 611 874 l 742 874 m 392 108 q 516 157 469 108 q 563 301 563 206 l 563 422 q 516 566 563 518 q 392 614 469 614 q 267 566 314 614 q 219 422 219 518 l 219 301 q 267 157 219 206 q 392 108 314 108 m 390 -256 q 322 -235 343 -256 q 301 -182 301 -214 l 301 -157 q 322 -104 301 -125 q 390 -83 343 -83 q 458 -104 438 -83 q 479 -157 479 -125 l 479 -182 q 458 -235 479 -214 q 390 -256 438 -256 z "},"ờ":{"ha":782,"x_min":60,"x_max":742,"o":"m 742 874 l 742 740 q 719 659 742 688 q 638 631 697 631 q 704 507 686 572 q 722 363 722 442 q 699 206 722 276 q 632 87 675 136 q 528 10 589 38 q 392 -17 467 -17 q 255 10 317 -17 q 150 87 193 38 q 83 206 107 136 q 60 363 60 276 q 83 519 60 450 q 150 638 107 589 q 255 713 193 686 q 392 739 317 739 q 503 722 450 739 l 611 722 l 611 874 l 742 874 m 392 108 q 516 157 469 108 q 563 301 563 206 l 563 422 q 516 566 563 518 q 392 614 469 614 q 267 566 314 614 q 219 422 219 518 l 219 301 q 267 157 219 206 q 392 108 314 108 m 213 1040 l 344 1104 l 471 854 l 376 808 l 213 1040 z "},"ở":{"ha":782,"x_min":60,"x_max":742,"o":"m 742 874 l 742 740 q 719 659 742 688 q 638 631 697 631 q 704 507 686 572 q 722 363 722 442 q 699 206 722 276 q 632 87 675 136 q 528 10 589 38 q 392 -17 467 -17 q 255 10 317 -17 q 150 87 193 38 q 83 206 107 136 q 60 363 60 276 q 83 519 60 450 q 150 638 107 589 q 255 713 193 686 q 392 739 317 739 q 503 722 450 739 l 611 722 l 611 874 l 742 874 m 392 108 q 516 157 469 108 q 563 301 563 206 l 563 422 q 516 566 563 518 q 392 614 469 614 q 267 566 314 614 q 219 422 219 518 l 219 301 q 267 157 219 206 q 392 108 314 108 m 253 1085 l 424 1085 q 513 1059 488 1085 q 538 997 538 1033 q 518 922 538 963 q 465 840 499 882 l 429 797 l 349 836 l 418 974 l 253 974 l 253 1085 z "},"ỡ":{"ha":782,"x_min":60,"x_max":742,"o":"m 742 874 l 742 740 q 719 659 742 688 q 638 631 697 631 q 704 507 686 572 q 722 363 722 442 q 699 206 722 276 q 632 87 675 136 q 528 10 589 38 q 392 -17 467 -17 q 255 10 317 -17 q 150 87 193 38 q 83 206 107 136 q 60 363 60 276 q 83 519 60 450 q 150 638 107 589 q 255 713 193 686 q 392 739 317 739 q 503 722 450 739 l 611 722 l 611 874 l 742 874 m 392 108 q 516 157 469 108 q 563 301 563 206 l 563 422 q 516 566 563 518 q 392 614 469 614 q 267 566 314 614 q 219 422 219 518 l 219 301 q 267 157 219 206 q 392 108 314 108 m 481 847 q 428 856 450 847 q 386 876 406 865 q 340 897 360 889 q 300 906 321 906 q 263 897 281 906 q 226 871 246 888 l 169 940 q 223 997 190 972 q 303 1021 256 1021 q 356 1012 333 1021 q 397 992 378 1003 q 443 970 424 978 q 483 963 463 963 q 557 997 521 963 l 614 928 q 560 872 593 896 q 481 847 528 847 z "},"ố":{"ha":783,"x_min":60,"x_max":779,"o":"m 392 -17 q 255 10 317 -17 q 150 85 193 36 q 83 205 107 135 q 60 361 60 275 q 83 517 60 447 q 150 637 107 588 q 255 713 193 686 q 392 739 317 739 q 528 713 467 739 q 633 637 590 686 q 700 517 676 588 q 724 361 724 447 q 700 205 724 275 q 633 85 676 135 q 528 10 590 36 q 392 -17 467 -17 m 392 108 q 517 156 469 108 q 564 300 564 204 l 564 422 q 517 566 564 518 q 392 614 469 614 q 267 566 314 614 q 219 422 219 518 l 219 300 q 267 156 219 204 q 392 108 314 108 m 615 990 l 529 1032 l 656 1282 l 779 1221 l 615 990 m 458 1056 l 632 863 l 558 800 l 390 951 l 222 800 l 149 863 l 322 1056 l 458 1056 z "},"ộ":{"ha":783,"x_min":60,"x_max":724,"o":"m 392 -17 q 255 10 317 -17 q 150 85 193 36 q 83 205 107 135 q 60 361 60 275 q 83 517 60 447 q 150 637 107 588 q 255 713 193 686 q 392 739 317 739 q 528 713 467 739 q 633 637 590 686 q 700 517 676 588 q 724 361 724 447 q 700 205 724 275 q 633 85 676 135 q 528 10 590 36 q 392 -17 467 -17 m 392 108 q 517 156 469 108 q 564 300 564 204 l 564 422 q 517 566 564 518 q 392 614 469 614 q 267 566 314 614 q 219 422 219 518 l 219 300 q 267 156 219 204 q 392 108 314 108 m 468 1081 l 635 872 l 557 813 l 392 975 l 226 813 l 149 872 l 315 1081 l 468 1081 m 390 -256 q 322 -235 343 -256 q 301 -182 301 -214 l 301 -157 q 322 -104 301 -125 q 390 -83 343 -83 q 458 -104 438 -83 q 479 -157 479 -125 l 479 -182 q 458 -235 479 -214 q 390 -256 438 -256 z "},"ồ":{"ha":783,"x_min":1,"x_max":724,"o":"m 392 -17 q 255 10 317 -17 q 150 85 193 36 q 83 205 107 135 q 60 361 60 275 q 83 517 60 447 q 150 637 107 588 q 255 713 193 686 q 392 739 317 739 q 528 713 467 739 q 633 637 590 686 q 700 517 676 588 q 724 361 724 447 q 700 205 724 275 q 633 85 676 135 q 528 10 590 36 q 392 -17 467 -17 m 392 108 q 517 156 469 108 q 564 300 564 204 l 564 422 q 517 566 564 518 q 392 614 469 614 q 267 566 314 614 q 219 422 219 518 l 219 300 q 267 156 219 204 q 392 108 314 108 m 1 1221 l 125 1282 l 251 1032 l 165 990 l 1 1221 m 458 1056 l 632 863 l 558 800 l 390 951 l 222 800 l 149 863 l 322 1056 l 458 1056 z "},"ổ":{"ha":783,"x_min":60,"x_max":733,"o":"m 392 -17 q 255 10 317 -17 q 150 85 193 36 q 83 205 107 135 q 60 361 60 275 q 83 517 60 447 q 150 637 107 588 q 255 713 193 686 q 392 739 317 739 q 528 713 467 739 q 633 637 590 686 q 700 517 676 588 q 724 361 724 447 q 700 205 724 275 q 633 85 676 135 q 528 10 590 36 q 392 -17 467 -17 m 392 108 q 517 156 469 108 q 564 300 564 204 l 564 422 q 517 566 564 518 q 392 614 469 614 q 267 566 314 614 q 219 422 219 518 l 219 300 q 267 156 219 204 q 392 108 314 108 m 453 1265 l 619 1265 q 708 1240 682 1265 q 733 1178 733 1214 q 711 1103 733 1143 q 657 1021 689 1063 l 621 978 l 547 1017 l 621 1158 l 453 1158 l 453 1265 m 458 1056 l 632 863 l 558 800 l 390 951 l 222 800 l 149 863 l 322 1056 l 458 1056 z "},"ỗ":{"ha":783,"x_min":60,"x_max":724,"o":"m 392 -17 q 255 10 317 -17 q 150 85 193 36 q 83 205 107 135 q 60 361 60 275 q 83 517 60 447 q 150 637 107 588 q 255 713 193 686 q 392 739 317 739 q 528 713 467 739 q 633 637 590 686 q 700 517 676 588 q 724 361 724 447 q 700 205 724 275 q 633 85 676 135 q 528 10 590 36 q 392 -17 467 -17 m 392 108 q 517 156 469 108 q 564 300 564 204 l 564 422 q 517 566 564 518 q 392 614 469 614 q 267 566 314 614 q 219 422 219 518 l 219 300 q 267 156 219 204 q 392 108 314 108 m 289 1261 q 349 1251 324 1261 q 397 1229 374 1240 q 453 1206 429 1214 q 500 1197 478 1197 q 542 1206 524 1197 q 581 1233 560 1215 l 635 1167 q 578 1111 614 1135 q 492 1088 543 1088 q 432 1098 457 1088 q 383 1119 407 1108 q 327 1143 351 1135 q 281 1151 303 1151 q 239 1142 257 1151 q 200 1115 221 1133 l 146 1182 q 202 1238 167 1214 q 289 1261 238 1261 m 458 1049 l 631 863 l 558 800 l 390 946 l 222 800 l 150 863 l 322 1049 l 458 1049 z "},"œ":{"ha":1279,"x_min":60,"x_max":1219,"o":"m 392 108 q 517 156 469 108 q 564 300 564 204 l 564 422 q 517 566 564 518 q 392 614 469 614 q 267 566 314 614 q 219 422 219 518 l 219 300 q 267 156 219 204 q 392 108 314 108 m 1060 422 l 1060 436 q 1017 570 1060 519 q 899 621 974 621 q 827 607 860 621 q 772 568 794 593 q 736 508 749 543 q 724 432 724 474 l 724 422 l 1060 422 m 907 -17 q 741 22 807 -17 q 647 118 675 61 l 639 118 q 545 21 610 58 q 392 -17 481 -17 q 255 10 317 -17 q 150 85 193 36 q 83 205 107 135 q 60 361 60 275 q 83 517 60 447 q 150 637 107 588 q 255 713 193 686 q 392 739 317 739 q 542 705 478 739 q 639 603 606 671 l 647 603 q 743 702 678 665 q 900 739 808 739 q 1034 713 975 739 q 1135 639 1093 686 q 1198 526 1176 592 q 1219 379 1219 460 l 1219 322 l 724 322 l 724 299 q 773 162 724 215 q 917 108 822 108 q 1029 138 983 108 q 1107 217 1075 167 l 1196 129 q 1081 23 1156 63 q 907 -17 1007 -17 z "},"ŕ":{"ha":532,"x_min":108,"x_max":506,"o":"m 108 0 l 108 722 l 260 722 l 260 583 l 267 583 q 331 681 282 639 q 465 722 379 722 l 506 722 l 506 576 l 446 576 q 308 547 356 576 q 260 461 260 518 l 260 0 l 108 0 m 324 808 l 229 854 l 356 1104 l 488 1040 l 324 808 z "},"ř":{"ha":532,"x_min":65,"x_max":551,"o":"m 108 0 l 108 722 l 260 722 l 260 583 l 267 583 q 331 681 282 639 q 465 722 379 722 l 506 722 l 506 576 l 446 576 q 308 547 356 576 q 260 461 260 518 l 260 0 l 108 0 m 232 825 l 65 1033 l 143 1092 l 308 931 l 474 1092 l 551 1033 l 385 825 l 232 825 z "},"ŗ":{"ha":532,"x_min":83,"x_max":506,"o":"m 108 0 l 108 722 l 260 722 l 260 583 l 267 583 q 331 681 282 639 q 465 722 379 722 l 506 722 l 506 576 l 446 576 q 308 547 356 576 q 260 461 260 518 l 260 0 l 108 0 m 185 -78 q 267 -151 267 -78 l 267 -168 q 241 -275 267 -224 q 179 -358 215 -326 l 83 -358 q 133 -301 115 -328 q 160 -237 150 -274 q 116 -213 129 -233 q 103 -167 103 -193 l 103 -151 q 185 -78 103 -78 z "},"ś":{"ha":686,"x_min":44,"x_max":624,"o":"m 338 -17 q 165 19 235 -17 q 44 119 96 56 l 142 208 q 231 133 182 160 q 346 106 281 106 q 445 131 413 106 q 478 203 478 157 q 455 262 478 238 q 375 293 432 286 l 308 301 q 134 366 197 315 q 71 517 71 417 q 90 610 71 569 q 145 680 110 651 q 230 724 181 708 q 339 739 279 739 q 498 708 436 739 q 608 624 560 678 l 515 535 q 442 592 488 568 q 339 617 397 617 q 247 592 276 617 q 217 526 217 567 q 243 464 217 485 q 328 433 269 443 l 394 425 q 569 355 514 407 q 624 215 624 303 q 603 120 624 163 q 546 47 583 78 q 456 0 508 17 q 338 -17 403 -17 m 354 808 l 260 854 l 386 1104 l 518 1040 l 354 808 z "},"š":{"ha":686,"x_min":44,"x_max":624,"o":"m 338 -17 q 165 19 235 -17 q 44 119 96 56 l 142 208 q 231 133 182 160 q 346 106 281 106 q 445 131 413 106 q 478 203 478 157 q 455 262 478 238 q 375 293 432 286 l 308 301 q 134 366 197 315 q 71 517 71 417 q 90 610 71 569 q 145 680 110 651 q 230 724 181 708 q 339 739 279 739 q 498 708 436 739 q 608 624 560 678 l 515 535 q 442 592 488 568 q 339 617 397 617 q 247 592 276 617 q 217 526 217 567 q 243 464 217 485 q 328 433 269 443 l 394 425 q 569 355 514 407 q 624 215 624 303 q 603 120 624 163 q 546 47 583 78 q 456 0 508 17 q 338 -17 403 -17 m 263 825 l 96 1033 l 174 1092 l 339 931 l 504 1092 l 582 1033 l 415 825 l 263 825 z "},"ş":{"ha":686,"x_min":44,"x_max":624,"o":"m 356 -290 q 256 -271 293 -290 q 204 -232 219 -251 l 261 -165 q 295 -194 274 -182 q 349 -206 317 -206 q 392 -196 375 -206 q 410 -165 410 -186 q 391 -133 410 -149 q 311 -110 372 -117 l 276 -106 l 294 -15 q 150 27 211 -8 q 44 119 89 63 l 142 208 q 231 133 182 160 q 346 106 281 106 q 445 131 413 106 q 478 203 478 157 q 455 262 478 239 q 375 293 432 285 l 308 301 q 134 367 197 317 q 71 517 71 417 q 90 610 71 569 q 145 680 110 651 q 230 724 181 708 q 339 739 279 739 q 498 708 436 739 q 608 624 560 678 l 515 535 q 442 592 488 568 q 339 617 397 617 q 247 592 276 617 q 217 526 217 567 q 243 464 217 485 q 328 433 269 443 l 394 425 q 569 355 514 407 q 624 215 624 303 q 556 56 624 118 q 374 -15 489 -6 l 361 -81 l 365 -86 q 395 -79 381 -82 q 425 -76 410 -76 q 494 -99 467 -76 q 522 -171 522 -122 q 508 -225 522 -203 q 472 -262 494 -247 q 419 -283 449 -276 q 356 -290 389 -290 z "},"ŝ":{"ha":686,"x_min":44,"x_max":624,"o":"m 338 -17 q 165 19 235 -17 q 44 119 96 56 l 142 208 q 231 133 182 160 q 346 106 281 106 q 445 131 413 106 q 478 203 478 157 q 455 262 478 238 q 375 293 432 286 l 308 301 q 134 366 197 315 q 71 517 71 417 q 90 610 71 569 q 145 680 110 651 q 230 724 181 708 q 339 739 279 739 q 498 708 436 739 q 608 624 560 678 l 515 535 q 442 592 488 568 q 339 617 397 617 q 247 592 276 617 q 217 526 217 567 q 243 464 217 485 q 328 433 269 443 l 394 425 q 569 355 514 407 q 624 215 624 303 q 603 120 624 163 q 546 47 583 78 q 456 0 508 17 q 338 -17 403 -17 m 415 1081 l 582 872 l 504 813 l 339 975 l 174 813 l 96 872 l 263 1081 l 415 1081 z "},"ș":{"ha":686,"x_min":44,"x_max":624,"o":"m 338 -17 q 165 19 235 -17 q 44 119 96 56 l 142 208 q 231 133 182 160 q 346 106 281 106 q 445 131 413 106 q 478 203 478 157 q 455 262 478 238 q 375 293 432 286 l 308 301 q 134 366 197 315 q 71 517 71 417 q 90 610 71 569 q 145 680 110 651 q 230 724 181 708 q 339 739 279 739 q 498 708 436 739 q 608 624 560 678 l 515 535 q 442 592 488 568 q 339 617 397 617 q 247 592 276 617 q 217 526 217 567 q 243 464 217 485 q 328 433 269 443 l 394 425 q 569 355 514 407 q 624 215 624 303 q 603 120 624 163 q 546 47 583 78 q 456 0 508 17 q 338 -17 403 -17 m 338 -78 q 419 -151 419 -78 l 419 -168 q 394 -275 419 -224 q 332 -358 368 -326 l 236 -358 q 285 -301 268 -328 q 313 -237 303 -274 q 269 -213 282 -233 q 256 -167 256 -193 l 256 -151 q 338 -78 256 -78 z "},"ß":{"ha":919,"x_min":36,"x_max":883,"o":"m 883 221 q 865 122 883 165 q 813 47 846 78 q 731 0 779 17 q 625 -17 683 -17 q 477 12 539 -17 q 374 94 415 40 l 465 183 q 628 103 532 103 q 711 128 681 103 q 742 203 742 154 q 721 267 742 243 q 647 306 700 292 l 604 317 q 531 344 564 328 q 473 383 497 360 q 435 441 449 407 q 421 521 421 475 q 481 665 421 611 q 646 729 542 718 l 646 735 q 471 925 646 925 q 297 735 297 925 l 297 0 l 146 0 l 146 599 l 36 599 l 36 722 l 146 722 l 146 728 q 232 960 146 875 q 469 1044 318 1044 q 602 1022 543 1044 q 703 960 661 1000 q 767 860 744 919 q 789 729 789 801 l 789 624 l 718 624 q 601 603 640 624 q 563 532 563 582 q 588 468 563 488 q 663 435 614 449 l 704 422 q 840 351 796 399 q 883 221 883 304 z "},"ŧ":{"ha":517,"x_min":42,"x_max":456,"o":"m 444 0 l 313 0 q 193 41 233 0 q 153 157 153 82 l 153 328 l 64 328 l 64 438 l 153 438 l 153 599 l 42 599 l 42 722 l 101 722 q 154 739 140 722 q 168 793 168 756 l 168 919 l 304 919 l 304 722 l 456 722 l 456 599 l 304 599 l 304 438 l 428 438 l 428 328 l 304 328 l 304 124 l 444 124 l 444 0 z "},"ť":{"ha":510,"x_min":36,"x_max":569,"o":"m 489 790 l 389 790 l 403 1065 l 569 1065 l 489 790 m 308 0 q 189 41 229 0 q 149 157 149 82 l 149 599 l 36 599 l 36 722 l 97 722 q 149 739 135 722 q 164 793 164 756 l 164 919 l 300 919 l 300 722 l 451 722 l 451 599 l 300 599 l 300 124 l 440 124 l 440 0 l 308 0 z "},"ţ":{"ha":507,"x_min":36,"x_max":451,"o":"m 308 0 q 189 41 229 0 q 149 157 149 82 l 149 599 l 36 599 l 36 722 l 97 722 q 149 739 135 722 q 164 793 164 756 l 164 919 l 300 919 l 300 722 l 451 722 l 451 599 l 300 599 l 300 124 l 440 124 l 440 0 l 308 0 m 304 -78 q 386 -151 386 -78 l 386 -168 q 360 -275 386 -224 q 299 -358 335 -326 l 203 -358 q 252 -301 235 -328 q 279 -237 269 -274 q 235 -213 249 -233 q 222 -167 222 -193 l 222 -151 q 304 -78 222 -78 z "},"ț":{"ha":507,"x_min":36,"x_max":451,"o":"m 308 0 q 189 41 229 0 q 149 157 149 82 l 149 599 l 36 599 l 36 722 l 97 722 q 149 739 135 722 q 164 793 164 756 l 164 919 l 300 919 l 300 722 l 451 722 l 451 599 l 300 599 l 300 124 l 440 124 l 440 0 l 308 0 m 304 -78 q 386 -151 386 -78 l 386 -168 q 360 -275 386 -224 q 299 -358 335 -326 l 203 -358 q 252 -301 235 -328 q 279 -237 269 -274 q 235 -213 249 -233 q 222 -167 222 -193 l 222 -151 q 304 -78 222 -78 z "},"þ":{"ha":822,"x_min":108,"x_max":757,"o":"m 108 1028 l 260 1028 l 260 603 l 267 603 q 344 703 290 668 q 469 739 397 739 q 682 640 607 739 q 757 361 757 540 q 682 83 757 182 q 469 -17 607 -17 q 344 19 397 -17 q 267 119 290 56 l 260 119 l 260 -278 l 108 -278 l 108 1028 m 424 114 q 550 165 503 114 q 597 299 597 215 l 597 424 q 550 558 597 507 q 424 608 503 608 q 307 574 354 608 q 260 485 260 540 l 260 238 q 307 148 260 182 q 424 114 354 114 z "},"ú":{"ha":806,"x_min":101,"x_max":697,"o":"m 546 119 l 540 119 q 515 68 531 93 q 474 24 499 43 q 416 -6 450 6 q 338 -17 382 -17 q 163 56 225 -17 q 101 263 101 128 l 101 722 l 253 722 l 253 282 q 392 114 253 114 q 449 122 421 114 q 498 144 476 129 q 533 183 519 160 q 546 239 546 207 l 546 722 l 697 722 l 697 0 l 546 0 l 546 119 m 417 808 l 322 854 l 449 1104 l 581 1040 l 417 808 z "},"ŭ":{"ha":806,"x_min":101,"x_max":697,"o":"m 546 119 l 540 119 q 515 68 531 93 q 474 24 499 43 q 416 -6 450 6 q 338 -17 382 -17 q 163 56 225 -17 q 101 263 101 128 l 101 722 l 253 722 l 253 282 q 392 114 253 114 q 449 122 421 114 q 498 144 476 129 q 533 183 519 160 q 546 239 546 207 l 546 722 l 697 722 l 697 0 l 546 0 l 546 119 m 400 818 q 302 838 342 818 q 236 886 263 857 q 194 951 210 915 q 167 1018 178 986 l 250 1060 l 279 1014 q 328 952 303 975 q 400 929 354 929 q 472 952 446 929 q 521 1014 497 975 l 550 1060 l 633 1018 q 606 951 622 986 q 564 886 590 915 q 498 838 538 857 q 400 818 458 818 z "},"û":{"ha":806,"x_min":101,"x_max":697,"o":"m 546 119 l 540 119 q 515 68 531 93 q 474 24 499 43 q 416 -6 450 6 q 338 -17 382 -17 q 163 56 225 -17 q 101 263 101 128 l 101 722 l 253 722 l 253 282 q 392 114 253 114 q 449 122 421 114 q 498 144 476 129 q 533 183 519 160 q 546 239 546 207 l 546 722 l 697 722 l 697 0 l 546 0 l 546 119 m 478 1081 l 644 872 l 567 813 l 401 975 l 236 813 l 158 872 l 325 1081 l 478 1081 z "},"ü":{"ha":806,"x_min":101,"x_max":697,"o":"m 546 119 l 540 119 q 515 68 531 93 q 474 24 499 43 q 416 -6 450 6 q 338 -17 382 -17 q 163 56 225 -17 q 101 263 101 128 l 101 722 l 253 722 l 253 282 q 392 114 253 114 q 449 122 421 114 q 498 144 476 129 q 533 183 519 160 q 546 239 546 207 l 546 722 l 697 722 l 697 0 l 546 0 l 546 119 m 263 847 q 196 868 215 847 q 176 921 176 889 l 176 946 q 196 999 176 978 q 263 1019 215 1019 q 329 999 310 1019 q 349 946 349 978 l 349 921 q 329 868 349 889 q 263 847 310 847 m 540 847 q 474 868 493 847 q 454 921 454 889 l 454 946 q 474 999 454 978 q 540 1019 493 1019 q 607 999 588 1019 q 626 946 626 978 l 626 921 q 607 868 626 889 q 540 847 588 847 z "},"ụ":{"ha":806,"x_min":101,"x_max":697,"o":"m 546 119 l 540 119 q 515 68 531 93 q 474 24 499 43 q 416 -6 450 6 q 338 -17 382 -17 q 163 56 225 -17 q 101 263 101 128 l 101 722 l 253 722 l 253 282 q 392 114 253 114 q 449 122 421 114 q 498 144 476 129 q 533 183 519 160 q 546 239 546 207 l 546 722 l 697 722 l 697 0 l 546 0 l 546 119 m 397 -256 q 329 -235 350 -256 q 308 -182 308 -214 l 308 -157 q 329 -104 308 -125 q 397 -83 350 -83 q 465 -104 444 -83 q 486 -157 486 -125 l 486 -182 q 465 -235 486 -214 q 397 -256 444 -256 z "},"ù":{"ha":806,"x_min":101,"x_max":697,"o":"m 546 119 l 540 119 q 515 68 531 93 q 474 24 499 43 q 416 -6 450 6 q 338 -17 382 -17 q 163 56 225 -17 q 101 263 101 128 l 101 722 l 253 722 l 253 282 q 392 114 253 114 q 449 122 421 114 q 498 144 476 129 q 533 183 519 160 q 546 239 546 207 l 546 722 l 697 722 l 697 0 l 546 0 l 546 119 m 222 1040 l 354 1104 l 481 854 l 386 808 l 222 1040 z "},"ủ":{"ha":806,"x_min":101,"x_max":697,"o":"m 546 119 l 540 119 q 515 68 531 93 q 474 24 499 43 q 416 -6 450 6 q 338 -17 382 -17 q 163 56 225 -17 q 101 263 101 128 l 101 722 l 253 722 l 253 282 q 392 114 253 114 q 449 122 421 114 q 498 144 476 129 q 533 183 519 160 q 546 239 546 207 l 546 722 l 697 722 l 697 0 l 546 0 l 546 119 m 263 1085 l 433 1085 q 522 1059 497 1085 q 547 997 547 1033 q 528 922 547 963 q 475 840 508 882 l 439 797 l 358 836 l 428 974 l 263 974 l 263 1085 z "},"ű":{"ha":806,"x_min":101,"x_max":703,"o":"m 546 119 l 540 119 q 515 68 531 93 q 474 24 499 43 q 416 -6 450 6 q 338 -17 382 -17 q 163 56 225 -17 q 101 263 101 128 l 101 722 l 253 722 l 253 282 q 392 114 253 114 q 449 122 421 114 q 498 144 476 129 q 533 183 519 160 q 546 239 546 207 l 546 722 l 697 722 l 697 0 l 546 0 l 546 119 m 290 810 l 204 850 l 331 1101 l 454 1040 l 290 810 m 539 810 l 453 850 l 579 1101 l 703 1040 l 539 810 z "},"ū":{"ha":806,"x_min":101,"x_max":697,"o":"m 546 119 l 540 119 q 515 68 531 93 q 474 24 499 43 q 416 -6 450 6 q 338 -17 382 -17 q 163 56 225 -17 q 101 263 101 128 l 101 722 l 253 722 l 253 282 q 392 114 253 114 q 449 122 421 114 q 498 144 476 129 q 533 183 519 160 q 546 239 546 207 l 546 722 l 697 722 l 697 0 l 546 0 l 546 119 m 199 992 l 604 992 l 604 876 l 199 876 l 199 992 z "},"ų":{"ha":807,"x_min":101,"x_max":733,"o":"m 697 0 q 622 -61 650 -36 q 577 -104 593 -86 q 556 -135 561 -122 q 551 -160 551 -147 q 565 -194 551 -185 q 599 -204 579 -204 q 640 -194 622 -204 q 669 -168 657 -183 l 733 -229 q 683 -274 718 -257 q 590 -290 647 -290 q 533 -284 560 -290 q 485 -265 506 -278 q 453 -231 465 -251 q 442 -179 442 -210 q 484 -83 442 -124 q 593 -4 526 -43 l 592 0 l 546 0 l 546 119 l 540 119 q 515 68 531 93 q 474 24 499 43 q 416 -6 450 6 q 338 -17 382 -17 q 163 56 225 -17 q 101 263 101 128 l 101 722 l 253 722 l 253 282 q 392 114 253 114 q 449 122 421 114 q 498 144 476 129 q 533 183 519 160 q 546 239 546 207 l 546 722 l 697 722 l 697 0 z "},"ů":{"ha":806,"x_min":101,"x_max":697,"o":"m 546 119 l 540 119 q 515 68 531 93 q 474 24 499 43 q 416 -6 450 6 q 338 -17 382 -17 q 163 56 225 -17 q 101 263 101 128 l 101 722 l 253 722 l 253 282 q 392 114 253 114 q 449 122 421 114 q 498 144 476 129 q 533 183 519 160 q 546 239 546 207 l 546 722 l 697 722 l 697 0 l 546 0 l 546 119 m 401 789 q 331 802 364 789 q 273 839 297 815 q 235 895 249 863 q 221 965 221 928 q 235 1035 221 1003 q 273 1092 249 1068 q 331 1128 297 1115 q 401 1142 364 1142 q 472 1128 439 1142 q 530 1092 506 1115 q 568 1035 554 1068 q 582 965 582 1003 q 568 895 582 928 q 530 839 554 863 q 472 802 506 815 q 401 789 439 789 m 401 872 q 478 946 478 872 l 478 985 q 401 1058 478 1058 q 325 985 325 1058 l 325 946 q 401 872 325 872 z "},"ũ":{"ha":806,"x_min":101,"x_max":697,"o":"m 546 119 l 540 119 q 515 68 531 93 q 474 24 499 43 q 416 -6 450 6 q 338 -17 382 -17 q 163 56 225 -17 q 101 263 101 128 l 101 722 l 253 722 l 253 282 q 392 114 253 114 q 449 122 421 114 q 498 144 476 129 q 533 183 519 160 q 546 239 546 207 l 546 722 l 697 722 l 697 0 l 546 0 l 546 119 m 504 843 q 444 854 469 843 q 396 876 419 865 q 340 901 364 892 q 293 910 315 910 q 251 900 269 910 q 213 872 233 890 l 156 944 q 212 1001 176 976 q 299 1025 247 1025 q 358 1014 333 1025 q 407 992 383 1003 q 463 967 439 976 q 510 958 488 958 q 551 968 533 958 q 590 996 569 978 l 647 924 q 591 867 626 892 q 504 843 556 843 z "},"ư":{"ha":807,"x_min":101,"x_max":801,"o":"m 801 738 q 781 657 801 686 q 697 628 760 628 l 697 0 l 546 0 l 546 119 l 540 119 q 515 68 531 93 q 474 24 499 43 q 416 -6 450 6 q 338 -17 382 -17 q 163 56 225 -17 q 101 263 101 128 l 101 722 l 253 722 l 253 282 q 392 114 253 114 q 449 122 421 114 q 498 144 476 129 q 533 183 519 160 q 546 239 546 207 l 546 722 l 671 722 l 671 874 l 801 874 l 801 738 z "},"ứ":{"ha":807,"x_min":101,"x_max":801,"o":"m 801 738 q 781 657 801 686 q 697 628 760 628 l 697 0 l 546 0 l 546 119 l 540 119 q 515 68 531 93 q 474 24 499 43 q 416 -6 450 6 q 338 -17 382 -17 q 163 56 225 -17 q 101 263 101 128 l 101 722 l 253 722 l 253 282 q 392 114 253 114 q 449 122 421 114 q 498 144 476 129 q 533 183 519 160 q 546 239 546 207 l 546 722 l 671 722 l 671 874 l 801 874 l 801 738 m 417 808 l 322 854 l 449 1104 l 581 1040 l 417 808 z "},"ự":{"ha":807,"x_min":101,"x_max":801,"o":"m 801 738 q 781 657 801 686 q 697 628 760 628 l 697 0 l 546 0 l 546 119 l 540 119 q 515 68 531 93 q 474 24 499 43 q 416 -6 450 6 q 338 -17 382 -17 q 163 56 225 -17 q 101 263 101 128 l 101 722 l 253 722 l 253 282 q 392 114 253 114 q 449 122 421 114 q 498 144 476 129 q 533 183 519 160 q 546 239 546 207 l 546 722 l 671 722 l 671 874 l 801 874 l 801 738 m 396 -256 q 328 -235 349 -256 q 307 -182 307 -214 l 307 -157 q 328 -104 307 -125 q 396 -83 349 -83 q 464 -104 443 -83 q 485 -157 485 -125 l 485 -182 q 464 -235 485 -214 q 396 -256 443 -256 z "},"ừ":{"ha":807,"x_min":101,"x_max":801,"o":"m 801 738 q 781 657 801 686 q 697 628 760 628 l 697 0 l 546 0 l 546 119 l 540 119 q 515 68 531 93 q 474 24 499 43 q 416 -6 450 6 q 338 -17 382 -17 q 163 56 225 -17 q 101 263 101 128 l 101 722 l 253 722 l 253 282 q 392 114 253 114 q 449 122 421 114 q 498 144 476 129 q 533 183 519 160 q 546 239 546 207 l 546 722 l 671 722 l 671 874 l 801 874 l 801 738 m 222 1040 l 354 1104 l 481 854 l 386 808 l 222 1040 z "},"ử":{"ha":807,"x_min":101,"x_max":801,"o":"m 801 738 q 781 657 801 686 q 697 628 760 628 l 697 0 l 546 0 l 546 119 l 540 119 q 515 68 531 93 q 474 24 499 43 q 416 -6 450 6 q 338 -17 382 -17 q 163 56 225 -17 q 101 263 101 128 l 101 722 l 253 722 l 253 282 q 392 114 253 114 q 449 122 421 114 q 498 144 476 129 q 533 183 519 160 q 546 239 546 207 l 546 722 l 671 722 l 671 874 l 801 874 l 801 738 m 263 1085 l 433 1085 q 522 1059 497 1085 q 547 997 547 1033 q 528 922 547 963 q 475 840 508 882 l 439 797 l 358 836 l 428 974 l 263 974 l 263 1085 z "},"ữ":{"ha":807,"x_min":101,"x_max":801,"o":"m 801 738 q 781 657 801 686 q 697 628 760 628 l 697 0 l 546 0 l 546 119 l 540 119 q 515 68 531 93 q 474 24 499 43 q 416 -6 450 6 q 338 -17 382 -17 q 163 56 225 -17 q 101 263 101 128 l 101 722 l 253 722 l 253 282 q 392 114 253 114 q 449 122 421 114 q 498 144 476 129 q 533 183 519 160 q 546 239 546 207 l 546 722 l 671 722 l 671 874 l 801 874 l 801 738 m 493 847 q 440 856 463 847 q 399 876 418 865 q 353 897 372 889 q 313 906 333 906 q 276 897 293 906 q 239 871 258 888 l 182 940 q 235 997 203 972 q 315 1021 268 1021 q 368 1012 346 1021 q 410 992 390 1003 q 456 970 436 978 q 496 963 475 963 q 569 997 533 963 l 626 928 q 573 872 606 896 q 493 847 540 847 z "},"ẃ":{"ha":1110,"x_min":36,"x_max":1074,"o":"m 36 722 l 183 722 l 257 419 l 322 146 l 326 146 l 401 419 l 489 722 l 625 722 l 714 419 l 790 146 l 794 146 l 858 419 l 933 722 l 1074 722 l 879 0 l 708 0 l 614 329 l 556 532 l 553 532 l 496 329 l 400 0 l 233 0 l 36 722 m 571 808 l 476 854 l 603 1104 l 735 1040 l 571 808 z "},"ŵ":{"ha":1110,"x_min":36,"x_max":1074,"o":"m 36 722 l 183 722 l 257 419 l 322 146 l 326 146 l 401 419 l 489 722 l 625 722 l 714 419 l 790 146 l 794 146 l 858 419 l 933 722 l 1074 722 l 879 0 l 708 0 l 614 329 l 556 532 l 553 532 l 496 329 l 400 0 l 233 0 l 36 722 m 632 1081 l 799 872 l 721 813 l 556 975 l 390 813 l 313 872 l 479 1081 l 632 1081 z "},"ẅ":{"ha":1110,"x_min":36,"x_max":1074,"o":"m 36 722 l 183 722 l 257 419 l 322 146 l 326 146 l 401 419 l 489 722 l 625 722 l 714 419 l 790 146 l 794 146 l 858 419 l 933 722 l 1074 722 l 879 0 l 708 0 l 614 329 l 556 532 l 553 532 l 496 329 l 400 0 l 233 0 l 36 722 m 417 847 q 350 868 369 847 q 331 921 331 889 l 331 946 q 350 999 331 978 q 417 1019 369 1019 q 483 999 464 1019 q 503 946 503 978 l 503 921 q 483 868 503 889 q 417 847 464 847 m 694 847 q 628 868 647 847 q 608 921 608 889 l 608 946 q 628 999 608 978 q 694 1019 647 1019 q 761 999 742 1019 q 781 946 781 978 l 781 921 q 761 868 781 889 q 694 847 742 847 z "},"ẁ":{"ha":1110,"x_min":36,"x_max":1074,"o":"m 36 722 l 183 722 l 257 419 l 322 146 l 326 146 l 401 419 l 489 722 l 625 722 l 714 419 l 790 146 l 794 146 l 858 419 l 933 722 l 1074 722 l 879 0 l 708 0 l 614 329 l 556 532 l 553 532 l 496 329 l 400 0 l 233 0 l 36 722 m 376 1040 l 508 1104 l 635 854 l 540 808 l 376 1040 z "},"ý":{"ha":714,"x_min":17,"x_max":697,"o":"m 551 722 l 697 722 l 393 -143 q 365 -205 381 -179 q 327 -247 349 -231 q 275 -270 306 -262 q 203 -278 244 -278 l 115 -278 l 115 -154 l 238 -154 l 279 -32 l 17 722 l 168 722 l 313 297 l 354 140 l 361 140 l 407 297 l 551 722 m 376 808 l 282 854 l 408 1104 l 540 1040 l 376 808 z "},"ŷ":{"ha":714,"x_min":17,"x_max":697,"o":"m 551 722 l 697 722 l 393 -143 q 365 -205 381 -179 q 327 -247 349 -231 q 275 -270 306 -262 q 203 -278 244 -278 l 115 -278 l 115 -154 l 238 -154 l 279 -32 l 17 722 l 168 722 l 313 297 l 354 140 l 361 140 l 407 297 l 551 722 m 438 1081 l 604 872 l 526 813 l 361 975 l 196 813 l 118 872 l 285 1081 l 438 1081 z "},"ÿ":{"ha":714,"x_min":17,"x_max":697,"o":"m 551 722 l 697 722 l 393 -143 q 365 -205 381 -179 q 327 -247 349 -231 q 275 -270 306 -262 q 203 -278 244 -278 l 115 -278 l 115 -154 l 238 -154 l 279 -32 l 17 722 l 168 722 l 313 297 l 354 140 l 361 140 l 407 297 l 551 722 m 222 847 q 156 868 175 847 q 136 921 136 889 l 136 946 q 156 999 136 978 q 222 1019 175 1019 q 289 999 269 1019 q 308 946 308 978 l 308 921 q 289 868 308 889 q 222 847 269 847 m 500 847 q 433 868 453 847 q 414 921 414 889 l 414 946 q 433 999 414 978 q 500 1019 453 1019 q 567 999 547 1019 q 586 946 586 978 l 586 921 q 567 868 586 889 q 500 847 547 847 z "},"ỵ":{"ha":714,"x_min":17,"x_max":697,"o":"m 551 722 l 697 722 l 393 -143 q 365 -205 381 -179 q 327 -247 349 -231 q 275 -270 306 -262 q 203 -278 244 -278 l 115 -278 l 115 -154 l 238 -154 l 279 -32 l 17 722 l 168 722 l 313 297 l 354 140 l 361 140 l 407 297 l 551 722 m 568 -256 q 500 -235 521 -256 q 479 -182 479 -214 l 479 -157 q 500 -104 479 -125 q 568 -83 521 -83 q 636 -104 615 -83 q 657 -157 657 -125 l 657 -182 q 636 -235 657 -214 q 568 -256 615 -256 z "},"ỳ":{"ha":714,"x_min":17,"x_max":697,"o":"m 551 722 l 697 722 l 393 -143 q 365 -205 381 -179 q 327 -247 349 -231 q 275 -270 306 -262 q 203 -278 244 -278 l 115 -278 l 115 -154 l 238 -154 l 279 -32 l 17 722 l 168 722 l 313 297 l 354 140 l 361 140 l 407 297 l 551 722 m 182 1040 l 314 1104 l 440 854 l 346 808 l 182 1040 z "},"ỷ":{"ha":714,"x_min":17,"x_max":697,"o":"m 551 722 l 697 722 l 393 -143 q 365 -205 381 -179 q 327 -247 349 -231 q 275 -270 306 -262 q 203 -278 244 -278 l 115 -278 l 115 -154 l 238 -154 l 279 -32 l 17 722 l 168 722 l 313 297 l 354 140 l 361 140 l 407 297 l 551 722 m 222 1085 l 393 1085 q 482 1059 457 1085 q 507 997 507 1033 q 488 922 507 963 q 435 840 468 882 l 399 797 l 318 836 l 388 974 l 222 974 l 222 1085 z "},"ỹ":{"ha":714,"x_min":17,"x_max":697,"o":"m 551 722 l 697 722 l 393 -143 q 365 -205 381 -179 q 327 -247 349 -231 q 275 -270 306 -262 q 203 -278 244 -278 l 115 -278 l 115 -154 l 238 -154 l 279 -32 l 17 722 l 168 722 l 313 297 l 354 140 l 361 140 l 407 297 l 551 722 m 464 843 q 404 854 429 843 q 356 876 379 865 q 299 901 324 892 q 253 910 275 910 q 211 900 229 910 q 172 872 193 890 l 115 944 q 172 1001 136 976 q 258 1025 207 1025 q 318 1014 293 1025 q 367 992 343 1003 q 423 967 399 976 q 469 958 447 958 q 511 968 493 958 q 550 996 529 978 l 607 924 q 551 867 586 892 q 464 843 515 843 z "},"ź":{"ha":676,"x_min":50,"x_max":626,"o":"m 50 0 l 50 122 l 438 599 l 63 599 l 63 722 l 617 722 l 617 606 l 224 124 l 626 124 l 626 0 l 50 0 m 356 808 l 261 854 l 388 1104 l 519 1040 l 356 808 z "},"ž":{"ha":676,"x_min":50,"x_max":626,"o":"m 50 0 l 50 122 l 438 599 l 63 599 l 63 722 l 617 722 l 617 606 l 224 124 l 626 124 l 626 0 l 50 0 m 264 825 l 97 1033 l 175 1092 l 340 931 l 506 1092 l 583 1033 l 417 825 l 264 825 z "},"ż":{"ha":676,"x_min":50,"x_max":626,"o":"m 50 0 l 50 122 l 438 599 l 63 599 l 63 722 l 617 722 l 617 606 l 224 124 l 626 124 l 626 0 l 50 0 m 340 840 q 269 863 290 840 q 247 919 247 885 l 247 944 q 269 1001 247 979 q 340 1024 290 1024 q 412 1001 390 1024 q 433 944 433 979 l 433 919 q 412 863 433 885 q 340 840 390 840 z "},"Á":{"ha":919,"x_min":31,"x_max":889,"o":"m 725 0 l 638 263 l 275 263 l 190 0 l 31 0 l 361 969 l 558 969 l 889 0 l 725 0 m 460 825 l 453 825 l 313 397 l 599 397 l 460 825 m 474 1040 l 379 1085 l 506 1335 l 638 1271 l 474 1040 z "},"Ă":{"ha":919,"x_min":31,"x_max":889,"o":"m 725 0 l 638 263 l 275 263 l 190 0 l 31 0 l 361 969 l 558 969 l 889 0 l 725 0 m 460 825 l 453 825 l 313 397 l 599 397 l 460 825 m 457 1049 q 359 1068 399 1049 q 293 1117 319 1088 q 250 1181 267 1146 q 224 1249 233 1217 l 307 1292 l 335 1246 q 384 1183 358 1206 q 457 1160 410 1160 q 530 1183 504 1160 q 579 1246 556 1206 l 607 1292 l 690 1249 q 663 1181 679 1217 q 621 1117 647 1146 q 555 1068 594 1088 q 457 1049 515 1049 z "},"Â":{"ha":919,"x_min":31,"x_max":889,"o":"m 725 0 l 638 263 l 275 263 l 190 0 l 31 0 l 361 969 l 558 969 l 889 0 l 725 0 m 460 825 l 453 825 l 313 397 l 599 397 l 460 825 m 535 1311 l 701 1103 l 624 1044 l 458 1206 l 293 1044 l 215 1103 l 382 1311 l 535 1311 z "},"Ä":{"ha":919,"x_min":31,"x_max":889,"o":"m 725 0 l 638 263 l 275 263 l 190 0 l 31 0 l 361 969 l 558 969 l 889 0 l 725 0 m 460 825 l 453 825 l 313 397 l 599 397 l 460 825 m 319 1078 q 252 1099 272 1078 q 232 1153 232 1121 l 232 1178 q 252 1231 232 1210 q 319 1253 272 1253 q 387 1231 367 1253 q 407 1178 407 1210 l 407 1153 q 387 1099 407 1121 q 319 1078 367 1078 m 597 1078 q 530 1099 550 1078 q 510 1153 510 1121 l 510 1178 q 530 1231 510 1210 q 597 1253 550 1253 q 665 1231 644 1253 q 685 1178 685 1210 l 685 1153 q 665 1099 685 1121 q 597 1078 644 1078 z "},"Ạ":{"ha":919,"x_min":31,"x_max":889,"o":"m 725 0 l 638 263 l 275 263 l 190 0 l 31 0 l 361 969 l 558 969 l 889 0 l 725 0 m 460 825 l 453 825 l 313 397 l 599 397 l 460 825 m 458 -256 q 390 -235 411 -256 q 369 -182 369 -214 l 369 -157 q 390 -104 369 -125 q 458 -83 411 -83 q 526 -104 506 -83 q 547 -157 547 -125 l 547 -182 q 526 -235 547 -214 q 458 -256 506 -256 z "},"À":{"ha":919,"x_min":31,"x_max":889,"o":"m 725 0 l 638 263 l 275 263 l 190 0 l 31 0 l 361 969 l 558 969 l 889 0 l 725 0 m 460 825 l 453 825 l 313 397 l 599 397 l 460 825 m 279 1271 l 411 1335 l 538 1085 l 443 1040 l 279 1271 z "},"Ả":{"ha":919,"x_min":31,"x_max":889,"o":"m 725 0 l 638 263 l 275 263 l 190 0 l 31 0 l 361 969 l 558 969 l 889 0 l 725 0 m 460 825 l 453 825 l 313 397 l 599 397 l 460 825 m 321 1315 l 492 1315 q 581 1290 556 1315 q 606 1228 606 1264 q 586 1153 606 1193 q 533 1071 567 1113 l 497 1028 l 417 1067 l 486 1204 l 321 1204 l 321 1315 z "},"Ā":{"ha":919,"x_min":31,"x_max":889,"o":"m 725 0 l 638 263 l 275 263 l 190 0 l 31 0 l 361 969 l 558 969 l 889 0 l 725 0 m 460 825 l 453 825 l 313 397 l 599 397 l 460 825 m 256 1224 l 661 1224 l 661 1108 l 256 1108 l 256 1224 z "},"Ą":{"ha":919,"x_min":31,"x_max":922,"o":"m 361 969 l 558 969 l 889 0 q 812 -61 840 -36 q 767 -104 783 -86 q 747 -135 751 -122 q 742 -160 742 -147 q 756 -194 742 -185 q 789 -204 769 -204 q 828 -194 811 -204 q 860 -168 846 -183 l 922 -229 q 872 -274 907 -257 q 781 -290 836 -290 q 723 -284 750 -290 q 675 -265 696 -278 q 642 -231 654 -251 q 631 -179 631 -210 q 674 -84 631 -124 q 782 -6 717 -44 l 781 0 l 725 0 l 638 263 l 275 263 l 190 0 l 31 0 l 361 969 m 460 825 l 453 825 l 313 397 l 599 397 l 460 825 z "},"Å":{"ha":919,"x_min":31,"x_max":889,"o":"m 725 0 l 638 263 l 275 263 l 190 0 l 31 0 l 361 969 l 558 969 l 889 0 l 725 0 m 460 825 l 453 825 l 313 397 l 599 397 l 460 825 m 458 1019 q 388 1033 421 1019 q 330 1069 354 1046 q 292 1126 306 1093 q 278 1196 278 1158 q 292 1266 278 1233 q 330 1322 306 1299 q 388 1359 354 1346 q 458 1372 421 1372 q 529 1359 496 1372 q 587 1322 563 1346 q 625 1266 611 1299 q 639 1196 639 1233 q 625 1126 639 1158 q 587 1069 611 1093 q 529 1033 563 1046 q 458 1019 496 1019 m 458 1104 q 515 1124 494 1104 q 535 1178 535 1143 l 535 1215 q 515 1269 535 1250 q 458 1289 494 1289 q 402 1269 422 1289 q 382 1215 382 1250 l 382 1178 q 402 1124 382 1143 q 458 1104 422 1104 z "},"Ǻ":{"ha":919,"x_min":31,"x_max":889,"o":"m 725 0 l 638 263 l 275 263 l 190 0 l 31 0 l 361 969 l 558 969 l 889 0 l 725 0 m 460 825 l 453 825 l 313 397 l 599 397 l 460 825 m 465 1364 l 396 1414 l 531 1572 l 631 1504 l 465 1364 m 458 1015 q 328 1059 381 1015 q 276 1178 276 1103 q 328 1297 276 1253 q 458 1340 381 1340 q 588 1297 536 1340 q 640 1178 640 1253 q 588 1059 640 1103 q 458 1015 536 1015 m 458 1096 q 517 1113 496 1096 q 538 1165 538 1131 l 538 1190 q 517 1242 538 1225 q 458 1260 496 1260 q 400 1242 421 1260 q 379 1190 379 1225 l 379 1165 q 400 1113 379 1131 q 458 1096 421 1096 z "},"Ã":{"ha":919,"x_min":31,"x_max":889,"o":"m 725 0 l 638 263 l 275 263 l 190 0 l 31 0 l 361 969 l 558 969 l 889 0 l 725 0 m 460 825 l 453 825 l 313 397 l 599 397 l 460 825 m 561 1074 q 501 1085 526 1074 q 453 1107 476 1096 q 397 1131 421 1122 q 350 1139 372 1139 q 308 1130 326 1139 q 269 1103 290 1121 l 213 1175 q 269 1231 233 1207 q 356 1256 304 1256 q 415 1244 390 1256 q 464 1222 440 1233 q 520 1199 496 1207 q 567 1190 544 1190 q 608 1199 590 1190 q 647 1226 626 1208 l 704 1154 q 648 1098 683 1122 q 561 1074 613 1074 z "},"Ắ":{"ha":919,"x_min":31,"x_max":889,"o":"m 725 0 l 638 263 l 275 263 l 190 0 l 31 0 l 361 969 l 558 969 l 889 0 l 725 0 m 460 825 l 453 825 l 313 397 l 599 397 l 460 825 m 458 1036 q 361 1053 401 1036 q 293 1099 321 1071 q 248 1159 265 1126 q 219 1224 231 1192 l 300 1269 l 329 1222 q 384 1163 354 1182 q 458 1143 414 1143 q 533 1163 503 1143 q 588 1222 563 1182 l 617 1269 l 697 1224 q 669 1159 686 1192 q 624 1099 651 1126 q 556 1053 596 1071 q 458 1036 515 1036 m 474 1221 l 388 1263 l 513 1513 l 635 1451 l 474 1221 z "},"Ặ":{"ha":919,"x_min":31,"x_max":889,"o":"m 725 0 l 638 263 l 275 263 l 190 0 l 31 0 l 361 969 l 558 969 l 889 0 l 725 0 m 460 825 l 453 825 l 313 397 l 599 397 l 460 825 m 457 1049 q 359 1068 399 1049 q 293 1117 319 1088 q 250 1181 267 1146 q 224 1249 233 1217 l 307 1292 l 335 1246 q 384 1183 358 1206 q 457 1160 410 1160 q 530 1183 504 1160 q 579 1246 556 1206 l 607 1292 l 690 1249 q 663 1181 679 1217 q 621 1117 647 1146 q 555 1068 594 1088 q 457 1049 515 1049 m 458 -256 q 390 -235 411 -256 q 369 -182 369 -214 l 369 -157 q 390 -104 369 -125 q 458 -83 411 -83 q 526 -104 506 -83 q 547 -157 547 -125 l 547 -182 q 526 -235 547 -214 q 458 -256 506 -256 z "},"Ằ":{"ha":919,"x_min":31,"x_max":889,"o":"m 725 0 l 638 263 l 275 263 l 190 0 l 31 0 l 361 969 l 558 969 l 889 0 l 725 0 m 460 825 l 453 825 l 313 397 l 599 397 l 460 825 m 458 1036 q 361 1053 401 1036 q 293 1099 321 1071 q 248 1159 265 1126 q 219 1224 231 1192 l 300 1269 l 329 1222 q 384 1163 354 1182 q 458 1143 414 1143 q 533 1163 503 1143 q 588 1222 563 1182 l 617 1269 l 697 1224 q 669 1159 686 1192 q 624 1099 651 1126 q 556 1053 596 1071 q 458 1036 515 1036 m 283 1451 l 406 1513 l 529 1264 l 443 1221 l 283 1451 z "},"Ẳ":{"ha":919,"x_min":31,"x_max":889,"o":"m 725 0 l 638 263 l 275 263 l 190 0 l 31 0 l 361 969 l 558 969 l 889 0 l 725 0 m 460 825 l 453 825 l 313 397 l 599 397 l 460 825 m 310 1496 l 465 1496 q 555 1470 531 1496 q 579 1410 579 1444 q 558 1333 579 1374 q 504 1251 538 1293 l 469 1208 l 394 1246 l 468 1390 l 310 1390 l 310 1496 m 458 1036 q 361 1053 401 1036 q 293 1099 321 1071 q 248 1159 265 1126 q 219 1224 231 1192 l 300 1269 l 329 1222 q 384 1163 354 1182 q 458 1143 414 1143 q 533 1163 503 1143 q 588 1222 563 1182 l 617 1269 l 697 1224 q 669 1159 686 1192 q 624 1099 651 1126 q 556 1053 596 1071 q 458 1036 515 1036 z "},"Ẵ":{"ha":919,"x_min":31,"x_max":889,"o":"m 725 0 l 638 263 l 275 263 l 190 0 l 31 0 l 361 969 l 558 969 l 889 0 l 725 0 m 460 825 l 453 825 l 313 397 l 599 397 l 460 825 m 558 1313 q 500 1322 525 1313 q 451 1343 475 1332 q 396 1367 419 1358 q 350 1376 372 1376 q 308 1367 326 1376 q 269 1340 290 1358 l 215 1407 q 272 1463 236 1439 q 358 1486 307 1486 q 417 1475 392 1486 q 465 1453 442 1464 q 521 1430 497 1438 q 565 1422 544 1422 q 607 1431 589 1422 q 647 1458 625 1440 l 701 1392 q 644 1336 679 1360 q 558 1313 610 1313 m 458 1036 q 361 1053 401 1036 q 293 1099 321 1071 q 248 1159 265 1126 q 219 1224 231 1192 l 300 1269 l 329 1222 q 384 1163 354 1182 q 458 1143 414 1143 q 533 1163 503 1143 q 588 1222 563 1182 l 617 1269 l 697 1224 q 669 1159 686 1192 q 624 1099 651 1126 q 556 1053 596 1071 q 458 1036 515 1036 z "},"Ấ":{"ha":919,"x_min":31,"x_max":889,"o":"m 725 0 l 638 263 l 275 263 l 190 0 l 31 0 l 361 969 l 558 969 l 889 0 l 725 0 m 460 825 l 453 825 l 313 397 l 599 397 l 460 825 m 683 1221 l 597 1263 l 724 1513 l 847 1451 l 683 1221 m 526 1288 l 700 1093 l 626 1031 l 458 1182 l 290 1031 l 217 1093 l 390 1288 l 526 1288 z "},"Ậ":{"ha":919,"x_min":31,"x_max":889,"o":"m 725 0 l 638 263 l 275 263 l 190 0 l 31 0 l 361 969 l 558 969 l 889 0 l 725 0 m 460 825 l 453 825 l 313 397 l 599 397 l 460 825 m 535 1311 l 701 1103 l 624 1044 l 458 1206 l 293 1044 l 215 1103 l 382 1311 l 535 1311 m 458 -256 q 390 -235 411 -256 q 369 -182 369 -214 l 369 -157 q 390 -104 369 -125 q 458 -83 411 -83 q 526 -104 506 -83 q 547 -157 547 -125 l 547 -182 q 526 -235 547 -214 q 458 -256 506 -256 z "},"Ầ":{"ha":919,"x_min":31,"x_max":889,"o":"m 725 0 l 638 263 l 275 263 l 190 0 l 31 0 l 361 969 l 558 969 l 889 0 l 725 0 m 460 825 l 453 825 l 313 397 l 599 397 l 460 825 m 69 1451 l 193 1513 l 319 1263 l 233 1221 l 69 1451 m 526 1288 l 700 1093 l 626 1031 l 458 1182 l 290 1031 l 217 1093 l 390 1288 l 526 1288 z "},"Ẩ":{"ha":919,"x_min":31,"x_max":889,"o":"m 725 0 l 638 263 l 275 263 l 190 0 l 31 0 l 361 969 l 558 969 l 889 0 l 725 0 m 460 825 l 453 825 l 313 397 l 599 397 l 460 825 m 521 1496 l 688 1496 q 776 1470 750 1496 q 801 1410 801 1444 q 779 1333 801 1374 q 725 1251 757 1293 l 689 1208 l 615 1247 l 689 1390 l 521 1390 l 521 1496 m 526 1288 l 700 1093 l 626 1031 l 458 1182 l 290 1031 l 217 1093 l 390 1288 l 526 1288 z "},"Ẫ":{"ha":919,"x_min":31,"x_max":889,"o":"m 725 0 l 638 263 l 275 263 l 190 0 l 31 0 l 361 969 l 558 969 l 889 0 l 725 0 m 460 825 l 453 825 l 313 397 l 599 397 l 460 825 m 357 1493 q 417 1482 392 1493 q 465 1460 442 1471 q 522 1436 497 1444 q 568 1428 546 1428 q 610 1437 592 1428 q 649 1464 628 1446 l 703 1399 q 647 1342 682 1367 q 560 1318 611 1318 q 500 1328 525 1318 q 451 1350 475 1339 q 395 1374 419 1365 q 349 1382 371 1382 q 307 1373 325 1382 q 268 1346 289 1364 l 214 1413 q 270 1469 235 1444 q 357 1493 306 1493 m 526 1279 l 699 1093 l 626 1031 l 458 1176 l 290 1031 l 218 1093 l 390 1279 l 526 1279 z "},"Æ":{"ha":1296,"x_min":3,"x_max":1213,"o":"m 592 261 l 289 261 l 161 0 l 3 0 l 489 969 l 1213 969 l 1213 831 l 749 831 l 749 561 l 1169 561 l 1169 422 l 749 422 l 749 139 l 1213 139 l 1213 0 l 592 0 l 592 261 m 568 831 l 353 397 l 592 397 l 592 831 l 568 831 z "},"Ǽ":{"ha":1296,"x_min":3,"x_max":1213,"o":"m 592 261 l 289 261 l 161 0 l 3 0 l 489 969 l 1213 969 l 1213 831 l 749 831 l 749 561 l 1169 561 l 1169 422 l 749 422 l 749 139 l 1213 139 l 1213 0 l 592 0 l 592 261 m 568 831 l 353 397 l 592 397 l 592 831 l 568 831 m 856 1040 l 761 1085 l 888 1335 l 1019 1271 l 856 1040 z "},"Ć":{"ha":881,"x_min":76,"x_max":833,"o":"m 483 -17 q 185 112 293 -17 q 76 485 76 240 q 104 700 76 607 q 185 857 132 793 q 313 953 238 921 q 483 986 389 986 q 695 931 610 986 q 829 767 781 875 l 697 694 q 620 805 672 764 q 483 846 568 846 q 307 769 371 846 q 243 558 243 693 l 243 411 q 307 200 243 276 q 483 124 371 124 q 626 169 571 124 q 707 285 681 214 l 833 208 q 697 43 785 103 q 483 -17 610 -17 m 494 1040 l 400 1085 l 526 1335 l 658 1271 l 494 1040 z "},"Č":{"ha":881,"x_min":76,"x_max":833,"o":"m 483 -17 q 185 112 293 -17 q 76 485 76 240 q 104 700 76 607 q 185 857 132 793 q 313 953 238 921 q 483 986 389 986 q 695 931 610 986 q 829 767 781 875 l 697 694 q 620 805 672 764 q 483 846 568 846 q 307 769 371 846 q 243 558 243 693 l 243 411 q 307 200 243 276 q 483 124 371 124 q 626 169 571 124 q 707 285 681 214 l 833 208 q 697 43 785 103 q 483 -17 610 -17 m 403 1056 l 236 1264 l 314 1322 l 479 1161 l 644 1322 l 722 1264 l 556 1056 l 403 1056 z "},"Ç":{"ha":881,"x_min":76,"x_max":833,"o":"m 483 846 q 307 769 371 846 q 243 558 243 693 l 243 411 q 307 200 243 276 q 483 124 371 124 q 626 169 571 124 q 707 285 681 214 l 833 208 q 704 48 786 107 q 503 -17 622 -11 l 490 -81 l 494 -86 q 524 -79 510 -82 q 554 -76 539 -76 q 623 -99 594 -76 q 651 -171 651 -122 q 638 -225 651 -203 q 601 -262 624 -247 q 548 -283 578 -276 q 485 -290 518 -290 q 385 -271 422 -290 q 332 -232 349 -251 l 390 -165 q 424 -194 403 -182 q 478 -206 446 -206 q 522 -196 504 -206 q 539 -165 539 -186 q 520 -133 539 -149 q 440 -110 501 -117 l 406 -106 l 424 -12 q 168 133 260 7 q 76 485 76 260 q 104 700 76 607 q 185 857 132 793 q 313 953 238 921 q 483 986 389 986 q 695 931 610 986 q 829 767 781 875 l 697 694 q 620 805 672 764 q 483 846 568 846 z "},"Ĉ":{"ha":881,"x_min":76,"x_max":833,"o":"m 483 -17 q 185 112 293 -17 q 76 485 76 240 q 104 700 76 607 q 185 857 132 793 q 313 953 238 921 q 483 986 389 986 q 695 931 610 986 q 829 767 781 875 l 697 694 q 620 805 672 764 q 483 846 568 846 q 307 769 371 846 q 243 558 243 693 l 243 411 q 307 200 243 276 q 483 124 371 124 q 626 169 571 124 q 707 285 681 214 l 833 208 q 697 43 785 103 q 483 -17 610 -17 m 556 1311 l 722 1103 l 644 1044 l 479 1206 l 314 1044 l 236 1103 l 403 1311 l 556 1311 z "},"Ċ":{"ha":881,"x_min":76,"x_max":833,"o":"m 483 -17 q 185 112 293 -17 q 76 485 76 240 q 104 700 76 607 q 185 857 132 793 q 313 953 238 921 q 483 986 389 986 q 695 931 610 986 q 829 767 781 875 l 697 694 q 620 805 672 764 q 483 846 568 846 q 307 769 371 846 q 243 558 243 693 l 243 411 q 307 200 243 276 q 483 124 371 124 q 626 169 571 124 q 707 285 681 214 l 833 208 q 697 43 785 103 q 483 -17 610 -17 m 479 1067 q 404 1090 426 1067 q 382 1150 382 1114 l 382 1179 q 404 1239 382 1215 q 479 1263 426 1263 q 554 1239 532 1263 q 576 1179 576 1215 l 576 1150 q 554 1090 576 1114 q 479 1067 532 1067 z "},"Ď":{"ha":949,"x_min":119,"x_max":872,"o":"m 119 969 l 463 969 q 631 939 556 969 q 760 848 707 908 q 843 697 814 788 q 872 485 872 606 q 843 273 872 364 q 760 122 814 182 q 631 31 707 61 q 463 0 556 0 l 119 0 l 119 969 m 463 139 q 638 207 571 139 q 704 407 704 275 l 704 563 q 638 763 704 694 q 463 831 571 831 l 276 831 l 276 139 l 463 139 m 360 1056 l 193 1264 l 271 1322 l 436 1161 l 601 1322 l 679 1264 l 513 1056 l 360 1056 z "},"Đ":{"ha":954,"x_min":18,"x_max":878,"o":"m 125 444 l 18 444 l 18 564 l 125 564 l 125 969 l 468 969 q 637 939 561 969 q 766 848 713 908 q 849 697 819 788 q 878 485 878 606 q 849 273 878 364 q 766 122 819 182 q 637 31 713 61 q 468 0 561 0 l 125 0 l 125 444 m 468 139 q 643 207 576 139 q 710 407 710 275 l 710 563 q 643 763 710 694 q 468 831 576 831 l 282 831 l 282 564 l 463 564 l 463 444 l 282 444 l 282 139 l 468 139 z "},"Ð":{"ha":954,"x_min":18,"x_max":878,"o":"m 125 444 l 18 444 l 18 564 l 125 564 l 125 969 l 468 969 q 637 939 561 969 q 766 848 713 908 q 849 697 819 788 q 878 485 878 606 q 849 273 878 364 q 766 122 819 182 q 637 31 713 61 q 468 0 561 0 l 125 0 l 125 444 m 468 139 q 643 207 576 139 q 710 407 710 275 l 710 563 q 643 763 710 694 q 468 831 576 831 l 282 831 l 282 564 l 463 564 l 463 444 l 282 444 l 282 139 l 468 139 z "},"É":{"ha":824,"x_min":119,"x_max":740,"o":"m 119 0 l 119 969 l 740 969 l 740 831 l 276 831 l 276 561 l 697 561 l 697 422 l 276 422 l 276 139 l 740 139 l 740 0 l 119 0 m 444 1040 l 350 1085 l 476 1335 l 608 1271 l 444 1040 z "},"Ĕ":{"ha":824,"x_min":119,"x_max":740,"o":"m 119 0 l 119 969 l 740 969 l 740 831 l 276 831 l 276 561 l 697 561 l 697 422 l 276 422 l 276 139 l 740 139 l 740 0 l 119 0 m 428 1049 q 330 1068 369 1049 q 264 1117 290 1088 q 221 1181 238 1146 q 194 1249 204 1217 l 278 1292 l 306 1246 q 355 1183 329 1206 q 428 1160 381 1160 q 501 1183 475 1160 q 550 1246 526 1206 l 578 1292 l 661 1249 q 634 1181 650 1217 q 592 1117 618 1146 q 526 1068 565 1088 q 428 1049 486 1049 z "},"Ě":{"ha":824,"x_min":119,"x_max":740,"o":"m 119 0 l 119 969 l 740 969 l 740 831 l 276 831 l 276 561 l 697 561 l 697 422 l 276 422 l 276 139 l 740 139 l 740 0 l 119 0 m 353 1056 l 186 1264 l 264 1322 l 429 1161 l 594 1322 l 672 1264 l 506 1056 l 353 1056 z "},"Ê":{"ha":824,"x_min":119,"x_max":740,"o":"m 119 0 l 119 969 l 740 969 l 740 831 l 276 831 l 276 561 l 697 561 l 697 422 l 276 422 l 276 139 l 740 139 l 740 0 l 119 0 m 506 1311 l 672 1103 l 594 1044 l 429 1206 l 264 1044 l 186 1103 l 353 1311 l 506 1311 z "},"Ë":{"ha":824,"x_min":119,"x_max":740,"o":"m 119 0 l 119 969 l 740 969 l 740 831 l 276 831 l 276 561 l 697 561 l 697 422 l 276 422 l 276 139 l 740 139 l 740 0 l 119 0 m 290 1078 q 223 1099 243 1078 q 203 1153 203 1121 l 203 1178 q 223 1231 203 1210 q 290 1253 243 1253 q 358 1231 338 1253 q 378 1178 378 1210 l 378 1153 q 358 1099 378 1121 q 290 1078 338 1078 m 568 1078 q 501 1099 521 1078 q 481 1153 481 1121 l 481 1178 q 501 1231 481 1210 q 568 1253 521 1253 q 635 1231 615 1253 q 656 1178 656 1210 l 656 1153 q 635 1099 656 1121 q 568 1078 615 1078 z "},"Ė":{"ha":824,"x_min":119,"x_max":740,"o":"m 119 0 l 119 969 l 740 969 l 740 831 l 276 831 l 276 561 l 697 561 l 697 422 l 276 422 l 276 139 l 740 139 l 740 0 l 119 0 m 429 1067 q 354 1090 376 1067 q 332 1150 332 1114 l 332 1179 q 354 1239 332 1215 q 429 1263 376 1263 q 504 1239 482 1263 q 526 1179 526 1215 l 526 1150 q 504 1090 526 1114 q 429 1067 482 1067 z "},"Ẹ":{"ha":824,"x_min":119,"x_max":740,"o":"m 119 0 l 119 969 l 740 969 l 740 831 l 276 831 l 276 561 l 697 561 l 697 422 l 276 422 l 276 139 l 740 139 l 740 0 l 119 0 m 429 -256 q 361 -235 382 -256 q 340 -182 340 -214 l 340 -157 q 361 -104 340 -125 q 429 -83 382 -83 q 497 -104 476 -83 q 518 -157 518 -125 l 518 -182 q 497 -235 518 -214 q 429 -256 476 -256 z "},"È":{"ha":824,"x_min":119,"x_max":740,"o":"m 119 0 l 119 969 l 740 969 l 740 831 l 276 831 l 276 561 l 697 561 l 697 422 l 276 422 l 276 139 l 740 139 l 740 0 l 119 0 m 250 1271 l 382 1335 l 508 1085 l 414 1040 l 250 1271 z "},"Ẻ":{"ha":824,"x_min":119,"x_max":740,"o":"m 119 0 l 119 969 l 740 969 l 740 831 l 276 831 l 276 561 l 697 561 l 697 422 l 276 422 l 276 139 l 740 139 l 740 0 l 119 0 m 292 1315 l 463 1315 q 551 1290 526 1315 q 576 1228 576 1264 q 557 1153 576 1193 q 504 1071 538 1113 l 468 1028 l 388 1067 l 457 1204 l 292 1204 l 292 1315 z "},"Ē":{"ha":824,"x_min":119,"x_max":740,"o":"m 119 0 l 119 969 l 740 969 l 740 831 l 276 831 l 276 561 l 697 561 l 697 422 l 276 422 l 276 139 l 740 139 l 740 0 l 119 0 m 226 1224 l 632 1224 l 632 1108 l 226 1108 l 226 1224 z "},"Ę":{"ha":824,"x_min":119,"x_max":776,"o":"m 119 969 l 740 969 l 740 831 l 276 831 l 276 561 l 697 561 l 697 422 l 276 422 l 276 139 l 740 139 l 740 0 q 665 -61 693 -36 q 621 -104 636 -86 q 601 -135 606 -122 q 596 -160 596 -147 q 610 -194 596 -185 q 643 -204 624 -204 q 683 -194 665 -204 q 714 -168 700 -183 l 776 -229 q 726 -274 761 -257 q 635 -290 690 -290 q 577 -284 604 -290 q 529 -265 550 -278 q 497 -231 508 -251 q 485 -179 485 -210 q 527 -83 485 -124 q 636 -7 569 -43 l 635 0 l 119 0 l 119 969 z "},"Ẽ":{"ha":824,"x_min":119,"x_max":740,"o":"m 119 0 l 119 969 l 740 969 l 740 831 l 276 831 l 276 561 l 697 561 l 697 422 l 276 422 l 276 139 l 740 139 l 740 0 l 119 0 m 532 1074 q 472 1085 497 1074 q 424 1107 447 1096 q 367 1131 392 1122 q 321 1139 343 1139 q 279 1130 297 1139 q 240 1103 261 1121 l 183 1175 q 240 1231 204 1207 q 326 1256 275 1256 q 386 1244 361 1256 q 435 1222 411 1233 q 491 1199 467 1207 q 538 1190 515 1190 q 579 1199 561 1190 q 618 1226 597 1208 l 675 1154 q 619 1098 654 1122 q 532 1074 583 1074 z "},"Ế":{"ha":824,"x_min":119,"x_max":818,"o":"m 119 0 l 119 969 l 740 969 l 740 831 l 276 831 l 276 561 l 697 561 l 697 422 l 276 422 l 276 139 l 740 139 l 740 0 l 119 0 m 654 1221 l 568 1263 l 694 1513 l 818 1451 l 654 1221 m 497 1288 l 671 1093 l 597 1031 l 429 1182 l 261 1031 l 188 1093 l 361 1288 l 497 1288 z "},"Ệ":{"ha":824,"x_min":119,"x_max":740,"o":"m 119 0 l 119 969 l 740 969 l 740 831 l 276 831 l 276 561 l 697 561 l 697 422 l 276 422 l 276 139 l 740 139 l 740 0 l 119 0 m 506 1311 l 672 1103 l 594 1044 l 429 1206 l 264 1044 l 186 1103 l 353 1311 l 506 1311 m 429 -256 q 361 -235 382 -256 q 340 -182 340 -214 l 340 -157 q 361 -104 340 -125 q 429 -83 382 -83 q 497 -104 476 -83 q 518 -157 518 -125 l 518 -182 q 497 -235 518 -214 q 429 -256 476 -256 z "},"Ề":{"ha":824,"x_min":40,"x_max":740,"o":"m 119 0 l 119 969 l 740 969 l 740 831 l 276 831 l 276 561 l 697 561 l 697 422 l 276 422 l 276 139 l 740 139 l 740 0 l 119 0 m 40 1451 l 164 1513 l 290 1263 l 204 1221 l 40 1451 m 497 1288 l 671 1093 l 597 1031 l 429 1182 l 261 1031 l 188 1093 l 361 1288 l 497 1288 z "},"Ể":{"ha":824,"x_min":119,"x_max":772,"o":"m 119 0 l 119 969 l 740 969 l 740 831 l 276 831 l 276 561 l 697 561 l 697 422 l 276 422 l 276 139 l 740 139 l 740 0 l 119 0 m 492 1496 l 658 1496 q 747 1470 721 1496 q 772 1410 772 1444 q 750 1333 772 1374 q 696 1251 728 1293 l 660 1208 l 586 1247 l 660 1390 l 492 1390 l 492 1496 m 497 1288 l 671 1093 l 597 1031 l 429 1182 l 261 1031 l 188 1093 l 361 1288 l 497 1288 z "},"Ễ":{"ha":824,"x_min":119,"x_max":740,"o":"m 119 0 l 119 969 l 740 969 l 740 831 l 276 831 l 276 561 l 697 561 l 697 422 l 276 422 l 276 139 l 740 139 l 740 0 l 119 0 m 328 1493 q 388 1482 363 1493 q 436 1460 413 1471 q 492 1436 468 1444 q 539 1428 517 1428 q 581 1437 563 1428 q 619 1464 599 1446 l 674 1399 q 617 1342 653 1367 q 531 1318 582 1318 q 471 1328 496 1318 q 422 1350 446 1339 q 366 1374 390 1365 q 319 1382 342 1382 q 278 1373 296 1382 q 239 1346 260 1364 l 185 1413 q 241 1469 206 1444 q 328 1493 276 1493 m 497 1279 l 669 1093 l 597 1031 l 429 1176 l 261 1031 l 189 1093 l 361 1279 l 497 1279 z "},"Ə":{"ha":989,"x_min":76,"x_max":913,"o":"m 746 557 q 727 677 746 624 q 674 768 708 731 q 594 826 640 806 q 493 846 547 846 q 340 799 399 846 q 253 671 282 753 l 115 728 q 169 829 136 782 q 250 911 203 876 q 358 966 297 946 q 493 986 419 986 q 667 953 589 986 q 799 856 744 919 q 883 698 854 792 q 913 485 913 604 q 883 272 913 365 q 799 114 854 178 q 667 17 744 50 q 493 -17 589 -17 q 320 15 397 -17 q 189 110 243 47 q 106 267 135 174 q 76 485 76 361 l 76 532 l 746 532 l 746 557 m 260 292 q 313 201 279 239 q 393 144 347 164 q 493 124 439 124 q 594 144 547 124 q 674 201 640 164 q 726 292 708 239 q 746 403 744 342 l 242 403 q 260 292 243 342 z "},"Ğ":{"ha":979,"x_min":76,"x_max":881,"o":"m 743 147 l 738 147 q 655 30 722 76 q 476 -17 588 -17 q 317 16 390 -17 q 190 112 243 49 q 106 269 136 175 q 76 485 76 363 q 107 699 76 606 q 193 857 138 793 q 326 953 249 921 q 500 986 404 986 q 721 928 631 986 q 861 768 811 871 l 733 693 q 647 803 706 761 q 500 846 589 846 q 315 772 385 846 q 244 564 244 699 l 244 406 q 315 197 244 271 q 500 124 385 124 q 588 135 546 124 q 660 170 629 147 q 710 227 692 193 q 729 307 729 261 l 729 382 l 529 382 l 529 517 l 881 517 l 881 0 l 743 0 l 743 147 m 494 1049 q 397 1068 436 1049 q 331 1117 357 1088 q 288 1181 304 1146 q 261 1249 271 1217 l 344 1292 l 372 1246 q 422 1183 396 1206 q 494 1160 447 1160 q 567 1183 542 1160 q 617 1246 593 1206 l 644 1292 l 728 1249 q 701 1181 717 1217 q 658 1117 685 1146 q 592 1068 632 1088 q 494 1049 553 1049 z "},"Ĝ":{"ha":979,"x_min":76,"x_max":881,"o":"m 743 147 l 738 147 q 655 30 722 76 q 476 -17 588 -17 q 317 16 390 -17 q 190 112 243 49 q 106 269 136 175 q 76 485 76 363 q 107 699 76 606 q 193 857 138 793 q 326 953 249 921 q 500 986 404 986 q 721 928 631 986 q 861 768 811 871 l 733 693 q 647 803 706 761 q 500 846 589 846 q 315 772 385 846 q 244 564 244 699 l 244 406 q 315 197 244 271 q 500 124 385 124 q 588 135 546 124 q 660 170 629 147 q 710 227 692 193 q 729 307 729 261 l 729 382 l 529 382 l 529 517 l 881 517 l 881 0 l 743 0 l 743 147 m 572 1311 l 739 1103 l 661 1044 l 496 1206 l 331 1044 l 253 1103 l 419 1311 l 572 1311 z "},"Ģ":{"ha":979,"x_min":76,"x_max":881,"o":"m 743 147 l 738 147 q 655 30 722 76 q 476 -17 588 -17 q 317 16 390 -17 q 190 112 243 49 q 106 269 136 175 q 76 485 76 363 q 107 699 76 606 q 193 857 138 793 q 326 953 249 921 q 500 986 404 986 q 721 928 631 986 q 861 768 811 871 l 733 693 q 647 803 706 761 q 500 846 589 846 q 315 772 385 846 q 244 564 244 699 l 244 406 q 315 197 244 271 q 500 124 385 124 q 588 135 546 124 q 660 170 629 147 q 710 227 692 193 q 729 307 729 261 l 729 382 l 529 382 l 529 517 l 881 517 l 881 0 l 743 0 l 743 147 m 483 -78 q 565 -151 565 -78 l 565 -168 q 540 -275 565 -224 q 478 -358 514 -326 l 382 -358 q 431 -301 414 -328 q 458 -237 449 -274 q 415 -213 428 -233 q 401 -167 401 -193 l 401 -151 q 483 -78 401 -78 z "},"Ġ":{"ha":979,"x_min":76,"x_max":881,"o":"m 743 147 l 738 147 q 655 30 722 76 q 476 -17 588 -17 q 317 16 390 -17 q 190 112 243 49 q 106 269 136 175 q 76 485 76 363 q 107 699 76 606 q 193 857 138 793 q 326 953 249 921 q 500 986 404 986 q 721 928 631 986 q 861 768 811 871 l 733 693 q 647 803 706 761 q 500 846 589 846 q 315 772 385 846 q 244 564 244 699 l 244 406 q 315 197 244 271 q 500 124 385 124 q 588 135 546 124 q 660 170 629 147 q 710 227 692 193 q 729 307 729 261 l 729 382 l 529 382 l 529 517 l 881 517 l 881 0 l 743 0 l 743 147 m 496 1067 q 421 1090 443 1067 q 399 1150 399 1114 l 399 1179 q 421 1239 399 1215 q 496 1263 443 1263 q 571 1239 549 1263 q 593 1179 593 1215 l 593 1150 q 571 1090 593 1114 q 496 1067 549 1067 z "},"Ħ":{"ha":1003,"x_min":26,"x_max":976,"o":"m 721 422 l 282 422 l 282 0 l 125 0 l 125 713 l 26 713 l 26 831 l 125 831 l 125 969 l 282 969 l 282 831 l 721 831 l 721 969 l 878 969 l 878 831 l 976 831 l 976 713 l 878 713 l 878 0 l 721 0 l 721 422 m 721 561 l 721 713 l 282 713 l 282 561 l 721 561 z "},"Ĥ":{"ha":992,"x_min":119,"x_max":872,"o":"m 715 422 l 276 422 l 276 0 l 119 0 l 119 969 l 276 969 l 276 561 l 715 561 l 715 969 l 872 969 l 872 0 l 715 0 l 715 422 m 572 1311 l 739 1103 l 661 1044 l 496 1206 l 331 1044 l 253 1103 l 419 1311 l 572 1311 z "},"Í":{"ha":578,"x_min":78,"x_max":500,"o":"m 78 0 l 78 128 l 210 128 l 210 842 l 78 842 l 78 969 l 500 969 l 500 842 l 367 842 l 367 128 l 500 128 l 500 0 l 78 0 m 304 1040 l 210 1085 l 336 1335 l 468 1271 l 304 1040 z "},"Ĭ":{"ha":578,"x_min":54,"x_max":521,"o":"m 78 0 l 78 128 l 210 128 l 210 842 l 78 842 l 78 969 l 500 969 l 500 842 l 367 842 l 367 128 l 500 128 l 500 0 l 78 0 m 288 1049 q 190 1068 229 1049 q 124 1117 150 1088 q 81 1181 97 1146 q 54 1249 64 1217 l 138 1292 l 165 1246 q 215 1183 189 1206 q 288 1160 240 1160 q 360 1183 335 1160 q 410 1246 386 1206 l 438 1292 l 521 1249 q 494 1181 510 1217 q 451 1117 478 1146 q 385 1068 425 1088 q 288 1049 346 1049 z "},"Î":{"ha":578,"x_min":46,"x_max":532,"o":"m 78 0 l 78 128 l 210 128 l 210 842 l 78 842 l 78 969 l 500 969 l 500 842 l 367 842 l 367 128 l 500 128 l 500 0 l 78 0 m 365 1311 l 532 1103 l 454 1044 l 289 1206 l 124 1044 l 46 1103 l 213 1311 l 365 1311 z "},"Ï":{"ha":578,"x_min":63,"x_max":515,"o":"m 78 0 l 78 128 l 210 128 l 210 842 l 78 842 l 78 969 l 500 969 l 500 842 l 367 842 l 367 128 l 500 128 l 500 0 l 78 0 m 150 1078 q 83 1099 103 1078 q 63 1153 63 1121 l 63 1178 q 83 1231 63 1210 q 150 1253 103 1253 q 217 1231 197 1253 q 238 1178 238 1210 l 238 1153 q 217 1099 238 1121 q 150 1078 197 1078 m 428 1078 q 360 1099 381 1078 q 340 1153 340 1121 l 340 1178 q 360 1231 340 1210 q 428 1253 381 1253 q 495 1231 475 1253 q 515 1178 515 1210 l 515 1153 q 495 1099 515 1121 q 428 1078 475 1078 z "},"İ":{"ha":578,"x_min":78,"x_max":500,"o":"m 78 0 l 78 128 l 210 128 l 210 842 l 78 842 l 78 969 l 500 969 l 500 842 l 367 842 l 367 128 l 500 128 l 500 0 l 78 0 m 289 1067 q 214 1090 236 1067 q 192 1150 192 1114 l 192 1179 q 214 1239 192 1215 q 289 1263 236 1263 q 364 1239 342 1263 q 386 1179 386 1215 l 386 1150 q 364 1090 386 1114 q 289 1067 342 1067 z "},"Ị":{"ha":578,"x_min":78,"x_max":500,"o":"m 78 0 l 78 128 l 210 128 l 210 842 l 78 842 l 78 969 l 500 969 l 500 842 l 367 842 l 367 128 l 500 128 l 500 0 l 78 0 m 288 -256 q 219 -235 240 -256 q 199 -182 199 -214 l 199 -157 q 219 -104 199 -125 q 288 -83 240 -83 q 356 -104 335 -83 q 376 -157 376 -125 l 376 -182 q 356 -235 376 -214 q 288 -256 335 -256 z "},"Ì":{"ha":578,"x_min":78,"x_max":500,"o":"m 78 0 l 78 128 l 210 128 l 210 842 l 78 842 l 78 969 l 500 969 l 500 842 l 367 842 l 367 128 l 500 128 l 500 0 l 78 0 m 110 1271 l 242 1335 l 368 1085 l 274 1040 l 110 1271 z "},"Ỉ":{"ha":578,"x_min":78,"x_max":500,"o":"m 78 0 l 78 128 l 210 128 l 210 842 l 78 842 l 78 969 l 500 969 l 500 842 l 367 842 l 367 128 l 500 128 l 500 0 l 78 0 m 150 1315 l 321 1315 q 410 1290 385 1315 q 435 1228 435 1264 q 415 1153 435 1193 q 363 1071 396 1113 l 326 1028 l 246 1067 l 315 1204 l 150 1204 l 150 1315 z "},"Ī":{"ha":578,"x_min":78,"x_max":500,"o":"m 78 0 l 78 128 l 210 128 l 210 842 l 78 842 l 78 969 l 500 969 l 500 842 l 367 842 l 367 128 l 500 128 l 500 0 l 78 0 m 86 1224 l 492 1224 l 492 1108 l 86 1108 l 86 1224 z "},"Į":{"ha":578,"x_min":78,"x_max":536,"o":"m 78 128 l 210 128 l 210 842 l 78 842 l 78 969 l 500 969 l 500 842 l 367 842 l 367 128 l 500 128 l 500 0 q 424 -61 453 -36 q 380 -104 396 -86 q 359 -135 364 -122 q 354 -160 354 -147 q 368 -194 354 -185 q 401 -204 382 -204 q 441 -194 424 -204 q 472 -168 458 -183 l 536 -229 q 485 -274 521 -257 q 393 -290 449 -290 q 335 -284 363 -290 q 288 -265 308 -278 q 256 -231 268 -251 q 244 -179 244 -210 q 284 -86 244 -125 q 394 -7 324 -47 l 393 0 l 78 0 l 78 128 z "},"Ĩ":{"ha":578,"x_min":43,"x_max":535,"o":"m 78 0 l 78 128 l 210 128 l 210 842 l 78 842 l 78 969 l 500 969 l 500 842 l 367 842 l 367 128 l 500 128 l 500 0 l 78 0 m 392 1074 q 332 1085 357 1074 q 283 1107 307 1096 q 227 1131 251 1122 q 181 1139 203 1139 q 139 1130 157 1139 q 100 1103 121 1121 l 43 1175 q 99 1231 64 1207 q 186 1256 135 1256 q 246 1244 221 1256 q 294 1222 271 1233 q 351 1199 326 1207 q 397 1190 375 1190 q 439 1199 421 1190 q 478 1226 457 1208 l 535 1154 q 478 1098 514 1122 q 392 1074 443 1074 z "},"Ĳ":{"ha":903,"x_min":114,"x_max":789,"o":"m 789 969 l 789 304 q 765 170 789 229 q 698 69 742 111 q 592 6 654 28 q 451 -17 529 -17 q 322 2 378 -17 q 224 53 265 21 q 158 132 183 86 q 122 232 132 178 l 267 264 q 326 163 281 201 q 453 124 371 124 q 582 165 532 124 q 632 296 632 206 l 632 838 l 460 838 l 460 969 l 789 969 m 114 969 l 271 969 l 271 414 l 114 414 l 114 969 z "},"Ĵ":{"ha":738,"x_min":38,"x_max":633,"o":"m 624 969 l 624 264 q 603 149 624 200 q 544 60 582 97 q 451 3 506 24 q 329 -17 396 -17 q 130 51 203 -17 q 38 226 57 118 l 182 258 q 230 160 194 196 q 329 124 265 124 q 429 163 392 124 q 467 281 467 201 l 467 839 l 150 839 l 150 969 l 624 969 m 467 1311 l 633 1103 l 556 1044 l 390 1206 l 225 1044 l 147 1103 l 314 1311 l 467 1311 z "},"Ķ":{"ha":917,"x_min":119,"x_max":893,"o":"m 410 453 l 276 300 l 276 0 l 119 0 l 119 969 l 276 969 l 276 478 l 282 478 l 421 654 l 682 969 l 865 969 l 519 561 l 893 0 l 704 0 l 410 453 m 482 -78 q 564 -151 564 -78 l 564 -168 q 538 -275 564 -224 q 476 -358 513 -326 l 381 -358 q 430 -301 413 -328 q 457 -237 447 -274 q 413 -213 426 -233 q 400 -167 400 -193 l 400 -151 q 482 -78 400 -78 z "},"Ĺ":{"ha":713,"x_min":119,"x_max":671,"o":"m 119 0 l 119 969 l 276 969 l 276 139 l 671 139 l 671 0 l 119 0 m 215 1040 l 121 1085 l 247 1335 l 379 1271 l 215 1040 z "},"Ľ":{"ha":713,"x_min":119,"x_max":671,"o":"m 119 0 l 119 969 l 276 969 l 276 139 l 671 139 l 671 0 l 119 0 m 482 753 l 382 753 l 396 1028 l 563 1028 l 482 753 z "},"Ļ":{"ha":713,"x_min":119,"x_max":671,"o":"m 119 0 l 119 969 l 276 969 l 276 139 l 671 139 l 671 0 l 119 0 m 406 -78 q 488 -151 488 -78 l 488 -168 q 462 -275 488 -224 q 400 -358 436 -326 l 304 -358 q 353 -301 336 -328 q 381 -237 371 -274 q 337 -213 350 -233 q 324 -167 324 -193 l 324 -151 q 406 -78 324 -78 z "},"Ŀ":{"ha":713,"x_min":119,"x_max":671,"o":"m 119 0 l 119 969 l 276 969 l 276 139 l 671 139 l 671 0 l 119 0 m 553 425 q 481 447 503 425 q 460 504 460 469 l 460 529 q 481 586 460 564 q 553 608 503 608 q 624 586 603 608 q 646 529 646 564 l 646 504 q 624 447 646 469 q 553 425 603 425 z "},"Ł":{"ha":725,"x_min":-10,"x_max":676,"o":"m 676 0 l 125 0 l 125 360 l -10 315 l -10 436 l 125 481 l 125 969 l 282 969 l 282 532 l 519 611 l 519 488 l 282 410 l 282 139 l 676 139 l 676 0 z "},"Ń":{"ha":992,"x_min":119,"x_max":872,"o":"m 381 536 l 274 742 l 269 742 l 269 0 l 119 0 l 119 969 l 294 969 l 611 433 l 718 228 l 722 228 l 722 969 l 872 969 l 872 0 l 697 0 l 381 536 m 511 1040 l 417 1085 l 543 1335 l 675 1271 l 511 1040 z "},"Ň":{"ha":992,"x_min":119,"x_max":872,"o":"m 381 536 l 274 742 l 269 742 l 269 0 l 119 0 l 119 969 l 294 969 l 611 433 l 718 228 l 722 228 l 722 969 l 872 969 l 872 0 l 697 0 l 381 536 m 419 1056 l 253 1264 l 331 1322 l 496 1161 l 661 1322 l 739 1264 l 572 1056 l 419 1056 z "},"Ņ":{"ha":992,"x_min":119,"x_max":872,"o":"m 381 536 l 274 742 l 269 742 l 269 0 l 119 0 l 119 969 l 294 969 l 611 433 l 718 228 l 722 228 l 722 969 l 872 969 l 872 0 l 697 0 l 381 536 m 494 -78 q 576 -151 576 -78 l 576 -168 q 551 -275 576 -224 q 489 -358 525 -326 l 393 -358 q 442 -301 425 -328 q 469 -237 460 -274 q 426 -213 439 -233 q 413 -167 413 -193 l 413 -151 q 494 -78 413 -78 z "},"Ñ":{"ha":992,"x_min":119,"x_max":872,"o":"m 381 536 l 274 742 l 269 742 l 269 0 l 119 0 l 119 969 l 294 969 l 611 433 l 718 228 l 722 228 l 722 969 l 872 969 l 872 0 l 697 0 l 381 536 m 599 1074 q 539 1085 564 1074 q 490 1107 514 1096 q 434 1131 458 1122 q 388 1139 410 1139 q 346 1130 364 1139 q 307 1103 328 1121 l 250 1175 q 306 1231 271 1207 q 393 1256 342 1256 q 453 1244 428 1256 q 501 1222 478 1233 q 558 1199 533 1207 q 604 1190 582 1190 q 646 1199 628 1190 q 685 1226 664 1208 l 742 1154 q 685 1098 721 1122 q 599 1074 650 1074 z "},"Ŋ":{"ha":992,"x_min":119,"x_max":872,"o":"m 119 0 l 119 969 l 294 969 l 611 433 l 718 228 l 722 228 l 722 969 l 872 969 l 872 -93 q 829 -228 872 -179 q 694 -278 786 -278 l 604 -278 l 604 -150 l 722 -150 l 722 0 l 697 0 l 381 536 l 274 742 l 269 742 l 269 0 l 119 0 z "},"Ó":{"ha":989,"x_min":76,"x_max":913,"o":"m 494 -17 q 323 16 400 -17 q 191 112 246 49 q 106 269 136 175 q 76 485 76 363 q 106 701 76 607 q 191 858 136 794 q 323 953 246 921 q 494 986 400 986 q 666 953 589 986 q 798 858 743 921 q 883 701 853 794 q 913 485 913 607 q 883 269 913 363 q 798 112 853 175 q 666 16 743 49 q 494 -17 589 -17 m 494 124 q 597 143 550 124 q 676 199 643 163 q 726 289 708 236 q 744 408 744 342 l 744 561 q 726 681 744 628 q 676 770 708 733 q 597 826 643 807 q 494 846 550 846 q 392 826 438 846 q 313 770 346 807 q 263 681 281 733 q 244 561 244 628 l 244 408 q 263 289 244 342 q 313 199 281 236 q 392 143 346 163 q 494 124 438 124 m 510 1040 l 415 1085 l 542 1335 l 674 1271 l 510 1040 z "},"Ŏ":{"ha":989,"x_min":76,"x_max":913,"o":"m 494 -17 q 323 16 400 -17 q 191 112 246 49 q 106 269 136 175 q 76 485 76 363 q 106 701 76 607 q 191 858 136 794 q 323 953 246 921 q 494 986 400 986 q 666 953 589 986 q 798 858 743 921 q 883 701 853 794 q 913 485 913 607 q 883 269 913 363 q 798 112 853 175 q 666 16 743 49 q 494 -17 589 -17 m 494 124 q 597 143 550 124 q 676 199 643 163 q 726 289 708 236 q 744 408 744 342 l 744 561 q 726 681 744 628 q 676 770 708 733 q 597 826 643 807 q 494 846 550 846 q 392 826 438 846 q 313 770 346 807 q 263 681 281 733 q 244 561 244 628 l 244 408 q 263 289 244 342 q 313 199 281 236 q 392 143 346 163 q 494 124 438 124 m 493 1049 q 395 1068 435 1049 q 329 1117 356 1088 q 286 1181 303 1146 q 260 1249 269 1217 l 343 1292 l 371 1246 q 420 1183 394 1206 q 493 1160 446 1160 q 566 1183 540 1160 q 615 1246 592 1206 l 643 1292 l 726 1249 q 699 1181 715 1217 q 657 1117 683 1146 q 591 1068 631 1088 q 493 1049 551 1049 z "},"Ô":{"ha":989,"x_min":76,"x_max":913,"o":"m 494 -17 q 323 16 400 -17 q 191 112 246 49 q 106 269 136 175 q 76 485 76 363 q 106 701 76 607 q 191 858 136 794 q 323 953 246 921 q 494 986 400 986 q 666 953 589 986 q 798 858 743 921 q 883 701 853 794 q 913 485 913 607 q 883 269 913 363 q 798 112 853 175 q 666 16 743 49 q 494 -17 589 -17 m 494 124 q 597 143 550 124 q 676 199 643 163 q 726 289 708 236 q 744 408 744 342 l 744 561 q 726 681 744 628 q 676 770 708 733 q 597 826 643 807 q 494 846 550 846 q 392 826 438 846 q 313 770 346 807 q 263 681 281 733 q 244 561 244 628 l 244 408 q 263 289 244 342 q 313 199 281 236 q 392 143 346 163 q 494 124 438 124 m 571 1311 l 738 1103 l 660 1044 l 494 1206 l 329 1044 l 251 1103 l 418 1311 l 571 1311 z "},"Ö":{"ha":989,"x_min":76,"x_max":913,"o":"m 494 -17 q 323 16 400 -17 q 191 112 246 49 q 106 269 136 175 q 76 485 76 363 q 106 701 76 607 q 191 858 136 794 q 323 953 246 921 q 494 986 400 986 q 666 953 589 986 q 798 858 743 921 q 883 701 853 794 q 913 485 913 607 q 883 269 913 363 q 798 112 853 175 q 666 16 743 49 q 494 -17 589 -17 m 494 124 q 597 143 550 124 q 676 199 643 163 q 726 289 708 236 q 744 408 744 342 l 744 561 q 726 681 744 628 q 676 770 708 733 q 597 826 643 807 q 494 846 550 846 q 392 826 438 846 q 313 770 346 807 q 263 681 281 733 q 244 561 244 628 l 244 408 q 263 289 244 342 q 313 199 281 236 q 392 143 346 163 q 494 124 438 124 m 356 1078 q 288 1099 308 1078 q 268 1153 268 1121 l 268 1178 q 288 1231 268 1210 q 356 1253 308 1253 q 423 1231 403 1253 q 443 1178 443 1210 l 443 1153 q 423 1099 443 1121 q 356 1078 403 1078 m 633 1078 q 566 1099 586 1078 q 546 1153 546 1121 l 546 1178 q 566 1231 546 1210 q 633 1253 586 1253 q 701 1231 681 1253 q 721 1178 721 1210 l 721 1153 q 701 1099 721 1121 q 633 1078 681 1078 z "},"Ọ":{"ha":989,"x_min":76,"x_max":913,"o":"m 494 -17 q 323 16 400 -17 q 191 112 246 49 q 106 269 136 175 q 76 485 76 363 q 106 701 76 607 q 191 858 136 794 q 323 953 246 921 q 494 986 400 986 q 666 953 589 986 q 798 858 743 921 q 883 701 853 794 q 913 485 913 607 q 883 269 913 363 q 798 112 853 175 q 666 16 743 49 q 494 -17 589 -17 m 494 124 q 597 143 550 124 q 676 199 643 163 q 726 289 708 236 q 744 408 744 342 l 744 561 q 726 681 744 628 q 676 770 708 733 q 597 826 643 807 q 494 846 550 846 q 392 826 438 846 q 313 770 346 807 q 263 681 281 733 q 244 561 244 628 l 244 408 q 263 289 244 342 q 313 199 281 236 q 392 143 346 163 q 494 124 438 124 m 494 -256 q 426 -235 447 -256 q 406 -182 406 -214 l 406 -157 q 426 -104 406 -125 q 494 -83 447 -83 q 563 -104 542 -83 q 583 -157 583 -125 l 583 -182 q 563 -235 583 -214 q 494 -256 542 -256 z "},"Ò":{"ha":989,"x_min":76,"x_max":913,"o":"m 494 -17 q 323 16 400 -17 q 191 112 246 49 q 106 269 136 175 q 76 485 76 363 q 106 701 76 607 q 191 858 136 794 q 323 953 246 921 q 494 986 400 986 q 666 953 589 986 q 798 858 743 921 q 883 701 853 794 q 913 485 913 607 q 883 269 913 363 q 798 112 853 175 q 666 16 743 49 q 494 -17 589 -17 m 494 124 q 597 143 550 124 q 676 199 643 163 q 726 289 708 236 q 744 408 744 342 l 744 561 q 726 681 744 628 q 676 770 708 733 q 597 826 643 807 q 494 846 550 846 q 392 826 438 846 q 313 770 346 807 q 263 681 281 733 q 244 561 244 628 l 244 408 q 263 289 244 342 q 313 199 281 236 q 392 143 346 163 q 494 124 438 124 m 315 1271 l 447 1335 l 574 1085 l 479 1040 l 315 1271 z "},"Ỏ":{"ha":989,"x_min":76,"x_max":913,"o":"m 494 -17 q 323 16 400 -17 q 191 112 246 49 q 106 269 136 175 q 76 485 76 363 q 106 701 76 607 q 191 858 136 794 q 323 953 246 921 q 494 986 400 986 q 666 953 589 986 q 798 858 743 921 q 883 701 853 794 q 913 485 913 607 q 883 269 913 363 q 798 112 853 175 q 666 16 743 49 q 494 -17 589 -17 m 494 124 q 597 143 550 124 q 676 199 643 163 q 726 289 708 236 q 744 408 744 342 l 744 561 q 726 681 744 628 q 676 770 708 733 q 597 826 643 807 q 494 846 550 846 q 392 826 438 846 q 313 770 346 807 q 263 681 281 733 q 244 561 244 628 l 244 408 q 263 289 244 342 q 313 199 281 236 q 392 143 346 163 q 494 124 438 124 m 357 1315 l 528 1315 q 617 1290 592 1315 q 642 1228 642 1264 q 622 1153 642 1193 q 569 1071 603 1113 l 533 1028 l 453 1067 l 522 1204 l 357 1204 l 357 1315 z "},"Ő":{"ha":989,"x_min":76,"x_max":913,"o":"m 494 -17 q 323 16 400 -17 q 191 112 246 49 q 106 269 136 175 q 76 485 76 363 q 106 701 76 607 q 191 858 136 794 q 323 953 246 921 q 494 986 400 986 q 666 953 589 986 q 798 858 743 921 q 883 701 853 794 q 913 485 913 607 q 883 269 913 363 q 798 112 853 175 q 666 16 743 49 q 494 -17 589 -17 m 494 124 q 597 143 550 124 q 676 199 643 163 q 726 289 708 236 q 744 408 744 342 l 744 561 q 726 681 744 628 q 676 770 708 733 q 597 826 643 807 q 494 846 550 846 q 392 826 438 846 q 313 770 346 807 q 263 681 281 733 q 244 561 244 628 l 244 408 q 263 289 244 342 q 313 199 281 236 q 392 143 346 163 q 494 124 438 124 m 383 1040 l 297 1081 l 424 1332 l 547 1271 l 383 1040 m 632 1040 l 546 1081 l 672 1332 l 796 1271 l 632 1040 z "},"Ō":{"ha":989,"x_min":76,"x_max":913,"o":"m 494 -17 q 323 16 400 -17 q 191 112 246 49 q 106 269 136 175 q 76 485 76 363 q 106 701 76 607 q 191 858 136 794 q 323 953 246 921 q 494 986 400 986 q 666 953 589 986 q 798 858 743 921 q 883 701 853 794 q 913 485 913 607 q 883 269 913 363 q 798 112 853 175 q 666 16 743 49 q 494 -17 589 -17 m 494 124 q 597 143 550 124 q 676 199 643 163 q 726 289 708 236 q 744 408 744 342 l 744 561 q 726 681 744 628 q 676 770 708 733 q 597 826 643 807 q 494 846 550 846 q 392 826 438 846 q 313 770 346 807 q 263 681 281 733 q 244 561 244 628 l 244 408 q 263 289 244 342 q 313 199 281 236 q 392 143 346 163 q 494 124 438 124 m 292 1224 l 697 1224 l 697 1108 l 292 1108 l 292 1224 z "},"Ø":{"ha":989,"x_min":76,"x_max":913,"o":"m 494 -17 q 268 44 363 -17 l 189 -69 l 89 -4 l 179 126 q 103 278 131 189 q 76 485 76 368 q 106 701 76 607 q 191 858 136 794 q 323 953 246 921 q 494 986 400 986 q 721 925 626 986 l 800 1039 l 900 974 l 810 843 q 885 691 858 781 q 913 485 913 601 q 883 269 913 363 q 798 112 853 175 q 666 16 743 49 q 494 -17 589 -17 m 240 406 q 272 251 240 318 l 644 806 q 494 853 582 853 q 390 833 438 853 q 310 775 343 813 q 258 684 276 738 q 240 564 240 631 l 240 406 m 749 564 q 717 718 749 651 l 344 164 q 494 117 407 117 q 599 137 551 117 q 679 194 646 157 q 731 285 713 232 q 749 406 749 339 l 749 564 z "},"Ǿ":{"ha":989,"x_min":76,"x_max":913,"o":"m 494 -17 q 268 44 363 -17 l 189 -69 l 89 -4 l 179 126 q 103 278 131 189 q 76 485 76 368 q 106 701 76 607 q 191 858 136 794 q 323 953 246 921 q 494 986 400 986 q 721 925 626 986 l 800 1039 l 900 974 l 810 843 q 885 691 858 781 q 913 485 913 601 q 883 269 913 363 q 798 112 853 175 q 666 16 743 49 q 494 -17 589 -17 m 240 406 q 272 251 240 318 l 644 806 q 494 853 582 853 q 390 833 438 853 q 310 775 343 813 q 258 684 276 738 q 240 564 240 631 l 240 406 m 749 564 q 717 718 749 651 l 344 164 q 494 117 407 117 q 599 137 551 117 q 679 194 646 157 q 731 285 713 232 q 749 406 749 339 l 749 564 m 510 1040 l 415 1085 l 542 1335 l 674 1271 l 510 1040 z "},"Õ":{"ha":989,"x_min":76,"x_max":913,"o":"m 494 -17 q 323 16 400 -17 q 191 112 246 49 q 106 269 136 175 q 76 485 76 363 q 106 701 76 607 q 191 858 136 794 q 323 953 246 921 q 494 986 400 986 q 666 953 589 986 q 798 858 743 921 q 883 701 853 794 q 913 485 913 607 q 883 269 913 363 q 798 112 853 175 q 666 16 743 49 q 494 -17 589 -17 m 494 124 q 597 143 550 124 q 676 199 643 163 q 726 289 708 236 q 744 408 744 342 l 744 561 q 726 681 744 628 q 676 770 708 733 q 597 826 643 807 q 494 846 550 846 q 392 826 438 846 q 313 770 346 807 q 263 681 281 733 q 244 561 244 628 l 244 408 q 263 289 244 342 q 313 199 281 236 q 392 143 346 163 q 494 124 438 124 m 597 1074 q 538 1085 563 1074 q 489 1107 513 1096 q 433 1131 457 1122 q 386 1139 408 1139 q 344 1130 363 1139 q 306 1103 326 1121 l 249 1175 q 305 1231 269 1207 q 392 1256 340 1256 q 451 1244 426 1256 q 500 1222 476 1233 q 556 1199 532 1207 q 603 1190 581 1190 q 644 1199 626 1190 q 683 1226 663 1208 l 740 1154 q 684 1098 719 1122 q 597 1074 649 1074 z "},"Ơ":{"ha":989,"x_min":76,"x_max":928,"o":"m 928 1121 l 928 986 q 906 906 928 935 q 818 876 885 876 l 781 876 q 881 709 849 807 q 913 485 913 611 q 883 269 913 363 q 798 112 853 175 q 666 16 743 49 q 494 -17 589 -17 q 323 16 400 -17 q 191 112 246 49 q 106 269 136 175 q 76 485 76 363 q 106 701 76 607 q 191 858 136 794 q 323 953 246 921 q 494 986 400 986 q 621 969 563 986 l 799 969 l 799 1121 l 928 1121 m 494 124 q 597 143 550 124 q 676 199 643 163 q 726 289 708 236 q 744 408 744 342 l 744 561 q 726 681 744 628 q 676 770 708 733 q 597 826 643 807 q 494 846 550 846 q 392 826 438 846 q 313 770 346 807 q 263 681 281 733 q 244 561 244 628 l 244 408 q 263 289 244 342 q 313 199 281 236 q 392 143 346 163 q 494 124 438 124 z "},"Ớ":{"ha":989,"x_min":76,"x_max":928,"o":"m 928 1121 l 928 986 q 906 906 928 935 q 818 876 885 876 l 781 876 q 881 709 849 807 q 913 485 913 611 q 883 269 913 363 q 798 112 853 175 q 666 16 743 49 q 494 -17 589 -17 q 323 16 400 -17 q 191 112 246 49 q 106 269 136 175 q 76 485 76 363 q 106 701 76 607 q 191 858 136 794 q 323 953 246 921 q 494 986 400 986 q 621 969 563 986 l 799 969 l 799 1121 l 928 1121 m 494 124 q 597 143 550 124 q 676 199 643 163 q 726 289 708 236 q 744 408 744 342 l 744 561 q 726 681 744 628 q 676 770 708 733 q 597 826 643 807 q 494 846 550 846 q 392 826 438 846 q 313 770 346 807 q 263 681 281 733 q 244 561 244 628 l 244 408 q 263 289 244 342 q 313 199 281 236 q 392 143 346 163 q 494 124 438 124 m 510 1040 l 415 1085 l 542 1335 l 674 1271 l 510 1040 z "}}}
